<svg width="558" height="395" viewBox="0 0 558 395" fill="none" xmlns="http://www.w3.org/2000/svg">
<path d="M344.454 289.648C338.15 286.146 341.828 263.09 344.454 252L414.936 251.124C416.833 261.193 420.102 282.556 418.001 287.459C415.374 293.588 409.245 291.399 406.618 292.713C403.992 294.026 352.334 294.026 344.454 289.648Z" fill="#B88271"/>
<path d="M363.279 283.519L352.772 295.339L341.39 294.463L363.279 272.137V283.519Z" fill="#FEE7D9"/>
<ellipse cx="343.428" cy="244.335" rx="5.97747" ry="8.53925" fill="#FEE7D9"/>
<ellipse cx="5.55051" cy="8.53925" rx="5.55051" ry="8.53925" transform="matrix(-1 0 0 1 422.843 234.673)" fill="#FEE7D9"/>
<ellipse cx="380.573" cy="239.796" rx="37.1457" ry="32.4492" fill="#FEE7D9"/>
<path d="M384.208 246.836C384.208 248.25 382.415 250.043 381 250.043C379.586 250.043 377.792 247.604 377.792 246.189C377.792 244.775 379.586 246.212 381 246.212C382.415 246.212 384.208 245.421 384.208 246.836Z" fill="#563725"/>
<path d="M386.124 256.448C382.367 256.448 377.727 253.886 375.877 252.605C375.194 254.313 377.869 257.302 379.293 258.583C380.431 259.152 383.392 259.522 386.124 256.448Z" fill="#5B3B28"/>
<ellipse cx="363.434" cy="248.393" rx="4.79498" ry="2.69718" transform="rotate(18.5221 363.434 248.393)" fill="#FCA2BF"/>
<ellipse cx="5.35288" cy="3.01099" rx="5.35288" ry="3.01099" transform="matrix(-0.948201 0.31767 0.31767 0.948201 406.343 244.837)" fill="#FCA2BF"/>
<path d="M339.639 235.801C339.989 239.653 346.205 247.037 349.27 250.247L344.892 234.926C348.832 231.278 360.389 223.894 375.098 223.544C389.808 223.193 398.592 218.29 402.678 214.788C403.7 215.226 404.867 217.415 407.932 221.792C411.872 224.857 414.644 230.402 414.498 234.926C414.644 242.952 413.062 257.779 414.498 254.188C416.249 249.81 416.249 251.999 421.503 235.801C426.756 219.603 401.365 191.586 398.738 192.023C396.112 192.461 386.043 190.272 363.716 194.65C341.39 199.028 339.201 230.985 339.639 235.801Z" fill="#B88271"/>
<path d="M415.374 300.185V307.628C415.374 307.919 415.024 308.328 413.623 307.628C412.222 306.927 411.872 300.915 411.872 297.997L399.614 284.426C401.219 282.529 400.577 273.547 400.927 273.898C401.278 274.248 411.726 287.49 414.936 291.43H425.005C426.318 291.43 427.194 293.181 425.005 294.057C423.254 293.619 422.378 294.786 422.378 295.37L427.194 299.31C427.923 300.477 428.945 302.812 427.194 302.812C425.443 302.812 422.67 300.769 421.503 299.748C422.67 300.915 425.005 303.425 425.005 304.125C425.005 305.001 425.443 306.314 424.129 306.314C423.333 306.314 420.975 304.3 419.118 302.563C419.913 303.548 420.627 304.865 420.627 306.314C420.627 308.766 419.46 308.211 418.876 307.628L415.374 300.185Z" fill="#FEE7D9"/>
<path d="M375.536 271.261L376.412 268.197L384.292 267.759L385.605 272.574L386.481 281.33L374.223 283.081L375.536 271.261Z" fill="#FEE7D9"/>
<path d="M358.025 301.03L361.09 274.325L361.392 271.91C361.465 271.327 362.023 270.932 362.598 271.057L375.536 273.888C375.39 276.952 375.624 280.804 379.476 280.454C384.292 280.017 385.605 274.763 385.605 274.325C385.605 273.992 394.331 273.236 400.079 273.415C400.569 273.431 400.967 273.807 401.015 274.295C401.96 283.881 402.143 301.714 401.803 304.094C401.453 306.546 373.056 303.073 358.025 301.03Z" fill="#83D7EA"/>
<path d="M388.323 189.397C389.724 189.047 390.949 183.706 391.387 181.079C393.138 182.392 399.705 190.272 401.894 191.148C404.083 192.023 412.838 190.71 414.589 190.71C416.34 190.71 417.654 195.963 416.778 197.715C416.078 199.115 411.525 198.59 409.336 198.152C410.211 200.633 410.824 205.857 406.272 206.908C400.58 208.221 401.456 198.152 399.705 195.963C397.954 193.775 389.636 195.963 386.134 195.526C382.632 195.088 386.572 189.835 388.323 189.397Z" fill="#83D7EA"/>
<path fill-rule="evenodd" clip-rule="evenodd" d="M363.164 237.933C362.245 238.001 361.493 238.499 360.982 239.07C360.749 239.331 360.361 239.425 360.064 239.239C359.767 239.054 359.674 238.66 359.897 238.39C360.572 237.569 361.654 236.774 363.07 236.669C364.699 236.548 366.568 237.352 368.553 239.648C368.782 239.913 368.737 240.313 368.463 240.532C368.19 240.75 367.792 240.704 367.562 240.44C365.745 238.352 364.241 237.853 363.164 237.933Z" fill="black"/>
<path fill-rule="evenodd" clip-rule="evenodd" d="M400.253 239.235C401.171 239.303 401.924 239.801 402.434 240.372C402.668 240.632 403.056 240.727 403.353 240.541C403.65 240.356 403.742 239.962 403.52 239.692C402.845 238.871 401.763 238.076 400.347 237.971C398.718 237.85 396.849 238.654 394.864 240.95C394.635 241.215 394.68 241.615 394.953 241.833C395.227 242.052 395.625 242.006 395.855 241.742C397.671 239.654 399.175 239.155 400.253 239.235Z" fill="black"/>
<path d="M452.34 316.46L443.473 326.435L433.867 325.696L452.34 306.854V316.46Z" fill="#FEE7D9"/>
<path d="M514.238 342.681V348.962C514.238 349.208 513.943 349.553 512.76 348.962C511.578 348.37 511.283 343.296 511.283 340.833L500.938 329.38C502.292 327.779 501.75 320.199 502.046 320.495C502.341 320.79 511.159 331.966 513.869 335.292H522.367C523.475 335.291 524.214 336.769 522.367 337.508C520.889 337.139 520.15 338.124 520.15 338.617L524.214 341.942C524.83 342.927 525.692 344.897 524.214 344.897C522.736 344.897 520.396 343.173 519.411 342.311C520.396 343.296 522.367 345.415 522.367 346.006C522.367 346.745 522.736 347.853 521.628 347.853C520.955 347.853 518.965 346.153 517.398 344.687C518.069 345.519 518.672 346.63 518.672 347.853C518.672 349.922 517.687 349.454 517.194 348.962L514.238 342.681Z" fill="#FEE7D9"/>
<path d="M474.04 306.335L476.54 297.409L487.483 298.775L483.701 309.041L474.04 306.335Z" fill="#FEE7D9"/>
<path d="M443.139 274.766C444.08 270.189 447.819 269.738 449.57 270.085C451.653 269.977 455.197 277.423 456.708 281.16C457.767 283.473 459.162 288.243 456.27 288.816C453.379 289.389 452.924 291.624 453.057 292.67C452.778 294.176 451.563 297.092 448.941 296.703C445.664 296.217 447.423 300.599 446.07 302.381C444.718 304.163 439.805 304.948 440.082 302.433C440.36 299.917 437.815 298.34 434.762 297.053C431.71 295.765 431.421 292.227 432.206 289.422C432.992 286.617 436.783 289.84 435.821 288.706C434.858 287.572 434.687 286.66 433.89 283.411C433.093 280.163 436.542 281.561 438.066 280.691C439.589 279.822 438.007 279.378 437.269 277.443C436.531 275.508 440.257 274.391 443.139 274.766Z" fill="#B88270"/>
<path d="M532.071 299.678C533.645 295.278 530.684 292.951 529.007 292.337C527.284 291.163 520.388 295.684 517.155 298.092C515.048 299.519 511.379 302.87 513.552 304.862C515.725 306.853 514.953 309 514.295 309.824C513.752 311.256 513.275 314.379 515.718 315.408C518.771 316.696 514.991 319.526 515.221 321.752C515.451 323.977 519.242 327.2 520.311 324.906C521.38 322.613 524.374 322.587 527.651 323.073C530.929 323.559 533.014 320.685 533.799 317.88C534.585 315.075 529.672 315.86 531.083 315.391C532.495 314.922 533.115 314.231 535.483 311.87C537.851 309.508 534.178 308.911 533.328 307.376C532.478 305.842 534.061 306.285 535.696 305.015C537.332 303.744 534.729 300.854 532.071 299.678Z" fill="#B88270"/>
<path d="M453.778 285.323C449.431 284.811 446.859 276.625 446.116 272.597C448.77 272.988 450.388 268.65 450.865 266.433L460.986 278.085C460.395 280.711 458.124 285.835 453.778 285.323Z" fill="#C93D46"/>
<path d="M516.72 303.24C521.006 303.949 525.737 297.011 527.566 293.453C524.928 293.093 524.593 288.603 524.756 286.402L511.864 294.514C511.697 297.128 512.434 302.531 516.72 303.24Z" fill="#C93D46"/>
<path d="M495.338 250.055C471.709 234.865 456.838 264.983 455.422 265.443C454.494 265.183 452.077 263.907 449.837 260.879C452.136 233.068 473.383 222.763 483.386 222.279C492.677 223.31 512.947 226.703 525.168 236.983C537.389 247.263 533.839 273.41 530.187 283.387C529.927 284.314 527.737 285.7 521.054 283.828C526.768 274.458 518.489 260.825 513.636 255.18L495.338 250.055Z" fill="#B8856F"/>
<ellipse cx="489.965" cy="271.722" rx="35.4439" ry="31.0816" transform="rotate(15.6486 489.965 271.722)" fill="#FEE7D9"/>
<ellipse cx="521.933" cy="288.731" rx="4.95449" ry="7.43173" transform="rotate(30.6486 521.933 288.731)" fill="#FEE7D9"/>
<ellipse cx="453.578" cy="268.549" rx="4.95449" ry="7.43173" transform="rotate(-14.3514 453.578 268.549)" fill="#FEE7D9"/>
<path d="M480.776 286.228C482.592 290.539 487.165 291.907 489.225 292.051C489.297 292.792 488.908 294.383 486.769 294.821C484.63 295.259 480.776 293.501 479.317 291.437C477.655 287.687 478.96 281.917 480.776 286.228Z" fill="#5B3B28"/>
<path d="M490.846 280.141C490.358 281.882 488.553 282.899 486.813 282.411C485.073 281.924 484.058 280.117 484.545 278.376C485.033 276.635 486.176 277.983 487.916 278.471C489.656 278.958 491.334 278.4 490.846 280.141Z" fill="#5B3B28"/>
<path d="M449.088 308.484C454.909 298.708 468.692 301.158 474.857 303.605C475.498 303.353 478.369 303.293 484.72 305.072C489.201 302.525 501.239 315.892 506.698 322.894C504.403 325.995 499.345 331.721 497.481 329.817C495.152 327.436 495.661 327.147 495.091 326.123C494.522 325.099 494.53 328.126 494.314 331.954C495.349 337.428 496.416 374.883 493.076 376.107C490.405 377.087 461.445 350.973 447.299 337.794C450.89 331.599 458.046 318.684 457.95 316.583C457.853 314.482 454.325 317.296 452.574 318.965C451.987 318.513 450.468 315.783 449.088 308.484Z" fill="#D86464"/>
<path d="M463.054 319.369L464.95 301.818L469.175 302.14L466.525 317.758L468.526 318.319C468.206 318.229 479.978 322.101 485.905 324.048L490.378 308.08L495.179 309.424L491.729 324.818L494.5 328L496 355.5L494.5 373L447.126 337.725L456.047 321.281L463.054 319.369Z" fill="#FCA2BF"/>
<path d="M467.212 318.58L464.062 317.697L463.032 321.373L466.183 322.255L467.212 318.58Z" fill="white"/>
<path d="M489.266 324.757L486.115 323.875L485.086 327.55L488.236 328.433L489.266 324.757Z" fill="white"/>
<path d="M464.013 325.998C467.133 324.812 470.809 330.763 472.257 333.887C476.18 329.836 481.738 330.105 484.026 330.747C484.068 333.19 482.892 338.841 477.855 341.894C471.559 345.709 468.035 344.293 466.35 342.534C464.665 340.774 460.113 327.481 464.013 325.998Z" fill="#FB686B"/>
<path d="M503.1 217.886C485.751 218.501 474.71 224.192 471.358 226.96C491.767 233.817 531.837 246.211 528.852 240.926C525.12 234.32 512.813 218.468 503.1 217.886Z" fill="#B8856F"/>
<path d="M256.422 293.823L263.883 286.362L266.369 293.112L259.264 298.086L260.33 305.901L252.87 310.519C252.87 310.519 245.112 307.427 245.41 303.414C245.642 300.278 250.738 297.375 250.738 297.375H247.896C246.475 297.091 246.831 295.599 247.186 294.888L256.422 293.823Z" fill="#FEE7D9"/>
<path d="M317.573 303.827C316.193 300.145 313.339 292.689 312.971 292.321L301.004 293.241L307.448 302.907L317.573 303.827Z" fill="#EFD0BD"/>
<path d="M265.104 281.274C265.472 278.329 273.849 275.137 277.991 273.91H289.958C295.481 273.91 314.351 289.559 313.891 290.94C313.431 292.32 305.607 296.002 302.845 296.923C300.084 297.843 264.644 284.956 265.104 281.274Z" fill="#EDF5FC"/>
<path d="M262.462 281.744L269.922 277.125L272.409 285.651C271.935 288.967 270.206 295.385 267.08 294.533C263.954 293.68 262.699 285.651 262.462 281.744Z" fill="#EDF5FC"/>
<path d="M282.134 281.274C281.397 281.274 280.293 275.138 279.833 272.069L289.038 268.387V278.053C285.356 282.655 283.054 281.274 282.134 281.274Z" fill="#FEE7D9"/>
<ellipse cx="250.5" cy="248" rx="5.5" ry="8" fill="#FEE7D9"/>
<ellipse cx="5" cy="8" rx="5" ry="8" transform="matrix(-1 0 0 1 323 239)" fill="#FEE7D9"/>
<ellipse cx="284.5" cy="244" rx="34.5" ry="30" fill="#FEE7D9"/>
<circle cx="284.5" cy="247.5" r="2.5" fill="#563725"/>
<path d="M289 259.624C285.735 259.624 281.703 257.208 280.095 256C279.502 257.611 281.827 260.429 283.064 261.637C284.053 262.173 286.625 262.522 289 259.624Z" fill="#5B3B28"/>
<path d="M255.516 227.08V249.466C253.314 246.01 248.542 239.561 247.293 241.237L247.267 240.906C246.865 235.819 246.079 225.885 246.079 221.582C245.38 214.905 249.052 205.748 266.89 201.552C273.79 199.93 302.332 198 309.779 198C311.601 199.93 326.983 217.126 318.429 239.255C316.857 244.36 314.026 253.393 315.284 248.68C316.857 242.789 310.959 232.578 309.779 230.615C308.835 229.044 305.646 224.331 305.253 227.08L301.522 225.116C300.735 228.782 296.371 225.745 292.281 225.116C287.17 224.331 282.648 222.76 279.109 222.367C276.278 222.053 259.797 219.986 261.37 223.913L255.516 227.08Z" fill="#282528"/>
<path d="M271.698 294.888V276.219L275.606 274.639C275.843 274.758 276.458 276.984 277.027 283.52C277.595 290.057 286.026 290.033 290.171 289.204L294.789 275.705L298.697 277.836C298.697 278.902 296.921 296.665 296.921 296.665L271.698 294.888Z" fill="#69869F"/>
<path d="M221.194 284.833C219.939 281.484 217.344 274.704 217.009 274.369L206.127 275.206L211.987 283.996L221.194 284.833Z" fill="#FEE7D9"/>
<path d="M173.481 264.324C173.815 261.645 181.433 258.743 185.2 257.627H196.082C201.104 257.627 218.265 271.857 217.846 273.113C217.428 274.369 210.312 277.717 207.801 278.554C205.29 279.391 173.062 267.672 173.481 264.324Z" fill="#EDF5FC"/>
<path d="M188.967 264.324C188.297 264.324 187.293 258.743 186.874 255.953L195.245 252.604V261.394C191.897 265.579 189.804 264.324 188.967 264.324Z" fill="#FEE7D9"/>
<ellipse cx="154.646" cy="230.686" rx="5.85958" ry="8.37084" fill="#FEE7D9"/>
<ellipse cx="5.44104" cy="8.37084" rx="5.44104" ry="8.37084" transform="matrix(-1 0 0 1 232.495 221.214)" fill="#FEE7D9"/>
<ellipse cx="191.059" cy="226.236" rx="36.4131" ry="31.8092" fill="#FEE7D9"/>
<path d="M194.635 233.124C194.635 234.511 193.511 235.636 192.124 235.636C190.737 235.636 189.613 234.511 189.613 233.124C189.613 231.737 190.737 231.905 192.124 231.905C193.511 231.905 194.635 231.737 194.635 233.124Z" fill="#563725"/>
<path d="M195.854 244.498C192.171 244.498 187.623 241.987 185.809 240.731C185.14 242.405 187.763 245.335 189.158 246.591C190.274 247.149 193.176 247.511 195.854 244.498Z" fill="#5B3B28"/>
<path d="M160.77 208.312V232.169C158.426 228.486 153.346 221.613 152.017 223.4L151.989 223.046C151.561 217.625 150.725 207.039 150.725 202.453C150.725 197.765 156.306 195.477 159.096 194.919C158.677 190.315 161.105 179.684 174.163 173.992C187.222 168.3 210.856 176.364 221.04 181.107L232.759 180.27C235.27 180.549 239.707 182.028 237.363 185.711C235.019 189.394 230.527 193.942 228.574 195.756L227.737 221.287C226.063 226.728 223.049 236.355 224.388 231.332C226.063 225.054 219.784 214.172 218.529 212.079C217.524 210.405 216.436 215.846 216.018 218.776L209.739 206.22C208.902 210.126 206.14 217.771 201.787 217.102C196.346 216.265 189.649 203.708 185.883 203.29C182.869 202.955 185.464 211.242 187.138 215.428L160.77 208.312Z" fill="#282528"/>
<path d="M79.0071 311.593L29.2568 361.02C31.8413 361.02 113.251 347.775 149.433 334.853C178.378 324.515 210.49 330.546 224.058 334.853C227.073 336.038 237.691 340.991 249.579 350.037C270.255 333.238 309.99 325.808 325.174 328.392C329.481 328.715 343.588 330.007 354.895 332.269C399.605 350.36 456.01 359.082 477.332 356.498C476.363 355.852 465.185 345.385 426.936 312.562C300.299 266.689 269.932 290.272 249.256 301.579C203.253 264.621 127.142 253.228 94.8367 252.151C82.9914 256.889 55.4242 268.239 39.9176 275.734C46.8956 272.375 70.823 274.334 81.9145 275.734L79.0071 311.593Z" fill="#DBDBDB"/>
<path d="M34.1025 311.593L181.738 307.716C162.096 291.434 106.359 279.395 80.9453 275.411L34.1025 311.593Z" fill="#C2C2C2"/>
<path d="M26.3495 354.236L0.182129 382.342L132.957 378.142L275.424 374.588L408.845 381.696L507.053 385.249L477.009 356.174L444.058 354.882C444.596 355.528 435.077 354.171 392.692 343.575C333.573 320.638 292.545 329.361 286.084 330.653C279.623 331.945 270.578 335.822 249.579 349.713C232.134 333.238 190.138 319.992 152.986 333.238C123.265 343.834 58.9779 355.959 30.5492 360.697V356.174L26.3495 354.236Z" fill="#C2C2C2"/>
<path d="M112.282 351.005C113.897 350.682 158.801 334.206 188.845 336.467C212.881 338.277 228.796 344.113 233.75 346.805" stroke="#757575" stroke-width="2"/>
<path d="M121.327 361.021C127.573 358.651 147.301 354.172 176.246 355.206" stroke="#757575" stroke-width="2"/>
<path d="M291.899 351.974C299.868 349.498 321.039 346.03 341.973 351.974" stroke="#757575" stroke-width="2"/>
<path d="M300.945 338.083C314.298 336.037 349.984 335.305 385.908 348.744" stroke="#757575" stroke-width="2"/>
<path d="M0.182129 389.772V382.341L222.766 370.389C225.566 365.004 235.43 354.365 252.487 354.882C269.544 355.399 278.977 365.435 281.562 370.389L507.376 384.603V394.618L283.177 379.111C281.885 380.834 278.331 387.834 257.333 389.126C239.37 390.231 226.966 384.064 222.766 379.111L0.182129 389.772Z" fill="#AD572E"/>
<path d="M253.456 380.08C238.983 379.046 227.396 373.188 223.412 370.388C225.566 364.788 234.396 353.783 252.487 354.558C270.578 355.334 278.977 365.435 280.916 370.388C277.793 374.049 267.929 381.113 253.456 380.08Z" fill="#A43C19"/>
<ellipse cx="170.825" cy="233.399" rx="5.16885" ry="2.90748" transform="rotate(18.5221 170.825 233.399)" fill="#E8B5A6"/>
<ellipse cx="267.5" cy="250.5" rx="4.5" ry="2.5" fill="#E8B5A6"/>
<ellipse cx="5.77025" cy="3.24577" rx="5.77025" ry="3.24577" transform="matrix(-0.948201 0.31767 0.31767 0.948201 217.233 230.83)" fill="#E8B5A6"/>
<ellipse cx="5" cy="3" rx="5" ry="3" transform="matrix(-1 8.74228e-08 8.74228e-08 1 307 247)" fill="#E8B5A6"/>
<path fill-rule="evenodd" clip-rule="evenodd" d="M173.854 224.354C172.936 224.422 172.183 224.92 171.673 225.491C171.439 225.752 171.051 225.846 170.754 225.66C170.457 225.475 170.365 225.081 170.587 224.811C171.263 223.99 172.344 223.195 173.76 223.09C175.39 222.969 177.258 223.773 179.243 226.069C179.472 226.334 179.427 226.734 179.154 226.952C178.88 227.171 178.482 227.125 178.252 226.861C176.436 224.773 174.932 224.274 173.854 224.354Z" fill="#424242"/>
<path fill-rule="evenodd" clip-rule="evenodd" d="M268.106 239.668C267.346 239.878 266.797 240.421 266.463 240.984C266.31 241.242 266 241.386 265.72 241.279C265.44 241.172 265.297 240.857 265.438 240.594C265.869 239.792 266.646 238.945 267.817 238.622C269.165 238.25 270.868 238.616 272.915 240.214C273.151 240.398 273.18 240.742 272.986 240.971C272.793 241.2 272.451 241.227 272.214 241.043C270.343 239.591 268.997 239.422 268.106 239.668Z" fill="#292929"/>
<path fill-rule="evenodd" clip-rule="evenodd" d="M212.236 225.656C213.154 225.724 213.907 226.222 214.417 226.792C214.651 227.053 215.039 227.148 215.336 226.962C215.633 226.777 215.725 226.383 215.503 226.113C214.828 225.292 213.746 224.497 212.33 224.392C210.701 224.27 208.832 225.075 206.847 227.371C206.618 227.636 206.663 228.036 206.936 228.254C207.21 228.473 207.608 228.427 207.838 228.163C209.654 226.075 211.158 225.576 212.236 225.656Z" fill="#424242"/>
<path fill-rule="evenodd" clip-rule="evenodd" d="M301.296 240.321C302.034 240.598 302.532 241.188 302.814 241.78C302.943 242.05 303.239 242.221 303.527 242.14C303.816 242.06 303.987 241.759 303.869 241.483C303.512 240.646 302.815 239.733 301.678 239.305C300.369 238.813 298.641 239.024 296.457 240.43C296.205 240.593 296.146 240.932 296.318 241.178C296.49 241.423 296.828 241.481 297.08 241.32C299.075 240.043 300.431 239.995 301.296 240.321Z" fill="#292929"/>
<ellipse cx="470.22" cy="269.944" rx="4.79498" ry="2.69718" transform="rotate(33.5221 470.22 269.944)" fill="#FCA2BF"/>
<ellipse cx="5.35288" cy="3.01099" rx="5.35288" ry="3.01099" transform="matrix(-0.970079 -0.24279 -0.24279 0.970079 513.646 282.102)" fill="#FCA2BF"/>
<path fill-rule="evenodd" clip-rule="evenodd" d="M476.739 260.402C475.74 260.213 474.794 260.529 474.086 260.992C473.762 261.204 473.32 261.193 473.057 260.91C472.793 260.627 472.806 260.181 473.121 259.956C474.077 259.272 475.459 258.733 477.001 259.026C478.775 259.363 480.539 260.756 482.002 263.775C482.171 264.123 482.008 264.537 481.653 264.692C481.299 264.847 480.887 264.684 480.718 264.337C479.375 261.588 477.913 260.625 476.739 260.402Z" fill="black"/>
<path fill-rule="evenodd" clip-rule="evenodd" d="M509.201 272.423C510.042 272.996 510.487 273.888 510.66 274.716C510.74 275.095 511.059 275.4 511.446 275.386C511.832 275.373 512.138 275.047 512.075 274.666C511.882 273.507 511.286 272.148 509.989 271.265C508.497 270.249 506.263 269.986 503.095 271.087C502.729 271.213 502.552 271.621 502.693 271.982C502.833 272.342 503.24 272.518 503.606 272.392C506.498 271.397 508.213 271.751 509.201 272.423Z" fill="black"/>
<path d="M82.0079 194L83.9099 199.528H90.0648L85.0853 202.944L86.9873 208.472L82.0079 205.056L77.0285 208.472L78.9304 202.944L73.951 199.528H80.1059L82.0079 194Z" fill="#04CCC1"/>
<path d="M22.7073 89L25.5602 97.2918H34.7926L27.3235 102.416L30.1764 110.708L22.7073 105.584L15.2381 110.708L18.0911 102.416L10.6219 97.2918H19.8543L22.7073 89Z" fill="#6F96F7"/>
<path d="M539.469 0L541.609 6.21885H548.533L542.932 10.0623L545.071 16.2812L539.469 12.4377L533.868 16.2812L536.007 10.0623L530.405 6.21885H537.33L539.469 0Z" fill="#6FBEF7"/>
<path d="M404.984 57L408.075 65.9828H418.077L409.985 71.5344L413.076 80.5172L404.984 74.9656L396.893 80.5172L399.983 71.5344L391.892 65.9828H401.894L404.984 57Z" fill="#FF5A7E"/>
<path d="M192.138 27L195.466 36.6738H206.237L197.523 42.6525L200.852 52.3262L192.138 46.3475L183.424 52.3262L186.752 42.6525L178.038 36.6738H188.809L192.138 27Z" fill="#FEB547"/>
<path d="M299.09 132L301.943 140.292H311.176L303.707 145.416L306.559 153.708L299.09 148.584L291.621 153.708L294.474 145.416L287.005 140.292H296.237L299.09 132Z" fill="#FB686B"/>
<path d="M535.234 152L538.087 160.292H547.319L539.85 165.416L542.703 173.708L535.234 168.584L527.765 173.708L530.618 165.416L523.149 160.292H532.381L535.234 152Z" fill="#69869F"/>
</svg>
