<svg width="787" height="465" viewBox="0 0 787 465" fill="none" xmlns="http://www.w3.org/2000/svg">
<g clip-path="url(#clip0_82_1942)">
<rect width="787" height="465" fill="white"/>
<path d="M361 292.532C173 265.732 42 398.032 0 467.532H787C719.5 404.032 596 326.032 361 292.532Z" fill="#E9C8B1"/>
<path d="M171 197V24H431V197H171Z" fill="#FFFAF7"/>
<path d="M184 188V33H417V188H184Z" fill="#E9EAE5"/>
<path d="M345.136 387.29C358.361 381.622 354.845 370.759 351.434 366.036L336.084 362.1L323.489 379.024C324.407 379.811 330.022 382.567 345.136 387.29Z" fill="#E98769"/>
<path d="M342.76 386.895C355.985 381.227 352.469 370.364 349.058 365.641L333.708 361.705L321.113 378.63C322.031 379.417 327.646 382.172 342.76 386.895Z" fill="#FFA183"/>
<path d="M301.827 249.531C302.483 245.595 303.952 237.172 304.582 234.968C293.037 212.14 270.339 167.585 271.914 171.993C273.488 176.401 267.322 203.218 264.042 216.075C261.418 220.011 257.036 228.749 260.499 232.213C264.829 236.542 256.564 236.149 252.628 240.085C254.396 240.969 256.784 240.353 258.596 239.545C257.817 240.706 256.946 242.897 256.17 246.776C254.596 254.648 258.4 258.715 260.499 259.764C259.45 257.534 257.744 253.546 259.319 255.435C260.893 257.324 267.059 261.732 269.946 263.7L277.424 255.435L301.827 249.531Z" fill="#96432D"/>
<ellipse cx="34.6363" cy="40.1466" rx="34.6363" ry="40.1466" transform="matrix(-1 0 0 1 352.207 164.939)" fill="#FEE7D9"/>
<path d="M321.529 169.987C324.744 182.173 337.377 193.627 345.515 197.836C346.059 198.117 347.255 199.017 346.507 200.711C345.938 201.999 347.539 216.955 347.255 224.709L323.465 244.746C323.411 251.442 323.702 264.979 325.295 265.559C327.287 266.285 346.17 265.696 350.473 264.775C354.776 263.853 356.424 253.563 357.666 255.493C358.907 257.423 353.952 262.697 354.014 264.664C365.554 255.255 360.163 245.452 359.043 243.836C359.671 244.336 361.511 244.624 362.449 244.712C363.74 244.015 365.923 242.477 364.33 241.897C361.625 243.556 355.946 238.22 355.934 237.827C355.921 237.434 357.102 237.397 358.418 229.086C350.564 204.523 356.393 203.203 354.452 178.848C352.9 159.365 333.557 153.736 324.603 152.834C322.239 152.777 318.313 157.801 321.529 169.987Z" fill="#96432D"/>
<ellipse cx="4.30699" cy="7.61903" rx="4.30699" ry="7.61903" transform="matrix(-0.992813 -0.119677 -0.119677 0.992813 355.843 206.323)" fill="#FEE7D9"/>
<ellipse cx="280.612" cy="213.469" rx="5.11672" ry="8.69821" transform="rotate(1.3856 280.612 213.469)" fill="#FEE7D9"/>
<path d="M292.774 196.396C310.486 186.556 318.751 167.663 322.294 165.302C322.95 162.022 324.262 155.304 324.262 154.675C324.262 153.887 311.926 147.599 291.066 153.503C270.205 159.407 269.159 184.588 269.552 188.524C269.946 192.46 278.998 198.364 280.573 197.576C282.147 196.789 284.902 220.798 284.902 225.522C286.162 226.151 287.789 234.443 288.445 238.51C287.789 240.085 287.185 243.863 290.019 246.382C293.561 249.531 290.019 251.892 291.593 252.286C293.168 252.68 293.561 249.531 293.955 248.35C294.349 247.169 289.625 241.265 292.774 236.542C295.923 231.819 292.774 218.043 291.593 215.288C290.413 212.533 290.806 197.576 292.774 196.396Z" fill="#96432D"/>
<path d="M348.664 228.276C347.076 223.17 347.54 214.394 347.937 210.564C347.937 205.458 347.143 195.555 347.143 196.916C347.143 198.618 343.173 209.683 342.776 213.938C342.379 218.194 350.65 234.659 348.664 228.276Z" fill="#96432D"/>
<path d="M375.429 316.837L356.93 301.093L345.909 310.145L365.982 326.676L375.429 316.837Z" fill="#FEE7D9"/>
<path d="M365.983 356.983C367.242 355.408 418.987 355.015 437.223 356.589C433.418 357.77 417.858 363.202 417.543 364.461C417.15 366.036 382.514 377.45 380.546 379.024C378.971 380.284 370.181 376.925 365.983 375.088C364.933 374.432 362.519 372.569 361.259 370.365C358.504 361.706 364.408 358.951 365.983 356.983Z" fill="#5B5B5B"/>
<path d="M250.273 333.53C252.186 331.126 330.798 330.525 358.504 332.929C352.724 334.732 329.084 343.027 328.606 344.95C328.008 347.354 275.387 364.784 272.397 367.188C270.006 369.111 256.651 363.982 250.273 361.178C248.678 360.176 245.011 357.331 243.097 353.965C238.912 340.742 247.881 336.535 250.273 333.53Z" fill="#5B5B5B"/>
<path d="M429.351 310.537C428.092 309.593 417.806 308.832 412.82 308.569C412.82 311.587 410.931 317.543 403.374 317.228C395.817 316.914 393.928 311.324 393.928 308.569C391.041 308.569 384.088 308.963 379.365 310.537C374.641 312.112 367.95 324.838 365.195 331.004L400.225 345.961C412.164 338.089 436.357 322.266 437.617 321.952C439.191 321.558 430.925 311.718 429.351 310.537Z" fill="#6F96F7"/>
<path d="M442.733 371.94C447.771 365.957 442.208 360.001 438.797 357.771C437.19 356.511 433.929 357.246 432.5 357.771C415.313 363.937 380.939 377.214 380.939 380.993C380.939 385.716 386.056 390.439 389.598 390.439C400.934 385.086 420.561 380.599 428.957 379.025C430.794 378.369 436.121 376.033 442.733 371.94Z" fill="#FEE7D9"/>
<path d="M366.46 356.206C374.105 347.172 365.664 338.178 360.489 334.81C358.05 332.908 353.102 334.017 350.933 334.81C324.856 344.121 272.701 364.17 272.701 369.876C272.701 377.008 280.464 384.14 285.839 384.14C303.038 376.057 332.818 369.281 345.559 366.904C348.346 365.914 356.428 362.387 366.46 356.206Z" fill="#FEE7D9"/>
<path d="M435.648 357.376C435.334 356.432 437.092 356.589 437.616 356.589C438.928 357.507 443.608 360.918 444.552 364.067C445.733 368.003 444.946 369.577 442.584 371.939C440.695 373.828 432.613 377.449 428.415 379.023C426.316 378.236 427.466 375.631 428.415 375.481C435.893 374.3 439.436 371.545 442.584 366.822C445.733 362.099 436.042 358.557 435.648 357.376Z" fill="#5B5B5B"/>
<path d="M355.741 334.175C355.255 332.75 357.967 332.988 358.776 332.988C360.8 334.373 368.018 339.516 369.475 344.265C371.297 350.201 370.082 352.575 366.439 356.137C363.525 358.986 351.059 364.447 344.582 366.822C341.344 365.635 343.119 361.705 344.582 361.479C356.118 359.699 361.582 355.543 366.439 348.42C371.297 341.297 356.348 335.955 355.741 334.175Z" fill="#5B5B5B"/>
<path d="M425.809 374.3C423.92 373.041 407.441 371.151 399.438 370.364C400.383 371.624 397.995 380.073 396.683 384.14C399.438 385.058 405.578 387.053 408.097 387.682C410.616 388.312 418.593 389.782 422.267 390.438C422.66 390.306 423.998 389.572 426.203 387.682C430.138 383.353 428.171 375.875 425.809 374.3Z" fill="#5884F2"/>
<path d="M340.216 365.567C337.745 363.69 314.399 357.367 303.034 354.439C304.146 356.073 299.042 364.785 296.351 368.937C300.136 370.659 308.581 374.44 312.082 375.783C315.584 377.126 326.776 380.8 331.934 382.469C332.527 382.425 334.598 381.958 338.143 380.44C344.662 376.673 343.305 367.912 340.216 365.567Z" fill="#FEE7D9"/>
<path d="M367.163 375.087L396.683 383.747C400.461 372.411 399.832 369.84 399.044 369.971C392.222 367.216 377.239 361.312 371.886 359.737C365.195 359.737 363.227 365.641 363.227 369.184C363.227 372.017 365.851 374.3 367.163 375.087Z" fill="#FEE7D9"/>
<path d="M251.892 361.351L296.562 374.694C302.28 357.226 301.327 353.264 300.136 353.466C289.812 349.22 267.14 340.122 259.04 337.696C248.914 337.696 245.936 346.794 245.936 352.253C245.936 356.62 249.907 360.138 251.892 361.351Z" fill="#FEE7D9"/>
<path d="M412.82 384.534C411.208 383.589 408.428 372.595 406.916 367.609C406.129 367.609 401.012 369.971 400.225 370.365C400.619 370.365 405.599 380.204 407.782 384.928C408.118 384.928 409.596 384.849 412.82 384.534Z" fill="white"/>
<path d="M405.342 370.758L399.044 369.971C400.619 371.23 398.126 379.679 396.683 383.747L401.012 385.321C401.799 386.108 401.347 384.91 401.799 379.023C402.193 373.907 404.161 371.151 405.342 370.758Z" fill="white"/>
<path d="M420.298 390.044C432.893 382.959 423.841 373.907 423.841 373.513C418.724 372.726 407.782 371.151 404.948 371.151C402.114 371.151 401.406 380.86 401.406 385.714C404.555 386.633 412.741 388.784 420.298 390.044Z" fill="#6F96F7"/>
<path d="M382.12 379.417C385.268 382.172 389.86 388.732 391.566 389.65C391.566 389.782 391.094 390.28 389.204 391.225C383.537 389.65 380.939 383.615 380.545 380.991C380.545 380.729 381.332 379.417 382.12 379.417Z" fill="#5884F2"/>
<path d="M382.514 379.811C383.143 379.496 396.158 383.746 402.193 385.714L391.173 389.65C390.779 389.65 389.52 388.706 387.63 388.076C385.269 387.289 382.907 380.991 382.514 379.811Z" fill="#6F96F7"/>
<path d="M304.625 377.267L304.976 377.381L288.224 383.354C287.626 383.354 285.712 381.921 282.84 380.965C279.25 379.77 275.661 370.214 275.062 368.423C276.008 367.951 295.309 374.234 304.625 377.267Z" fill="#FEE7D9"/>
<path d="M436.042 357.434L443.521 329.882C427.147 323.27 413.87 330.801 409.278 335.393H397.864C383.379 325.631 368.738 327.652 363.227 329.882C364.67 336.18 368.344 351.373 371.493 361.763C377.475 361.134 388.155 362.026 392.747 362.551C396.814 363.6 405.499 365.384 407.703 364.125C409.908 362.865 427.514 359.139 436.042 357.434Z" fill="#6F96F7"/>
<path fill-rule="evenodd" clip-rule="evenodd" d="M398.27 336.179H398.257C398.261 336.176 398.266 336.173 398.27 336.171C398.266 336.04 398.261 335.911 398.257 335.784H398.936C400.132 335.132 401.946 334.346 402.98 334.604C403.461 334.724 403.905 334.698 404.368 334.67C405.33 334.613 406.374 334.55 408.003 335.784H408.491V336.179V363.729L405.736 364.517C404.161 364.648 400.619 364.595 399.044 363.336C399.044 360.857 398.536 344.452 398.27 336.179Z" fill="#5884F2"/>
<path d="M439.585 320.195C424.156 314.527 409.278 327.542 403.767 334.758C404.161 334.758 405.657 334.994 408.491 335.939C419.826 325.862 436.698 327.988 443.521 329.824C443.389 329.3 442.104 325.863 439.585 320.195Z" fill="#F8F8F8"/>
<path d="M367.163 320.195C382.592 314.527 397.47 327.542 402.98 334.758C402.586 334.758 401.091 334.994 398.257 335.939C386.921 325.862 370.049 327.988 363.227 329.824C363.358 329.3 364.644 325.863 367.163 320.195Z" fill="#F8F8F8"/>
<ellipse cx="6.34782" cy="9.06832" rx="6.34782" ry="9.06832" transform="matrix(-0.98422 -0.176951 -0.176951 0.98422 453.562 277.74)" fill="#FEE7D9"/>
<ellipse cx="368.717" cy="270.489" rx="5.89441" ry="9.06832" transform="rotate(10.1922 368.717 270.489)" fill="#FEE7D9"/>
<ellipse cx="39.4472" cy="34.4596" rx="39.4472" ry="34.4596" transform="matrix(-0.98422 -0.176951 -0.176951 0.98422 452.66 246.883)" fill="#FEE7D9"/>
<path d="M402.604 280.477C402.338 281.955 403.322 283.37 404.8 283.636C406.279 283.901 407.694 282.918 407.959 281.439C408.225 279.961 406.994 279.924 405.516 279.658C404.037 279.392 402.87 278.998 402.604 280.477Z" fill="#563725"/>
<path d="M399.124 292.37C403.052 293.076 408.382 291.27 410.557 290.279C410.95 292.193 407.592 294.814 405.863 295.885C404.566 296.266 401.403 296.097 399.124 292.37Z" fill="#5B3B28"/>
<path d="M443.469 260.513L438.896 285.95C442.101 282.472 448.835 276.118 449.909 278.277L450.006 277.906C451.502 272.208 454.423 261.081 455.302 256.191C456.201 251.193 450.689 247.684 447.821 246.554C449.15 241.725 448.6 229.925 435.767 221.352C422.935 212.78 396.191 216.847 384.422 219.953L372.087 216.814C369.356 216.63 364.343 217.356 366.136 221.732C367.929 226.109 371.847 231.819 373.582 234.128L369.58 261.51C370.322 267.632 371.69 278.474 371.224 272.862C370.643 265.847 379.423 255.448 381.163 253.457C382.555 251.865 382.672 257.875 382.557 261.079L391.657 248.895C391.801 253.22 393.281 261.901 398.05 262.022C404.012 262.172 413.559 250.068 417.656 250.344C420.933 250.565 416.578 258.903 413.99 263.045L443.469 260.513Z" fill="#282528"/>
<path d="M314.799 207.037C314.533 208.516 315.516 209.93 316.995 210.196C318.474 210.462 319.888 209.479 320.154 208C320.42 206.521 319.189 206.485 317.71 206.219C316.231 205.953 315.065 205.558 314.799 207.037Z" fill="#563725"/>
<path d="M322.392 218.929C318.465 219.635 313.134 217.829 310.96 216.838C310.567 218.751 313.925 221.372 315.653 222.444C316.95 222.825 320.114 222.655 322.392 218.929Z" fill="#5B3B28"/>
<ellipse cx="5.59954" cy="3.14974" rx="5.59954" ry="3.14974" transform="matrix(-0.98945 0.144872 0.144872 0.98945 433.023 281.406)" fill="#E8B5A6"/>
<ellipse cx="382.743" cy="279.785" rx="6.25104" ry="3.51621" transform="rotate(28.7143 382.743 279.785)" fill="#E8B5A6"/>
<path fill-rule="evenodd" clip-rule="evenodd" d="M426.443 275.108C427.409 275.357 428.116 276.032 428.551 276.739C428.75 277.061 429.146 277.236 429.498 277.095C429.85 276.955 430.024 276.553 429.839 276.222C429.276 275.217 428.275 274.162 426.786 273.779C425.072 273.337 422.925 273.837 420.368 275.904C420.073 276.142 420.045 276.578 420.294 276.863C420.544 277.149 420.977 277.176 421.273 276.938C423.61 275.06 425.309 274.816 426.443 275.108Z" fill="#424242"/>
<path fill-rule="evenodd" clip-rule="evenodd" d="M385.27 269.141C384.278 269.037 383.38 269.424 382.726 269.935C382.427 270.168 381.995 270.194 381.714 269.939C381.433 269.684 381.41 269.247 381.699 269.001C382.577 268.255 383.882 267.616 385.412 267.775C387.172 267.958 389.011 269.174 390.687 272.002C390.881 272.329 390.756 272.746 390.422 272.927C390.089 273.108 389.673 272.982 389.479 272.657C387.942 270.082 386.434 269.262 385.27 269.141Z" fill="#424242"/>
<path fill-rule="evenodd" clip-rule="evenodd" d="M334.356 201.649C335.282 202.02 335.896 202.78 336.237 203.537C336.392 203.883 336.762 204.107 337.13 204.013C337.497 203.918 337.721 203.542 337.58 203.19C337.152 202.121 336.295 200.946 334.867 200.374C333.225 199.715 331.031 199.934 328.23 201.655C327.906 201.853 327.822 202.281 328.033 202.596C328.244 202.912 328.67 202.994 328.993 202.797C331.553 201.236 333.27 201.213 334.356 201.649Z" fill="#424242"/>
<path fill-rule="evenodd" clip-rule="evenodd" d="M303.423 198.814C302.442 198.997 301.691 199.622 301.21 200.298C300.989 200.606 300.582 200.754 300.241 200.59C299.899 200.425 299.752 200.013 299.959 199.695C300.589 198.73 301.659 197.746 303.171 197.464C304.911 197.139 307.019 197.782 309.43 200.017C309.708 200.275 309.707 200.711 309.439 200.979C309.171 201.247 308.736 201.245 308.457 200.988C306.252 198.957 304.573 198.599 303.423 198.814Z" fill="#424242"/>
<path d="M412.82 313.066V304.634H393.928V313.066C394.338 313.51 396.31 315.108 400.91 317.948C405.51 320.788 410.767 315.877 412.82 313.066Z" fill="#FEE7D9"/>
<path d="M442.733 341.239C446.197 342.498 447.063 348.848 447.063 351.866C445.489 357.533 442.471 357.638 441.159 356.982C440.897 356.72 440.057 355.959 438.798 355.014C436.908 354.384 433.025 351.865 431.319 350.685C431.188 350.029 431.162 348.717 432.106 348.717C433.051 348.717 435.124 350.291 436.042 351.078C436.567 351.341 437.695 351.708 438.01 351.078C438.325 350.448 433.681 348.192 431.319 347.142C430.926 346.88 430.375 346.198 431.319 345.568C432.5 344.781 436.042 347.93 438.798 348.717C438.483 346.827 433.681 345.043 431.319 344.387C430.532 343.731 429.43 342.34 431.319 342.026C433.681 341.632 438.01 344.781 440.372 344.781C439.112 342.892 435.124 341.632 433.287 341.239C431.975 340.583 429.745 339.034 431.319 338.09C433.287 336.909 438.404 339.664 442.733 341.239Z" fill="#FEE7D9"/>
<path d="M368.088 341.131C364.624 342.391 363.758 348.741 363.758 351.758C365.333 357.426 368.35 357.531 369.662 356.875C369.925 356.612 370.764 355.851 372.024 354.907C373.913 354.277 377.796 351.758 379.502 350.577C379.633 349.921 379.66 348.609 378.715 348.609C377.77 348.609 375.697 350.184 374.779 350.971C374.254 351.233 373.126 351.601 372.811 350.971C372.496 350.341 377.141 348.084 379.502 347.035C379.896 346.773 380.447 346.09 379.502 345.461C378.321 344.673 374.779 347.822 372.024 348.609C372.339 346.72 377.141 344.936 379.502 344.28C380.289 343.624 381.391 342.233 379.502 341.918C377.141 341.525 372.811 344.673 370.449 344.673C371.709 342.784 375.697 341.525 377.534 341.131C378.846 340.475 381.076 338.927 379.502 337.982C377.534 336.802 372.417 339.557 368.088 341.131Z" fill="#FEE7D9"/>
<path d="M417.15 376.661C415.838 377.186 413.529 379.652 414.788 385.32" stroke="white"/>
<path d="M414.395 376.268C413.083 376.792 410.773 379.259 412.033 384.927" stroke="white"/>
<path d="M412.033 375.48C410.721 376.005 408.412 378.472 409.672 384.14" stroke="white"/>
<path d="M323.868 260.624V238.912C316.783 236.178 302.693 231.289 303.008 233.605C303.323 235.921 301.827 243.576 301.04 247.115C302.614 251.618 307.416 261.107 314.028 263.037C320.641 264.966 323.343 262.232 323.868 260.624Z" fill="#FEE7D9"/>
<path d="M351.42 270.392C350.475 256.852 328.722 249.663 319.932 247.957C319.932 247.564 315.917 247.012 299.859 247.957C283.8 248.902 270.077 258.322 265.222 262.914L282.147 275.509C278.473 291.252 271.677 322.819 273.881 323.134C276.086 323.448 274.8 327.726 273.881 329.825C280.835 332.58 297.576 338.799 308.911 341.633C320.247 344.466 334.626 335.729 338.825 330.612C338.3 329.3 337.014 324.393 336.069 323.134C334.889 321.559 352.6 287.317 351.42 270.392Z" fill="#F3D97D"/>
<path d="M348.734 329.72L365.407 301.056C349.025 288.715 331.864 293.173 325.332 296.944L312.526 293.513C299.209 278.207 282.175 276.072 275.322 276.918C275.048 284.417 274.602 302.567 275.011 315.172C281.913 316.264 293.626 320.475 298.62 322.445C302.868 324.845 312.076 329.458 314.928 328.707C317.779 327.957 338.653 329.069 348.734 329.72Z" fill="#E8AC53"/>
<path fill-rule="evenodd" clip-rule="evenodd" d="M312.745 294.518L312.73 294.514C312.736 294.512 312.742 294.511 312.747 294.509C312.782 294.361 312.816 294.216 312.849 294.073L313.607 294.276C315.146 293.903 317.419 293.566 318.503 294.168C319.006 294.447 319.512 294.551 320.04 294.659C321.136 294.883 322.328 295.127 323.784 297.003L324.33 297.149L315.929 328.502L312.602 328.557C310.796 328.231 306.837 327.108 305.449 325.221C306.195 322.44 310.557 303.88 312.745 294.518Z" fill="#D59F4F"/>
<path d="M363.904 289.004C348.297 278.007 327.692 288.137 319.341 294.576C319.782 294.694 321.389 295.409 324.285 297.32C340.032 289.423 358.323 296.88 365.425 300.992C365.435 300.363 365.026 296.121 363.904 289.004Z" fill="#F8F8F8"/>
<path d="M282.65 267.232C301.664 265.512 314.444 284.586 318.457 294.339C318.015 294.22 316.266 294.036 312.803 294.244C303.114 279.531 283.546 276.843 275.339 276.853C275.644 276.304 278.12 272.834 282.65 267.232Z" fill="#F8F8F8"/>
<path d="M274.235 294.906L280.375 269.998L271.126 264.882C269.068 274.035 262.884 296.141 261.58 298.226C260.276 300.312 259.318 304.241 259.387 311.239C260.106 314.081 263.921 318.246 267.083 318.131C270.246 318.016 279.295 314.475 283.425 312.718C285.156 311.819 288.43 309.809 287.678 308.958C286.926 308.108 282.496 309.799 280.375 310.751C279.483 311.006 277.589 311.292 277.149 310.398C278.709 310.185 285.68 307.907 288.971 306.795C289.567 306.316 290.417 305.167 289.041 304.402C287.091 304.669 276.279 306.942 276.952 306.055C277.625 305.169 289.271 303.179 289.661 303.125C290.051 303.072 291.894 302.025 292.017 300.022C292.14 298.019 278.705 301.446 278.315 301.499C277.925 301.552 274.522 302.812 275.532 301.482C276.542 300.153 288.577 298.109 288.967 298.056C289.357 298.002 293.93 296.582 293.274 294.686C292.748 293.169 280.505 295.241 274.449 296.466L274.235 294.906Z" fill="#FEE7D9"/>
<path d="M270.685 367.788C265.342 381.147 275.509 386.342 281.261 387.27L294.898 379.199L291.837 358.325C290.631 358.418 284.712 360.44 270.685 367.788Z" fill="#E98769"/>
<path d="M272.643 366.386C267.3 379.745 277.467 384.94 283.219 385.868L296.856 377.796L293.795 356.923C292.589 357.016 286.67 359.038 272.643 366.386Z" fill="#FFA183"/>
<path d="M278.211 363.281C274.247 375.26 283.099 381.671 288.495 382.954L300.532 376.484L297.103 355.803C295.993 355.8 290.662 357.509 278.211 363.281Z" fill="#FEE7D9"/>
<path d="M502 329L495 336.5H519.5L527 329H502Z" fill="#FFE1C5"/>
<path d="M495 361.5V336H520V361.5C520 362.7 503.333 362 495 361.5Z" fill="#F48284"/>
<path d="M527.5 353.5L520.5 361V336.5L527.5 329.708V353.5Z" fill="#9EBDEB"/>
<path d="M311 413L304 420.5H328.5L336 413H311Z" fill="#FFE1C5"/>
<path d="M304 445.5V420H329V445.5C329 446.7 312.333 446 304 445.5Z" fill="#F48284"/>
<path d="M336.5 437.5L329.5 445V420.5L336.5 413.708V437.5Z" fill="#9EBDEB"/>
<path d="M484 434.5C488.833 420.667 498.9 391.6 500.5 386H580.5L596.5 434.5H484Z" fill="#CDE1FF"/>
<circle cx="540" cy="410.5" r="22" fill="#646870"/>
<circle cx="540" cy="410.5" r="19" fill="#CA7C7A"/>
<circle cx="540" cy="410.5" r="16" fill="#EFB98B"/>
<circle cx="540" cy="410.5" r="12" fill="#D9D9D9"/>
<path d="M587.5 407C557.5 415.8 511.667 411.667 493 408.5L500.5 386H580.5C580.833 386 582.7 390.2 587.5 407Z" fill="#FAE5AB"/>
<path d="M445.121 412.364C443.95 411.192 443.95 409.292 445.121 408.121C446.293 406.949 448.192 406.949 449.364 408.121L479.917 438.674C480.59 439.347 480.903 440.299 480.763 441.239L480.434 443.434L478.24 443.762C477.299 443.903 476.347 443.589 475.674 442.917L445.121 412.364Z" fill="#CDE1FF"/>
<path d="M634.121 411.364C632.95 410.192 632.95 408.292 634.121 407.121C635.293 405.949 637.192 405.949 638.364 407.121L668.917 437.674C669.59 438.347 669.903 439.299 669.763 440.239L669.434 442.434L667.24 442.762C666.299 442.903 665.347 442.589 664.674 441.917L634.121 411.364Z" fill="#EDACAC"/>
<path d="M399.121 406.364C397.95 405.192 397.95 403.292 399.121 402.121C400.293 400.949 402.192 400.949 403.364 402.121L433.917 432.674C434.59 433.347 434.903 434.299 434.763 435.239L434.434 437.434L432.24 437.762C431.299 437.903 430.347 437.589 429.674 436.917L399.121 406.364Z" fill="#FAE5AB"/>
<path d="M382.121 420.364C380.95 419.192 380.95 417.292 382.121 416.121C383.293 414.949 385.192 414.949 386.364 416.121L416.917 446.674C417.59 447.347 417.903 448.299 417.763 449.239L417.434 451.434L415.24 451.762C414.299 451.903 413.347 451.589 412.674 450.917L382.121 420.364Z" fill="#EFB98B"/>
<rect x="206" y="63" width="99" height="67" fill="white"/>
<rect x="335" y="62" width="71" height="89" fill="white"/>
</g>
<defs>
<clipPath id="clip0_82_1942">
<rect width="787" height="465" fill="white"/>
</clipPath>
</defs>
</svg>
