<svg width="615" height="474" viewBox="0 0 615 474" fill="none" xmlns="http://www.w3.org/2000/svg">
<path d="M299 358.5C296.2 357.7 295.167 353.167 295 351H282.5C280 351 276.5 358.5 276 361.5C275.6 363.9 283.167 364.833 287 365C292.167 363.167 301.8 359.3 299 358.5Z" fill="#FEE7D9"/>
<path d="M317.5 408C295.5 417 276 404.5 274.5 404.5C274.166 388.833 273.7 358 274.5 360C275.5 362.5 288.5 362 290.5 361C292.5 360 298 358 302 360C295.5 361.5 296 364 297 367.5C296.205 371.871 310.149 379.565 317.358 382.934C317.406 382.93 317.454 382.954 317.5 383C317.453 382.978 317.406 382.956 317.358 382.934C316.716 382.983 316.011 387.9 317.5 408Z" fill="#C5615E"/>
<path d="M399 354L395 362.5C399.4 369.3 408.833 366.333 413 364L411.5 354H399Z" fill="#F5C79D"/>
<path d="M411.5 434C406.3 433.2 405 425 405 421C420 415.5 420.5 430 420.5 431C420.5 432 418 435 411.5 434Z" fill="#737E75"/>
<path d="M301.632 436.203C296.475 433.867 297.835 425.658 299.16 421.846C316.623 421.144 312.342 435.115 312.011 436.068C311.68 437.021 308.079 439.124 301.632 436.203Z" fill="#737E75"/>
<path d="M398 440.5C394.5 437.5 387.5 443 387 443.5C387.333 441 388.2 435.7 389 434.5C389.8 433.3 395.333 434 398 434.5C398.333 435 398.8 436.9 398 440.5Z" fill="#737E75"/>
<path d="M387 442C380 441.5 378.5 415 379 411C384 410.333 394.3 409 395.5 409C397 409 418 390 421 411C423.4 427.8 417.333 433.333 414 434C411.333 431.666 405.8 425.2 405 418C395 422.5 398.5 432.5 398.5 439C398.1 437.4 395.333 437 394 437C393.167 437.666 390.6 439.6 387 442Z" fill="#728A85"/>
<path d="M273.434 436.412C266.3 433.816 273.513 408.106 275.359 404.445C280.794 405.323 291.976 407.17 293.228 407.533C294.792 407.987 322.983 396.235 319.156 417.158C316.095 433.896 307.936 437.334 304.239 436.96C302.231 433.929 298.603 426.091 300.153 418.986C288.235 420.248 288.573 430.839 286.42 437.034C286.533 435.388 283.78 434.169 282.39 433.765C281.3 434.149 277.983 435.214 273.434 436.412Z" fill="#DBDBDB"/>
<path d="M420.5 361.326C427.3 365.326 442.333 354.992 449 349.326C451.4 347.394 456.667 354.521 459 358.326L426.5 374.826C425.333 374.492 423.7 371.326 420.5 361.326Z" fill="#F5C79D"/>
<path d="M492 400.5C492.4 389.7 498.833 384.667 502 383.5C503 383.053 503.5 387 503 390.5C502.5 394 498.5 400.5 492 400.5Z" fill="#C2C2C2"/>
<path d="M492 399C490.667 398.667 487.8 398 487 398C485 394.4 488.5 387.167 490.5 384C490.833 383.833 493.5 383.5 501.5 383.5C497.1 383.5 493.333 393.833 492 399Z" fill="#F0EFF3"/>
<path d="M463.5 390.5C464.3 387.7 466.167 381.333 467 378.5C473 379.833 486.3 383.1 491.5 385.5C486.7 385.9 486.5 394 487 398H478C474.8 398 472 393 471 390.5C470.167 392.5 467.9 396.6 465.5 397C463.1 397.4 462.167 392.833 462 390.5C462.167 391.667 462.7 393.3 463.5 390.5Z" fill="#FEE7D9"/>
<path d="M467.5 388L467 371L499 355.5C499.167 356.333 499.4 359.1 499 363.5C498.5 369 491.5 380.5 484 386C478 390.4 470.5 389.167 467.5 388Z" fill="#936060"/>
<path d="M199.5 351C198.3 351 190.333 347.333 186.5 345.5C185.5 345.025 185.5 349 187.5 351C189.1 352.6 196.167 353 199.5 353C200 352.333 200.7 351 199.5 351Z" fill="#F5BC4F"/>
<path d="M500 249.5C500.333 245.5 501.1 237 501.5 235C509 236.667 524.8 240.2 528 241C532 242 529 259 530 263.5C530.8 267.1 523 281.167 520 287.5C519.333 284.833 520.4 277.1 522 269.5C523.6 261.9 508 253 500 249.5Z" fill="#C5615E"/>
<path d="M482 196.5C476.4 198.5 475.667 195.667 476 194C476 189.2 480 186 482 185L491 192.5L487 205C486.167 204.167 484 201.3 482 196.5Z" fill="#F2D6C5"/>
<path d="M186.5 346L188.5 343.5L201 347.5C201.333 348.167 200.8 349.7 196 350.5C191.2 351.3 187.667 347.833 186.5 346Z" fill="#BAAC9F"/>
<path d="M234 361C230.8 361 231 360.333 231.5 360C233.333 358.667 237.7 355.6 240.5 354C243.3 352.4 244.333 354.667 244.5 356C242.333 357.667 237.2 361 234 361Z" fill="#F5BC4F"/>
<path d="M239 347C237 350.6 232.167 355.167 230 357C230 357.333 230.2 358.3 231 359.5C235.8 360.3 239.333 356.5 240.5 354.5C240.5 353.833 240.2 351.4 239 347Z" fill="#BAAC9F"/>
<path d="M230 357C222.5 354.5 225.5 341.5 225.5 341L232.5 333.5C234.667 337.833 239 346.6 239 347C239 347.5 236 353.5 230 357Z" fill="#FEE7D9"/>
<path d="M188.5 343.5C189.7 342.7 194.667 337.5 197 335L210.5 337C210.167 339.5 208.2 345 203 347C196.5 349.5 187 344.5 188.5 343.5Z" fill="#FEE7D9"/>
<path d="M197 329.5C198.6 325.9 196.333 313 195 307C196.2 311.8 218.167 310.333 229 309C229.667 310 230.9 312.3 230.5 313.5C230 315 244.5 333.5 240 338.5C236.4 342.5 222.833 344.167 216.5 344.5L215 335.5C215 336.333 214.8 338.7 214 341.5C211.2 343.9 199.167 337.167 193.5 333.5C194 333.667 195.4 333.1 197 329.5Z" fill="#F5BC4F"/>
<path d="M240 310.5C231.6 312.9 221.167 300.167 217 293.5C219 280 222.5 281.5 229.5 283C229.9 288.6 237.667 297.5 241.5 301C244.5 303.167 248.4 308.1 240 310.5Z" fill="#FEE7D9"/>
<path d="M229.5 283.5L217.5 264C214.833 263.166 208.3 261.6 203.5 262C198.7 262.4 198.167 283.5 198.5 294C197.5 296 195.5 301.4 195.5 307C201.9 313.4 220.833 311 229.5 309C227.833 306.5 223.1 300 217.5 294C217.5 280.8 225.5 281.5 229.5 283.5Z" fill="#6D85C2"/>
<path d="M403 218.5C402.6 220.1 399.833 220.167 398.5 220C397.5 218 393 208.5 394.5 208.5C396 208.5 403.5 216.5 403 218.5Z" fill="#9F9993"/>
<path d="M393 208.5C395.8 207.3 398.167 215.666 399 220C395.8 220.4 394 218.833 393.5 218C392.167 215.333 390.2 209.7 393 208.5Z" fill="#C2C2C2"/>
<path d="M452.5 224C450.5 228 447.667 228 446.5 227.5C444.9 226.3 445.667 219 447 215.5C449.167 216.667 454.5 220 452.5 224Z" fill="#9F9993"/>
<path d="M447 227C444.167 226.333 438.4 225 438 225L444.5 215C445 214.833 446.6 215.1 449 217.5C450.6 221.5 448.333 225.5 447 227Z" fill="white"/>
<path d="M396 208.5C397.2 208.5 397.5 205.167 397.5 203.5L408.5 211.5L403 218.5C400.166 215.167 394.8 208.5 396 208.5Z" fill="white"/>
<path d="M397.5 204L407 191L418.5 198L408 212.5L397.5 204Z" fill="#FEE7D9"/>
<path d="M438 225C432.8 224.6 430.833 214.833 430.5 210C435.5 208.333 445.3 206 444.5 210C443.5 215 446.5 214.5 447 215.5C447.4 216.3 446.833 218.167 446.5 219C445.833 221.167 443.2 225.4 438 225Z" fill="#FEE7D9"/>
<path d="M429 157C427.8 155.4 412.5 152.667 405 151.5C405.8 151.5 406 143.5 406 139.5L439 150.5C436.167 153.333 430.2 158.6 429 157Z" fill="#FEE7D9"/>
<path d="M475.5 194C475.9 188.4 466.333 183 461.5 181L469.5 169L482.5 185.5C482 186.667 480.5 188.9 478.5 188.5C476.5 188.1 477.667 190 478.5 191C478.667 192.333 478.3 194.8 475.5 194Z" fill="#FEE7D9"/>
<path d="M310.5 239C310.1 239 308.333 237.334 307.5 236.5L314.5 224C314.833 224.167 315.9 224.9 317.5 226.5C315 226 311 239 310.5 239Z" fill="#F5F2EE"/>
<path d="M307.5 236.5C305 232.833 299.8 225.2 299 224L307.5 215C310.667 218.5 316.7 225.4 315.5 225C314.3 224.6 309.667 232.5 307.5 236.5Z" fill="#FEE7D9"/>
<path d="M265.5 238C260.7 238.4 261.833 228.5 263 223.5L268.5 222C269.5 227.167 270.3 237.6 265.5 238Z" fill="#A36B77"/>
<path d="M266.638 235.576C265.039 233.29 264.906 225.573 265.039 222L267.837 226.287C268.104 230.336 268.237 237.863 266.638 235.576Z" fill="#F5EEEF"/>
<path d="M238.35 201.218C231.14 201.337 222.796 179.531 219.526 168.613L280.127 132.614C286.804 140.385 300.317 157.252 300.949 162.549C301.738 169.17 295.336 170.339 293.718 172.79C292.1 175.24 247.363 201.069 238.35 201.218Z" fill="#B88271"/>
<path d="M326 150.341L292.629 163L281 155.314C286.562 153.657 299.809 149.347 308.303 145.368C316.798 141.39 323.64 147.026 326 150.341Z" fill="#FEE7D9"/>
<path d="M403.932 152C399.451 149.149 403.776 143.387 406.732 141.308C408.599 139.745 414.355 144.517 417 147.099C415.6 147.842 411.399 150.574 403.932 152Z" fill="#F2D6C5"/>
<path d="M236.5 209.5L257.5 191.5C261.9 183.1 253.333 180.667 248.5 180.5C242.167 186.167 229.4 197.8 229 199C228.6 200.2 233.834 206.5 236.5 209.5Z" fill="#FEE7D9"/>
<path d="M354 133C355.2 133 357.167 130.333 358 129C362 128.5 370.2 127.5 371 127.5C372 127.5 368.5 132.5 371 132C373 131.6 381.833 133.167 386 134C389.667 135.167 398.5 138 404.5 140C410.5 142 412.333 147.167 412.5 149.5L405.5 148.5C405.833 149 405.9 150.4 403.5 152C401 145.5 388.5 147.5 381 147.5C381 153 383 179.5 382 182C381.2 184 385.333 188.833 387.5 191C388.167 192.667 389.3 196.9 388.5 200.5C387.7 204.1 386.167 204.667 385.5 204.5V209C386.167 209 387.7 209.3 388.5 210.5C389.5 212 385 218.5 382 220C379 221.5 376 218 375.5 216.5C375.1 215.3 374.333 210 374 207.5C373.833 207.667 372.7 207.7 369.5 206.5C369.5 198.5 365 195 360.5 190.5C356.9 186.9 350.667 195 348 199.5H345C345.5 199.667 346.5 200.4 346.5 202C346.5 204 342.5 210.5 341.5 208C340.7 206 339.5 205.833 339 206C338 206.167 335.2 205.6 332 202C328 197.5 334.5 183.5 336 180C337.5 176.5 349.5 148 347.5 146.5C345.5 145 329.5 150 323 149.5C317.8 149.1 317.5 150 317.5 153.5C313.5 155 306.2 152.1 313 144.5C321.5 135 352.5 133 354 133Z" fill="#FEE7D9"/>
<path d="M247.5 179.5L259 168C262.5 165.5 271.4 159.6 279 156C286.6 152.4 292.833 161.5 295 166.5C294.833 167 287.1 173.2 257.5 194C260.7 187.6 252.167 181.667 247.5 179.5Z" fill="#EDF5ED"/>
<ellipse cx="214.805" cy="162.489" rx="5.97747" ry="8.53925" transform="rotate(-30 214.805 162.489)" fill="#FEE7D9"/>
<ellipse cx="5.55051" cy="8.53925" rx="5.55051" ry="8.53925" transform="matrix(-0.866025 0.5 0.5 0.866025 278.749 114.414)" fill="#FEE7D9"/>
<ellipse cx="244.704" cy="139.985" rx="37.1457" ry="32.4492" transform="rotate(-30 244.704 139.985)" fill="#FEE7D9"/>
<path d="M251.372 144.264C252.079 145.49 251.423 147.939 250.198 148.646C248.972 149.354 246.2 148.138 245.493 146.913C244.785 145.687 247.057 146.036 248.282 145.328C249.507 144.621 250.665 143.039 251.372 144.264Z" fill="#563725"/>
<path d="M257.837 151.631C254.583 153.51 249.284 153.611 247.042 153.427C247.304 155.247 251.116 156.498 252.989 156.895C254.259 156.819 257.008 155.659 257.837 151.631Z" fill="#5B3B28"/>
<ellipse cx="234.16" cy="156" rx="4.79498" ry="2.69718" transform="rotate(-11.4779 234.16 156)" fill="#FCA2BF"/>
<ellipse cx="5.35288" cy="3.01099" rx="5.35288" ry="3.01099" transform="matrix(-0.662332 0.749211 0.749211 0.662332 269.542 131.466)" fill="#FCA2BF"/>
<path d="M207.256 156.993C209.486 160.154 218.561 163.44 222.82 164.688L211.368 153.608C212.956 148.479 219.273 136.305 231.837 128.647C244.4 120.99 249.556 112.351 251.344 107.275C252.447 107.143 254.553 108.455 259.396 110.714C264.34 111.398 269.514 114.814 271.649 118.805C275.788 125.682 281.832 139.315 281.28 135.486C280.608 130.819 281.702 132.715 278.153 116.061C274.603 99.406 238.605 87.8379 236.549 89.5303C234.494 91.2228 224.679 94.3616 207.533 109.316C190.386 124.271 204.47 153.041 207.256 156.993Z" fill="#B88271"/>
<path d="M257.05 163.721L256.583 160.452L265.952 154.538L269.958 157.785L275.401 164.753L261.362 174.88L257.05 163.721Z" fill="#FEE7D9"/>
<path d="M226.216 92.4635C227.254 91.4597 225.645 86.2216 224.711 83.7279C226.884 83.9898 236.511 87.5307 238.844 87.1945C241.178 86.8583 248.103 81.3432 249.62 80.4676C251.136 79.5921 254.9 83.4849 255.018 85.4392C255.112 87.0026 250.906 88.824 248.792 89.5394C250.79 91.25 253.933 95.4677 250.515 98.654C246.243 102.637 241.967 93.4793 239.356 92.4593C236.745 91.4392 230.636 97.4937 227.385 98.8656C224.133 100.238 224.918 93.7182 226.216 92.4635Z" fill="#83D7EA"/>
<path fill-rule="evenodd" clip-rule="evenodd" d="M228.695 147.077C227.934 147.595 227.531 148.402 227.374 149.152C227.303 149.495 227.014 149.77 226.664 149.758C226.314 149.746 226.037 149.451 226.094 149.106C226.269 148.057 226.808 146.828 227.982 146.029C229.332 145.109 231.353 144.872 234.22 145.867C234.551 145.982 234.711 146.351 234.584 146.677C234.457 147.003 234.089 147.163 233.758 147.049C231.14 146.149 229.588 146.469 228.695 147.077Z" fill="black"/>
<path fill-rule="evenodd" clip-rule="evenodd" d="M261.467 129.659C262.296 129.259 263.197 129.314 263.924 129.553C264.257 129.662 264.64 129.55 264.805 129.241C264.969 128.932 264.852 128.545 264.525 128.422C263.529 128.048 262.195 127.901 260.916 128.518C259.445 129.227 258.228 130.859 257.657 133.839C257.591 134.183 257.831 134.507 258.177 134.56C258.523 134.612 258.844 134.373 258.911 134.03C259.441 131.313 260.494 130.129 261.467 129.659Z" fill="black"/>
<path d="M348 199.5C345.2 201.1 336.5 202.5 332.5 203C326.9 198.2 334.167 181.667 338.5 174C353.667 175.833 383.6 179.9 382 181.5C380 183.5 387 190.5 388 191C389 191.5 389.5 199 388.5 205.5C381 202 374 206 370.5 210C368.5 204 363.5 193 359.5 189.5C355.5 186 351.5 197.5 348 199.5Z" fill="#DBDBDB"/>
<path d="M375.232 215.533C379.414 209.2 385.611 208.997 388.187 209.687L389.954 212.749C391.015 214.586 383.278 220.277 380.605 220.596C377.931 220.915 376.388 218.949 375.232 215.533Z" fill="#768C9C"/>
<path d="M376.311 217.304C380.082 211.331 385.773 211.628 388.023 212.231C388.223 212.608 389.94 212.616 390.662 213.973C391.564 215.67 383.298 221.601 380.947 221.941C378.595 222.281 377.271 220.471 376.311 217.304Z" fill="#C2C2C2"/>
<path d="M400 179.499C408.8 179.899 433.333 163 444.5 154.5L465 164.5C462 172.5 455.2 189.2 452 192C448.8 194.8 446.667 205.167 446 210C445.333 210.333 440.6 211 427 211C413 206 404.5 193 400 179.499Z" fill="#F5BC4F"/>
<path d="M442 163.382L446.726 155.407L458.854 160.693L452.391 169.54L442 163.382Z" fill="#FEE7D9"/>
<path d="M422.018 125.767C424.111 121.589 427.839 122.121 429.442 122.91C431.481 123.344 432.977 131.454 433.47 135.455C433.894 137.963 434.006 142.932 431.065 142.737C428.124 142.542 427.106 144.583 426.964 145.628C426.304 147.01 424.376 149.512 421.944 148.458C418.904 147.14 419.47 151.829 417.702 153.2C415.934 154.571 410.985 154.057 411.905 151.7C412.824 149.342 410.774 147.16 408.158 145.126C405.543 143.093 406.179 139.6 407.664 137.094C409.149 134.588 411.977 138.682 411.341 137.338C410.705 135.993 410.775 135.068 410.847 131.724C410.918 128.38 413.887 130.623 415.584 130.177C417.28 129.732 415.867 128.894 415.655 126.833C415.443 124.773 419.331 124.658 422.018 125.767Z" fill="#B88270"/>
<path d="M501.472 172.847C504.131 169.004 501.874 165.99 500.413 164.963C499.052 163.383 491.22 165.966 487.474 167.455C485.071 168.288 480.659 170.575 482.242 173.061C483.825 175.547 482.524 177.421 481.676 178.047C480.78 179.29 479.512 182.182 481.604 183.809C484.22 185.843 479.837 187.599 479.483 189.808C479.129 192.017 481.956 196.11 483.583 194.172C485.209 192.233 488.108 192.983 491.148 194.301C494.188 195.618 496.945 193.383 498.43 190.877C499.915 188.37 494.966 187.857 496.451 187.769C497.936 187.681 498.713 187.175 501.612 185.506C504.511 183.838 501.118 182.311 500.694 180.609C500.27 178.906 501.684 179.744 503.593 178.94C505.502 178.137 503.734 174.671 501.472 172.847Z" fill="#B88270"/>
<path d="M429.562 138.718C425.496 137.098 425.13 128.526 425.456 124.442C427.918 125.507 430.603 121.736 431.638 119.718L438.398 133.592C437.147 135.975 433.628 140.338 429.562 138.718Z" fill="#C93D46"/>
<path d="M485.722 172.315C489.679 174.11 496.044 168.632 498.732 165.669C496.276 164.639 497.116 160.214 497.842 158.131L483.29 162.63C482.452 165.111 481.766 170.521 485.722 172.315Z" fill="#C93D46"/>
<path d="M478.834 115.408C459.942 94.6197 437.782 119.863 436.295 119.941C435.466 119.45 433.462 117.591 432.081 114.087C441.501 87.818 464.691 83.3635 474.478 85.4848C483.186 88.886 501.887 97.4092 511.031 110.502C520.174 123.595 509.978 147.932 503.868 156.623C503.377 157.452 500.903 158.224 494.933 154.686C502.877 147.114 498.409 131.803 495.182 125.094L478.834 115.408Z" fill="#B8856F"/>
<ellipse cx="468.036" cy="134.946" rx="35.4439" ry="31.0816" transform="rotate(30.6486 468.036 134.946)" fill="#FEE7D9"/>
<ellipse cx="494.513" cy="159.649" rx="4.95449" ry="7.43173" transform="rotate(45.6486 494.513 159.649)" fill="#FEE7D9"/>
<ellipse cx="433.71" cy="122.463" rx="4.95449" ry="7.43173" transform="rotate(0.648633 433.71 122.463)" fill="#FEE7D9"/>
<path d="M455.406 146.579C456.045 151.214 460.108 153.718 462.06 154.391C461.938 155.125 461.15 156.561 458.971 156.43C456.792 156.3 453.524 153.604 452.649 151.233C452.014 147.18 454.767 141.945 455.406 146.579Z" fill="#5B3B28"/>
<path d="M466.708 143.307C465.787 144.862 463.779 145.377 462.225 144.455C460.67 143.534 460.157 141.527 461.079 139.971C462 138.416 462.756 140.014 464.311 140.935C465.865 141.856 467.63 141.752 466.708 143.307Z" fill="#5B3B28"/>
<path d="M494.657 86.3438C477.74 82.4481 465.603 85.0869 461.649 86.8932C479.587 98.7992 515.084 121.142 513.568 115.264C511.673 107.917 503.889 89.4201 494.657 86.3438Z" fill="#B8856F"/>
<ellipse cx="449.425" cy="128.118" rx="4.79498" ry="2.69718" transform="rotate(48.5221 449.425 128.118)" fill="#FCA2BF"/>
<ellipse cx="5.35288" cy="3.01099" rx="5.35288" ry="3.01099" transform="matrix(-0.874186 -0.485592 -0.485592 0.874186 488.224 151.101)" fill="#FCA2BF"/>
<path fill-rule="evenodd" clip-rule="evenodd" d="M458.191 120.59C457.274 120.147 456.279 120.208 455.475 120.472C455.107 120.593 454.684 120.468 454.502 120.127C454.321 119.785 454.449 119.357 454.812 119.221C455.912 118.809 457.386 118.646 458.799 119.328C460.426 120.112 461.77 121.915 462.401 125.209C462.474 125.589 462.21 125.947 461.827 126.005C461.445 126.063 461.089 125.799 461.015 125.419C460.43 122.417 459.266 121.108 458.191 120.59Z" fill="black"/>
<path fill-rule="evenodd" clip-rule="evenodd" d="M486.434 140.602C487.099 141.373 487.298 142.35 487.251 143.195C487.229 143.581 487.459 143.958 487.836 144.045C488.213 144.132 488.593 143.897 488.63 143.512C488.744 142.342 488.52 140.876 487.496 139.687C486.317 138.319 484.228 137.488 480.883 137.731C480.497 137.759 480.22 138.107 480.262 138.491C480.305 138.876 480.652 139.151 481.038 139.124C484.09 138.912 485.655 139.697 486.434 140.602Z" fill="black"/>
<ellipse cx="324.782" cy="103.564" rx="5.78205" ry="8.41026" fill="#FEE7D9"/>
<ellipse cx="5.25641" cy="8.41026" rx="5.25641" ry="8.41026" transform="matrix(-1 0 0 1 401 94.1025)" fill="#FEE7D9"/>
<ellipse cx="360.526" cy="99.3588" rx="36.2692" ry="31.5385" fill="#FEE7D9"/>
<circle cx="360.526" cy="103.039" r="2.62821" fill="#563725"/>
<path d="M365.256 115.784C361.824 115.784 357.585 113.244 355.895 111.975C355.271 113.667 357.715 116.63 359.016 117.9C360.056 118.464 362.76 118.831 365.256 115.784Z" fill="#5B3B28"/>
<path d="M330.056 81.5709V105.105C327.741 101.471 322.724 94.6915 321.411 96.4539L321.384 96.1054C320.961 90.7575 320.135 80.3144 320.135 75.7907C319.4 68.7718 322.747 55.4104 341.5 51C348.754 49.294 374.514 45.5 382.343 45.5C384.258 47.528 405.188 71.1062 396.195 94.37C394.542 99.7374 391.566 109.233 392.888 104.279C394.542 98.0858 388.341 87.3511 387.101 85.2867C386.109 83.6352 382.757 78.6808 382.343 81.5709L378.42 79.5065C377.594 83.36 373.005 80.1671 368.706 79.5065C363.332 78.6807 358.579 77.0293 354.858 76.6164C351.882 76.2861 334.556 74.1125 336.21 78.2413L330.056 81.5709Z" fill="#282528"/>
<ellipse cx="342.295" cy="106.175" rx="4.65909" ry="2.79545" fill="#E8B5A6"/>
<ellipse cx="5.125" cy="3.26136" rx="5.125" ry="3.26136" transform="matrix(-1 8.74228e-08 8.74228e-08 1 384.227 102.448)" fill="#E8B5A6"/>
<path fill-rule="evenodd" clip-rule="evenodd" d="M343.29 94.8044C342.491 95.0248 341.914 95.5954 341.563 96.1881C341.402 96.4591 341.076 96.6099 340.782 96.4979C340.487 96.3859 340.337 96.0547 340.486 95.7773C340.939 94.9348 341.755 94.0447 342.987 93.7049C344.404 93.3138 346.194 93.6982 348.346 95.3782C348.594 95.572 348.624 95.933 348.421 96.1737C348.218 96.4144 347.858 96.4432 347.609 96.2501C345.642 94.7238 344.227 94.5457 343.29 94.8044Z" fill="#292929"/>
<path fill-rule="evenodd" clip-rule="evenodd" d="M378.183 95.4906C378.959 95.7822 379.482 96.4026 379.778 97.0246C379.914 97.3089 380.225 97.4886 380.528 97.4036C380.832 97.3187 381.011 97.0023 380.888 96.7126C380.513 95.8327 379.78 94.8726 378.584 94.423C377.208 93.9057 375.391 94.1269 373.096 95.6059C372.831 95.7765 372.769 96.1334 372.95 96.3914C373.13 96.6494 373.485 96.7105 373.751 96.5407C375.848 95.1982 377.273 95.1485 378.183 95.4906Z" fill="#292929"/>
<path d="M341 147L342 134L353.5 133C354.5 134.833 357.5 138.9 361.5 140.5C369.5 142.1 374.5 135.5 376 132L386.5 134V147H380.5C381.167 152.833 382.5 168 382.5 182C372.9 188.4 347.833 182.667 336.5 179C338.333 173.833 342.9 161.2 346.5 152C348.931 145.786 344.333 144.833 341 147Z" fill="#657E94"/>
<path d="M266.5 233.5C267.3 232.3 267.833 226.333 268 223.5L282 226C283 229.333 283.6 236.6 278 239C271 242 265.5 235 266.5 233.5Z" fill="#FEE7D9"/>
<path d="M339.537 206.483C339.525 206.489 339.512 206.495 339.5 206.5C339.513 206.494 339.525 206.488 339.537 206.483C341.054 205.783 344.31 202.777 345.5 200C347.5 199.5 347 202.833 347 203.5C346.167 205.5 343.765 209.5 342.5 209.5C341.019 209.5 340.513 206.088 339.537 206.483Z" fill="#768C9C"/>
<path d="M257.5 171.5L254.5 174.5C257.667 177 264.2 183.1 265 187.5C266 193 264.5 195 262.5 201C262.1 208.6 260.333 218.167 259.5 222C259.333 222.833 262.7 225.6 277.5 230C292.3 234.4 307.667 222.167 313.5 215.5C314 214.667 313.7 209.6 308.5 196C302 179 276 159 274.5 158C273.3 157.2 273 159.667 273 161C276.167 164.5 280.6 172.1 273 174.5C265.4 176.9 259.5 173.5 257.5 171.5Z" fill="#E45942"/>
<path d="M267.118 178.214C268.451 175.154 275.276 176.685 278.522 177.834C278.367 172.196 282.446 168.411 284.504 167.222C286.28 168.901 289.499 173.692 288.161 179.428C286.488 186.597 283.012 188.127 280.576 188.102C278.14 188.076 265.452 182.039 267.118 178.214Z" fill="#FB686B"/>
<path d="M310.5 239C313 228 316.5 226.5 318.5 225C321.3 227 320.167 235.333 319 238.5C318.333 239.333 315.7 239.8 310.5 239Z" fill="#A36B77"/>
<path d="M313 239.5C314.991 229.086 318.176 228.42 319.769 227C321.999 228.893 320.698 235.363 319.769 238.361C319.238 239.15 316 240 313 239.5Z" fill="#C2C2C2"/>
<path d="M428.5 157C427.7 152.6 435.833 150.5 440 150L444 154C439.333 157.167 430.3 163.2 431.5 162C433 160.5 431 159.5 428.5 157Z" fill="#ED732B"/>
<path d="M456.5 185.5C453.667 183.666 449.8 177.8 457 169C460.558 164.651 462.309 162.484 463.049 161.545C463.033 161.53 463.016 161.515 463 161.5C463.506 160.91 463.807 160.584 463.049 161.545C465.066 163.399 469.103 167.413 469.5 169C469.9 170.6 464 177.333 461 180.5C459.5 179.833 456.5 179.9 456.5 185.5Z" fill="#ED732B"/>
<circle cx="216" cy="224" r="31" fill="#FEE7D9"/>
<path d="M252 230.021C251.2 230.821 247 229.687 245 229.021C245 225.521 216.5 210.021 209 210.021C203 210.021 202.5 194.354 199 195.021C190.167 196.854 172.5 205.621 172.5 226.021C176.5 251.621 194.833 259.021 203.5 259.521L203 262.021L217 264.521V260.021C218.5 260.521 223.2 260.921 230 258.521C238.5 255.521 241 253.521 245 249.021C239 245.421 239.833 241.187 241 239.521H248.5C248 238.521 247.3 236.321 248.5 235.521C250 234.521 253 229.021 252 230.021Z" fill="#FEE7D9"/>
<path d="M209.5 243.5C211.5 255.1 203 258.667 198.5 259C180.1 255.4 173.5 235.833 172.5 226.5C172.667 220.333 176.6 206.1 191 198.5C205.4 190.9 220.667 192.667 226.5 194.5C230.833 196.833 237.8 201.2 231 200C224.2 198.8 228.167 202.5 231 204.5C230.667 206.333 228.9 210 224.5 210C220.1 210 221.333 214 222.5 216C222.167 218.333 220.4 224.3 216 229.5C206 227.5 204.5 232.333 205 235C205.167 235.833 206.3 238.7 209.5 243.5Z" fill="black"/>
<path d="M237.5 212C236 212.667 232.9 214.4 232.5 216" stroke="black"/>
<path d="M243.5 230C241.667 229.5 237.9 228.8 237.5 230" stroke="black"/>
<path d="M480 213H486.5C486.5 206.6 491.833 192 494.5 185.5C493.667 185.333 491.2 184 488 180C506.8 161.2 537.833 170.5 551 177.5C554.167 180.5 559.9 191.8 557.5 213C547.5 233.4 532 236.834 525.5 236C526.333 236.834 528 239.3 528 242.5C524 248.9 511.333 246.834 505.5 245L512 238.5C506.167 237.834 494.5 235.7 494.5 232.5C494.5 228.5 495.5 225.5 494.5 223C493.7 221 488.833 223.834 486.5 225.5V220L480 213Z" fill="#FEE7D9"/>
<path d="M511 195C507 195.4 494 185.167 488 180C500.5 165 540.5 165 551 176.5C561.5 188 560.5 208 558.5 213.5C556.5 219 545 232.5 540.5 233C536 233.5 533.5 220 534.5 218.5C535.5 217 537 213.5 534.5 208C532 202.5 525 212.5 520.5 211C516 209.5 518.5 198.5 518 195C517.6 192.2 513.167 191.5 511 191.5C511.5 192.667 512.2 195 511 195Z" fill="black"/>
<ellipse cx="492.5" cy="209" rx="1.5" ry="4" fill="black"/>
<path d="M493 193C493.5 194 496.5 195 496.5 197.5" stroke="black"/>
<path d="M516 264C516.167 262.5 516.5 259.4 516.5 259C516.9 259 520.667 264.333 522.5 267C521.667 269.333 520 273.4 520 271C520 268.6 517.333 265.333 516 264Z" fill="#FEE7D9"/>
<path d="M520.5 317C521.3 315.4 516.5 307.333 514 303.5C513.13 302.135 506.971 315.265 504 322C504.667 324 506.7 328 509.5 328C513 328 519.5 319 520.5 317Z" fill="#5D7F87"/>
<path d="M512 331C508.8 331.8 508.667 329 509 327.5C512.167 324 518.8 316.9 520 316.5C521.2 316.1 521.167 319.666 521 321.5C519.333 324.333 515.2 330.2 512 331Z" fill="#92936D"/>
<path d="M453 294C451.4 271.2 457.667 261.833 461 260L483.5 290C487 299.333 489.9 317.7 473.5 316.5C453 315 451.5 301.5 451.5 300C451.5 298.5 448.5 297.5 447.5 296.5C446.5 295.5 447 294 453 294Z" fill="#FEE7D9"/>
<path d="M458 273L461.5 276.5" stroke="black"/>
<path d="M463 302.5C463 304.5 457.5 305 454 306C455.167 308 457.7 312.1 458.5 312.5C459.3 312.9 462.167 309.333 463.5 307.5C463.833 306.167 464.2 303.3 463 302.5Z" fill="#5B3B28"/>
<ellipse cx="459" cy="287.5" rx="2" ry="4.5" fill="black"/>
<path d="M452 350C454.4 349.6 471 330.5 479 321L499 308.5L501.5 334C490.167 344.5 467.9 362.4 469.5 350C467.5 352.8 459 357.833 455 360C452.5 359.167 447.4 356.6 447 353C446.5 348.5 449 350.5 452 350Z" fill="#FEE7D9"/>
<path d="M481 339.5C487 326 478 325.5 477.5 323C479.167 323 482.9 323.2 484.5 324C486.5 325 487 333 487 337.5C490.6 339.2 498.5 335.208 502 333L499.5 358C499.333 358.5 497.5 360.4 491.5 364C481.5 371.2 471 372 467 371.5L469.5 350C471.333 351 476.2 350.3 481 339.5Z" fill="#657E94"/>
<path d="M516 262.5C495.2 235.3 470.333 249.5 460.5 260C457.3 261.2 474.167 280.5 483 290V296C482.333 296 479.6 296.4 474 298C463.2 304 469.5 310.834 474 313.5C472.333 315 470 318.8 474 322C478 325.2 484.667 320.667 487.5 318V323.5C488.7 325.9 499 323.5 504 322C505.833 317.334 510.3 307.2 513.5 304C516.7 300.8 520.167 288 521.5 282C521.167 278.334 519.6 269.3 516 262.5Z" fill="#674720"/>
<path d="M462.5 389.5C463.7 389.9 465.667 395.333 466.5 398C462 398 461.5 396 460 393C458.5 390 461 389 462.5 389.5Z" fill="#A3A297"/>
<path d="M463.5 382.5C465.5 383.3 467 392.5 467.5 397C466.833 398.333 465.1 401.1 463.5 401.5C461.5 402 457.5 394.5 456.5 389.5C455.5 384.5 461 381.5 463.5 382.5Z" fill="#C2C2C2"/>
<path d="M423 360.5L411 362C413 365 406.5 366 402.5 366.5C399.3 366.9 396.167 363.667 395 362C391.5 363.833 382.7 367.9 375.5 369.5C379.5 372.7 379.833 380.833 379.5 384.5H384.5C383.5 387.833 381.1 397.8 379.5 411C395.9 426.6 415.333 415.167 423 407.5L420.5 376C420.833 377.5 422.3 379.6 425.5 376C428.7 372.4 425.167 364.167 423 360.5Z" fill="#6D85C2"/>
<path d="M387.894 447.156C383.894 446.756 384.894 443.656 385.894 442.156C389.394 440.823 396.695 438.356 397.895 439.156C399.095 439.956 398.395 441.49 397.895 442.156C396.228 443.99 391.894 447.556 387.894 447.156Z" fill="#C2C2C2"/>
<path d="M272.659 441.597C268.621 440.005 270.69 437.353 272.23 436.226C276.321 436.015 284.751 435.874 285.737 436.999C286.723 438.125 285.486 439.375 284.743 439.859C282.398 441.101 276.698 443.189 272.659 441.597Z" fill="#C2C2C2"/>
<circle cx="403" cy="319" r="41" fill="black"/>
<ellipse cx="362.919" cy="336.993" rx="5" ry="12" transform="rotate(-20.7022 362.919 336.993)" fill="#F5C79D"/>
<ellipse cx="440.935" cy="333.885" rx="5" ry="12" transform="rotate(15 440.935 333.885)" fill="#F5C79D"/>
<path d="M340.5 373C341.3 369.8 344.167 370 345.5 370.5C346.7 370.728 348 379.262 348.5 383.5C347 383.5 343.6 383.2 342 382C339.2 382 326.5 383 320.5 383.5C315 381.667 302.9 376.5 298.5 370.5C293 363 299.5 359 302.5 360C306.5 367.5 338 373 340.5 373Z" fill="#FEE7D9"/>
<path d="M353.5 373C348.3 374.6 348 371.667 348.5 370C346 368.5 345.5 371 344 374C342.8 376.4 346.5 381.333 348.5 383.5C358.167 384.667 377.9 386.6 379.5 385C381.5 383 379.5 370 378.5 370C377.5 370 360 371 353.5 373Z" fill="#F5C79D"/>
<path d="M309.5 337C310 339.5 297 349.5 295 351L279 352.5L260 348.5L264 328.5C268.833 320 279.9 302.2 285.5 299C291.1 295.8 299.167 309.333 302.5 316.5C304.833 316 309.1 315.3 307.5 316.5C305.5 318 309.5 321 309.5 326.5C295.5 333 309 334.5 309.5 337Z" fill="#FEE7D9"/>
<path d="M275.5 344.5C275.9 347.7 271.667 353.833 269.5 356.5C255.5 356.5 255 356.5 246 352.5C224.5 330 234.5 313.5 243.5 303.5C252.5 293.5 266 293 275.5 291C285 289 289.5 294.5 291 297.5C292.5 300.5 291 310.5 283.5 326.5C273.5 326.5 275.333 334.167 277.5 338C276.667 338.833 275.1 341.3 275.5 344.5Z" fill="black"/>
<ellipse cx="294.485" cy="317.692" rx="2" ry="4.5" transform="rotate(-30.6551 294.485 317.692)" fill="black"/>
<path d="M294.5 353C298 346.5 278.5 338.5 277.5 337.5C275.31 336.3 256.921 344.333 248 348.5C253.167 350 264.1 353.9 266.5 357.5C269.5 362 247 382 250 385C253 388 261 383 265 382C269 381 273.5 371 274 374.5C274.5 378 272.5 381.5 266.5 388C273.5 391 280.5 383 281.5 371C282.5 359 291 359.5 294.5 353Z" fill="black"/>
<path d="M287 435L286 438L273 436L274.5 434.5C274.833 434.167 276.1 432.9 278.5 430.5C281.5 427.5 281.5 429.5 283.5 429.5C285.1 429.5 286.5 433.166 287 435Z" fill="#BAAC9F"/>
<circle cx="560" cy="92" r="9" fill="#F5BC4F"/>
<circle cx="76" cy="300" r="9" fill="#6D85C2"/>
<circle cx="221" cy="9" r="9" fill="#ED732B"/>
<circle cx="474" cy="465" r="9" fill="#C5615E"/>
<circle cx="9" cy="103" r="9" fill="#83D7EA"/>
<circle cx="606" cy="342" r="9" fill="#FB686B"/>
</svg>
