<svg width="946" height="490" viewBox="0 0 946 490" fill="none" xmlns="http://www.w3.org/2000/svg">
<g clip-path="url(#clip0_82_1662)">
<path d="M190.36 451.973C141.52 411.274 347.684 396.366 456.872 394L652.352 402.873C692.661 404.648 777.624 413.877 795 436.593C776.802 473.861 703.424 470.903 667.615 470.903H436.325C376.84 475.636 244.367 478.475 190.36 451.973Z" fill="#7DCD55"/>
<path d="M237.135 183.666C239.742 162.377 255.818 165.418 256.252 164.983C264.362 164.983 279.626 170.023 275.803 190.183C271.024 215.382 259.728 214.948 257.121 215.817C254.514 216.685 234.528 204.955 237.135 183.666Z" fill="#FFD629"/>
<path d="M269.286 207.996C242.349 211.472 244.956 172.804 244.521 169.328C245.39 166.721 236.266 172.369 236.701 187.576C237.135 202.782 247.997 211.037 252.776 214.513C256.599 217.294 261.9 214.803 264.072 213.21C265.231 212.341 267.896 210.082 269.286 207.996Z" fill="#FEC72C"/>
<path d="M255.818 218.424L256.687 214.948H259.294L260.163 218.424H255.818Z" fill="#FFD629"/>
<path d="M258.425 307.925V218.424" stroke="#FFD629" stroke-width="2"/>
<path d="M264.507 431.749C263.638 426.535 281.885 417.846 284.058 417.846C307.809 414.949 355.919 409.156 358.352 409.156C361.394 409.156 362.263 410.46 366.607 412.198C370.083 413.588 369.214 418.28 368.345 420.452C367.766 421.611 366.607 423.581 366.607 422.19C366.607 420.452 357.049 417.846 356.615 417.846C356.18 417.846 265.376 436.962 264.507 431.749Z" fill="#F9AF74"/>
<path d="M366.172 422.19C368.344 414.37 357.917 413.066 357.048 412.632L350.966 423.059C330.545 424.073 289.358 426.1 287.967 426.1C286.229 426.1 283.623 424.797 281.016 424.363C278.409 423.928 257.989 437.831 259.292 438.7C260.596 439.569 271.457 437.397 281.016 435.659C291.878 436.528 359.221 430.88 361.393 431.314C363.565 431.749 364 430.011 366.172 422.19Z" fill="#FFBA82"/>
<path d="M287.099 420.018C275.629 415.152 282.61 402.639 287.534 396.991C301.726 396.701 330.372 396.469 331.415 397.86C332.718 399.598 357.049 406.984 358.352 408.287C359.656 409.59 355.745 418.714 350.966 427.838C344.015 430.879 304.912 425.231 287.099 420.018Z" fill="#0A334F"/>
<path d="M385.29 365.709C373.994 366.289 350.619 367.447 347.491 367.447C344.382 367.447 334.433 357.718 329.762 352.765L331.85 343.551L338.802 337.903C340.974 341.524 346.101 353.544 347.491 357.02C349.229 361.365 381.38 359.192 382.249 360.061C383.118 360.93 387.028 356.586 388.766 354.413C390.156 352.675 393.69 353.689 395.283 354.413C393.4 355.137 389.809 356.933 390.504 358.323C391.373 360.061 394.414 358.758 395.283 359.192C396.152 359.627 396.152 365.709 394.414 367.447C393.024 368.838 387.752 366.868 385.29 365.709Z" fill="#FFBA82"/>
<path d="M273.196 350.068L275.802 341.379L289.705 348.33C290.574 348.765 279.712 373.095 279.278 373.964C278.844 374.833 275.802 375.702 270.154 374.833C264.506 373.964 258.858 329.648 256.251 324C253.644 318.352 254.948 312.269 256.251 308.359C257.555 304.449 261.899 310.097 263.203 310.966C264.245 311.661 262.768 318.207 261.899 321.393L273.196 350.068Z" fill="#FFBA82"/>
<path d="M510.852 169.329V146.736C521.424 147.75 541.351 150.038 536.485 151.081C530.403 152.384 530.837 162.377 530.837 164.55C530.837 166.288 517.513 168.46 510.852 169.329Z" fill="#F1A96F"/>
<path d="M663.351 306.187L581.236 271.864C579.498 271.102 580.512 269.519 581.236 268.822L664.655 304.883L663.351 306.187Z" fill="black"/>
<path d="M570.809 256.657C564.292 250.14 549.954 223.203 549.52 221.465C547.058 218.858 542.829 212.341 545.609 207.128C548.39 201.914 558.643 203.217 563.423 204.521C564.871 210.459 567.767 223.551 567.767 228.417C567.767 234.499 591.663 268.388 592.532 269.257C593.401 270.126 594.705 268.823 596.442 268.388C597.833 268.04 600.208 270.271 601.222 271.429C601.801 272.733 602.525 275.079 600.787 274.036C598.615 272.733 597.746 272.733 597.311 273.167C599.484 273.167 599.918 279.684 598.18 281.857C596.442 284.029 590.36 280.119 589.491 277.946C588.622 275.774 577.326 263.174 570.809 256.657Z" fill="#F1A96F"/>
<path d="M437.861 396.557C426.564 397.426 423.523 390.909 419.613 386.999L433.95 379.613C436.557 381.061 444.291 385.087 454.37 389.606C458.715 391.344 466.101 390.475 469.142 390.909C472.184 391.344 468.708 398.73 469.142 400.902C469.577 403.074 464.363 410.026 461.756 410.026C459.15 410.026 462.625 401.771 461.756 398.73C460.888 395.688 449.157 395.688 437.861 396.557Z" fill="#FEE7D9"/>
<path d="M389.634 400.033C387.462 382.22 394.414 382.654 393.979 377.44C395.717 377.44 400.67 378.744 406.579 383.957C402.408 387.433 402.524 407.709 403.103 417.412C403.972 418.86 405.623 422.191 405.275 423.929C404.841 426.101 384.855 429.142 383.118 426.101C381.38 423.06 387.897 422.191 390.938 420.019C393.979 417.846 391.807 417.846 389.634 400.033Z" fill="#FEE7D9"/>
<path d="M387.463 375.703C388.158 374.66 393.545 361.655 396.152 355.283H438.296C438.875 362.089 440.034 375.964 440.034 377.006C440.034 378.31 442.641 379.179 441.337 383.089C434.386 388.737 418.745 389.606 416.573 389.606C414.4 389.606 416.573 382.654 415.269 379.179C413.966 375.703 413.097 382.654 411.359 387.434C408.317 391.778 386.594 377.006 387.463 375.703Z" fill="#083451"/>
<path d="M446.55 318.353C440.989 307.23 435.254 303.291 433.082 302.712C429.316 310.677 421.785 327.042 421.785 328.78C421.785 330.953 434.385 328.78 433.082 326.608C431.778 324.435 433.082 323.132 433.082 320.96C433.082 318.787 453.936 348.766 455.24 350.069C456.543 351.373 456.543 357.021 456.543 357.89C456.543 358.759 459.15 362.669 460.453 363.103C461.757 363.538 460.453 360.062 460.453 357.89C460.453 356.152 462.77 358.324 463.929 359.628C463.929 360.641 464.45 362.669 466.536 362.669C466.101 359.628 469.577 356.586 469.143 353.979C468.708 351.373 464.798 350.069 462.191 347.897C459.584 345.725 453.502 332.256 446.55 318.353Z" fill="#FEE7D9"/>
<path d="M383.117 311.834C387.027 307.924 402.668 300.538 403.103 300.538C403.392 306.621 403.537 318.96 401.799 319.655C399.627 320.524 397.889 314.441 397.455 315.31C397.02 316.179 382.248 322.262 377.469 323.131C372.69 324 370.083 316.179 362.262 305.752C352.704 303.145 354.442 300.104 355.311 300.973C356.18 301.842 357.483 300.973 361.393 300.973C362.697 299.235 360.524 298.366 358.787 297.063C357.049 295.759 354.876 296.194 354.876 295.325C354.876 294.456 357.918 295.324 360.524 294.89C363.131 294.456 374.427 309.662 375.731 310.965C377.034 312.269 380.076 311.834 383.117 311.834Z" fill="#FEE7D9"/>
<path d="M401.366 302.278C401.713 298.107 406.145 298.512 408.317 299.236C407.593 301.553 407.448 306.448 412.662 307.491C419.179 308.795 423.524 300.54 425.696 299.236C427.868 297.933 436.558 303.581 435.254 303.146C433.951 302.712 433.516 305.753 430.041 313.139C427.26 319.048 431.199 324.58 433.516 326.608C435.834 335.297 440.12 353.197 438.73 355.283C436.992 357.89 403.103 358.324 396.152 355.283C398.759 353.545 398.759 332.256 398.759 318.353C404.841 312.705 400.931 307.491 401.366 302.278Z" fill="black"/>
<path d="M406.578 299.67C407.592 298.656 412.139 295.759 413.529 292.284L423.088 290.111L425.26 299.67C425.26 302.711 418.57 308.794 414.399 308.794C410.228 308.794 406.433 302.277 406.578 299.67Z" fill="#FEE7D9"/>
<ellipse cx="498.062" cy="132.454" rx="5.02427" ry="7.30803" fill="#F1A96F"/>
<ellipse cx="4.56752" cy="7.30803" rx="4.56752" ry="7.30803" transform="matrix(-1 0 0 1 564.291 124.232)" fill="#F1A96F"/>
<ellipse cx="529.121" cy="128.8" rx="31.5159" ry="27.4051" fill="#F1A96F"/>
<circle cx="529.211" cy="132.076" r="2.28376" fill="#563725"/>
<path d="M532.541 146.136C529.559 146.136 525.876 143.929 524.407 142.826C523.865 144.297 525.989 146.871 527.118 147.975C528.022 148.465 530.372 148.784 532.541 146.136Z" fill="#5B3B28"/>
<path d="M502.646 113.344V133.793C500.634 130.636 496.274 124.745 495.134 126.276L495.11 125.973C494.743 121.326 494.025 112.252 494.025 108.321C493.386 102.222 496.295 90.6116 512.59 86.7792C518.893 85.2968 541.277 82 548.08 82C549.744 83.7622 567.931 104.25 560.117 124.465C558.68 129.129 556.094 137.381 557.243 133.076C558.68 127.694 553.292 118.366 552.215 116.572C551.353 115.137 548.439 110.832 548.08 113.344L544.672 111.55C543.953 114.898 539.966 112.124 536.23 111.55C531.561 110.832 527.43 109.397 524.197 109.038C521.611 108.751 506.556 106.863 507.993 110.45L502.646 113.344Z" fill="#282528"/>
<path fill-rule="evenodd" clip-rule="evenodd" d="M514.145 124.843C513.451 125.034 512.949 125.53 512.644 126.045C512.504 126.281 512.221 126.412 511.965 126.315C511.709 126.217 511.579 125.929 511.708 125.688C512.102 124.956 512.811 124.183 513.881 123.888C515.112 123.548 516.668 123.882 518.538 125.342C518.754 125.51 518.78 125.824 518.603 126.033C518.427 126.242 518.114 126.267 517.898 126.099C516.188 124.773 514.959 124.618 514.145 124.843Z" fill="#292929"/>
<path fill-rule="evenodd" clip-rule="evenodd" d="M544.465 125.439C545.138 125.692 545.593 126.231 545.851 126.772C545.968 127.019 546.239 127.175 546.502 127.101C546.766 127.027 546.922 126.752 546.815 126.501C546.489 125.736 545.852 124.902 544.813 124.511C543.618 124.061 542.039 124.254 540.044 125.539C539.814 125.687 539.76 125.997 539.917 126.221C540.074 126.446 540.383 126.499 540.613 126.351C542.436 125.185 543.674 125.141 544.465 125.439Z" fill="#292929"/>
<path d="M494.342 426.101C487.738 424.71 490.432 413.936 492.604 408.722L509.548 403.074C510.417 405.536 511.981 411.329 511.286 414.804C510.591 418.28 522.872 420.308 529.1 420.887C528.665 422.625 526.927 426.101 523.451 426.101C519.107 426.101 502.597 427.839 494.342 426.101Z" fill="#F1A96F"/>
<path d="M549.085 424.797C540.743 424.45 543.872 413.935 546.478 408.722L561.685 400.901C562.264 403.508 563.683 409.678 564.726 413.501C566.03 418.28 585.146 419.149 585.146 421.756C585.146 423.841 581.96 424.652 580.367 424.797C573.416 424.942 557.427 425.145 549.085 424.797Z" fill="#F1A96F"/>
<path d="M469.143 266.216C463.93 270.56 450.896 268.823 447.42 270.126L438.296 257.092C443.365 257.381 455.24 257.265 462.192 254.485C469.143 251.704 472.909 229.286 473.923 218.424C482.612 212.921 498.514 205.737 492.605 221.031C485.219 240.148 474.357 261.871 469.143 266.216Z" fill="#F1A96F"/>
<path d="M499.121 314.876C489.997 287.505 496.08 274.471 496.949 264.912L549.085 261.002C551.258 276.498 555.429 308.272 554.734 311.401C553.865 315.311 570.375 396.557 567.333 404.377C564.292 412.198 549.085 412.198 543.437 412.198C537.789 412.198 530.838 322.262 528.665 316.614C526.927 312.096 527.941 298.511 528.665 292.284C527.507 297.063 525.19 308.272 525.19 314.876C521.279 314.876 519.976 406.115 514.762 410.026C509.549 413.936 494.777 412.198 490.432 412.198C486.087 412.198 493.473 357.455 499.121 314.876Z" fill="#083451"/>
<path d="M550.823 262.306C549.433 260.568 513.749 264.478 496.08 266.651C493.475 262.418 494.734 229.129 495.856 209.937C495.303 214.828 493.613 221.372 489.563 224.072C484.349 227.548 476.674 222.624 473.488 219.727C473.343 213.935 474.965 197.57 482.612 178.453C490.258 159.336 518.238 158.322 531.272 160.205C536.486 162.377 547.695 167.33 550.823 169.763C554.734 172.805 568.202 201.914 566.03 206.259C563.858 210.604 560.382 208.431 550.823 208.431C544.741 214.514 552.561 264.478 550.823 262.306Z" fill="#F07929"/>
<ellipse cx="678.921" cy="313.215" rx="19.9857" ry="15.641" transform="rotate(30 678.921 313.215)" fill="#FFD629"/>
<path d="M682.902 305.318C676.819 300.539 661.179 307.491 660.31 307.057C662.916 294.891 678.123 294.023 686.812 299.671C694.462 304.644 697.819 312.27 698.109 316.615C698.109 318.497 697.5 321.741 695.067 319.656C693.329 315.746 688.985 310.097 682.902 305.318Z" fill="#EBC732"/>
<path d="M393.028 273.351C391.638 253.539 397.083 245.4 399.98 243.807L419.531 269.875C422.572 277.985 425.092 293.945 410.841 292.902C393.028 291.598 391.725 279.868 391.725 278.564C391.725 277.261 389.118 276.392 388.249 275.523C387.38 274.654 387.815 273.351 393.028 273.351Z" fill="#FEE7D9"/>
<path d="M396.809 256.095L400.978 257.151" stroke="black"/>
<path d="M401.717 280.736C401.717 282.474 396.938 282.908 393.897 283.777C394.911 285.515 397.112 289.078 397.807 289.425C398.502 289.773 400.993 286.674 402.152 285.081C402.442 283.922 402.76 281.431 401.717 280.736Z" fill="#5B3B28"/>
<ellipse cx="398.242" cy="267.702" rx="1.73788" ry="3.91024" fill="black"/>
<path d="M447.771 245.979C429.697 222.343 408.089 234.682 399.545 243.806C396.764 244.849 411.42 261.62 419.096 269.875V275.088C418.517 275.088 416.142 275.436 411.276 276.826C401.891 282.04 407.365 287.978 411.276 290.295C409.827 291.598 407.8 294.9 411.276 297.681C414.751 300.461 420.544 296.522 423.006 294.205V298.984C424.049 301.07 432.999 298.984 437.344 297.681C438.937 293.626 442.818 284.82 445.599 282.04C448.379 279.259 451.392 268.137 452.55 262.923C452.261 259.737 450.899 251.888 447.771 245.979Z" fill="#674720"/>
<path d="M279.279 325.304C282.755 315.572 298.106 310.822 305.347 309.663L312.733 313.573C313.457 313.573 316.47 314.442 322.726 317.918C332.111 320.699 339.381 336.166 341.843 343.552C340.105 344.71 335.673 347.288 331.85 348.331C332.893 351.459 328.809 361.22 326.636 365.71L327.505 374.834C328.809 376.572 331.763 383.436 333.153 396.992C325.333 406.55 283.189 400.468 285.796 398.73C288.403 396.992 288.403 382.654 287.969 369.62C287.534 356.586 286.665 358.758 289.706 348.331C286.231 348.679 277.831 344.421 274.065 342.248C274.355 340.655 275.803 335.036 279.279 325.304Z" fill="#F07929"/>
<path d="M296.223 312.27C299.351 312.965 300.133 305.608 300.133 301.843C300.568 301.843 303.696 302.712 312.733 306.187C310.995 306.187 311.864 311.836 311.864 312.27C311.864 312.705 314.905 314.442 309.692 316.18C304.478 317.918 302.74 315.311 296.223 312.27Z" fill="#FFBA82"/>
<path d="M324.575 303.62C323.781 305.688 309.59 306.996 307.424 307.169L294.976 300.841L282.879 289.08L295.104 276.249C302.601 272.25 318.995 264.316 324.594 264.566C330.192 264.816 329.833 278.501 328.953 285.313C330.899 286.029 334.358 287.496 332.625 287.635C330.46 287.808 332.005 291.869 329.451 295.908C316.15 294.181 325.369 301.552 324.575 303.62Z" fill="#FFBA82"/>
<path d="M296.121 293.34C294.929 295.876 288.971 298.415 286.142 299.368C275.859 292.867 275.492 292.634 270.739 285.518C265.397 259.008 280.403 251.533 291.657 248.368C302.911 245.203 313.058 251.104 320.964 254.047C328.87 256.989 329.621 263.118 329.33 266.018C329.038 268.918 323.293 275.566 310.355 283.835C303.01 279.191 300.797 285.673 300.608 289.495C299.609 289.72 297.313 290.804 296.121 293.34Z" fill="black"/>
<path d="M306.128 308.406C311.717 305.257 301.11 290.326 300.84 289.128C299.789 287.229 282.552 284.59 274.065 283.508C277.164 287.009 283.383 294.95 283.474 298.709C283.587 303.407 257.775 307.648 258.585 311.245C259.395 314.841 267.593 314.884 270.995 316.007C274.397 317.13 282.346 311.875 281.088 314.677C279.83 317.48 276.736 319.122 269.311 321.11C273.059 326.564 281.915 323.939 288.222 315.589C294.528 307.24 300.539 311.554 306.128 308.406Z" fill="black"/>
<path fill-rule="evenodd" clip-rule="evenodd" d="M319.627 281.975C318.933 282.167 318.432 282.663 318.126 283.178C317.987 283.413 317.703 283.544 317.448 283.447C317.192 283.35 317.061 283.062 317.191 282.821C317.584 282.089 318.294 281.315 319.364 281.02C320.595 280.68 322.15 281.014 324.021 282.474C324.236 282.642 324.262 282.956 324.086 283.165C323.909 283.374 323.597 283.399 323.381 283.232C321.671 281.905 320.442 281.751 319.627 281.975Z" fill="#292929"/>
<circle cx="908" cy="38" r="122" fill="#FFD629"/>
<circle cx="908" cy="38" r="122" fill="#FFD629"/>
</g>
<defs>
<clipPath id="clip0_82_1662">
<rect width="946" height="490" fill="white"/>
</clipPath>
</defs>
</svg>
