<?xml version="1.0" encoding="UTF-8"?><svg id="_레이어_2" xmlns="http://www.w3.org/2000/svg" width="200" height="50" viewBox="0 0 88.13 22.17"><defs><style>.cls-1{fill:#00b3cd;}.cls-2{fill:#221714;}.cls-3{fill:#ec6500;}.cls-4{fill:#585754;}.cls-5{fill:none;}.cls-6{fill:#88157b;}.cls-7{fill:#920783;}</style></defs><g id="Layer_8"><g><path class="cls-1" d="m36.85,17.78c-6.31,3.82-13.66,4.95-21.58,4.16-8.03-.8-11.99-5.52-11.6-8.66.37-2.96,3.87-5.4,8.65-5.4s8.65,2.42,8.65,5.4c0,0,0,4.04-8.15.76,0,0-1.92-1.02-2.94-1.98l-.4-.46c.78.66,2.78,1.6,5.13,1.68,2.31.08,2.08-1.13,1.56-1.84-.52-.71-2.03-1.98-4.63-1.8-2.6.19-4.54,1.8-4.39,3.78.14,2,2.74,5.89,10.76,6.65,7.96.75,13.66-.08,18.92-2.29Z"/><path class="cls-7" d="m10.11,8.06c.7-.12,1.45-.19,2.22-.19,4.78,0,8.65,2.42,8.65,5.4,0,0,0,4.04-8.15.76,0,0-1.92-1.02-2.94-1.98l-.4-.46c.78.66,2.78,1.6,5.13,1.68,2.31.08,2.08-1.13,1.56-1.84-.52-.71-2.03-1.98-4.63-1.8-.52.04-1.01.13-1.47.28v-1.85Z"/><path class="cls-3" d="m1.62,4.99c0,.45-.36.81-.81.81s-.81-.36-.81-.81.36-.81.81-.81.81.36.81.81Z"/><path class="cls-3" d="m6.04,4.7c0-.66.48-1.43,1.24-1.22.76.21,1.4.91,1.4,1.96,0,0-.02,3.69-.02,4.7s1.01,1.9,1.69,2.4c.67.49,1.8,1.12,1.8,1.12,0,0-.61-.49-.61-.95s.02-7.45.02-7.45c0-2.21-1.14-4.38-3.93-5.12C4.89-.59,3.38,1.82,3.38,3.57v4.01s2.64,1.88,2.64,1.88v-4.76Z"/><g><path class="cls-3" d="m48.96,5.71c0,.28-.23.51-.51.51s-.51-.23-.51-.51.23-.51.51-.51.51.23.51.51Z"/><g><path class="cls-5" d="m65.26,4.71c-.04-.08-.1-.14-.19-.19-.08-.04-.17-.06-.23-.06-.08,0-.16.02-.23.06-.08.04-.15.1-.21.19-.04.08-.08.17-.12.29-.02.1-.04.23-.04.33,0,.12.02.25.04.35.04.12.08.21.12.29.06.08.12.15.21.19.06.04.14.04.23.04v.02c.06,0,.15-.02.23-.06.08-.04.14-.1.19-.19.06-.08.1-.17.12-.29.04-.1.04-.23.04-.35,0-.1,0-.23-.04-.33-.02-.12-.06-.21-.12-.29Z"/><path class="cls-5" d="m69.53,5.62c.08-.04.17-.08.23-.17.06-.06.12-.15.14-.25.04-.08.06-.19.06-.29s-.02-.21-.06-.31c-.02-.1-.08-.19-.14-.25-.06-.06-.15-.12-.23-.17-.08-.04-.17-.04-.27-.04s-.19,0-.27.04c-.08.04-.17.1-.23.17-.06.06-.12.14-.14.25-.04.1-.06.21-.06.31s.02.21.06.29c.02.1.08.19.14.25.06.08.15.12.23.17.08.04.17.06.27.06s.19-.02.27-.06Z"/><path class="cls-5" d="m21.69,6.86c-.15.12-.21.25-.21.41,0,.15.06.29.21.39.14.12.33.17.54.17s.39-.04.54-.17c.12-.1.21-.25.21-.39,0-.17-.08-.29-.21-.41-.14-.1-.33-.17-.54-.17s-.39.06-.54.17Z"/><path class="cls-5" d="m26.89,6.7c-.19,0-.33.06-.48.17-.12.12-.19.27-.19.46s.06.33.19.45c.15.1.29.17.48.17.21,0,.35-.06.48-.17.15-.12.21-.27.21-.45s-.06-.33-.21-.46c-.12-.1-.27-.17-.48-.17Z"/><path class="cls-5" d="m26.1,5.5c.08-.04.15-.1.21-.17.06-.06.1-.14.14-.25.04-.08.04-.19.04-.29s0-.21-.04-.31c-.04-.08-.08-.17-.14-.23-.06-.08-.12-.12-.21-.17-.08-.04-.17-.06-.27-.06-.08,0-.17.02-.25.06-.08.04-.15.08-.21.17-.06.06-.12.15-.15.23-.04.1-.04.21-.04.31s0,.21.04.29c.02.1.08.19.15.25.06.06.12.12.21.17.08.02.17.04.25.04.1,0,.19-.02.27-.04Z"/><path class="cls-5" d="m44.64,6.68c-.21,0-.37.06-.52.17-.14.12-.23.25-.23.41s.08.31.23.41c.14.12.31.17.52.17.23,0,.39-.06.54-.17.14-.1.23-.25.23-.41s-.08-.29-.23-.41c-.14-.1-.31-.17-.54-.17Z"/><path class="cls-5" d="m39.73,4.71c-.06-.08-.14-.14-.23-.19-.08-.04-.17-.06-.27-.06s-.19.02-.27.06c-.08.04-.17.1-.23.19-.06.08-.1.17-.15.29-.04.1-.04.23-.04.33,0,.12,0,.25.04.35.04.12.08.21.15.29.06.08.14.15.23.19.08.04.17.04.27.06.1,0,.19-.02.27-.06.08-.04.17-.1.23-.19.06-.08.1-.17.14-.29.04-.1.04-.23.04-.35,0-.1,0-.23-.04-.33-.04-.12-.08-.21-.14-.29Z"/><polygon class="cls-5" points="51.82 5.37 51.82 4.67 51.26 4.67 50.73 4.67 50.73 5.37 51.26 5.37 51.82 5.37"/><path class="cls-5" d="m35.31,4.71c-.06-.08-.12-.14-.21-.19-.08-.04-.14-.06-.23-.06s-.17.02-.23.06c-.08.04-.15.1-.21.19-.04.08-.08.17-.12.29-.02.1-.04.23-.04.33,0,.12.02.25.04.35.04.12.08.21.12.29.06.08.12.15.21.19.06.04.14.04.23.04v.02c.08,0,.14-.02.23-.06.08-.04.14-.1.21-.19.04-.08.08-.17.12-.29.02-.1.04-.23.04-.35,0-.1-.02-.23-.04-.33-.04-.12-.08-.21-.12-.29Z"/><path class="cls-5" d="m61.39,6.7c-.21,0-.35.06-.48.17-.15.12-.21.27-.21.46s.06.33.21.45c.12.1.27.17.48.17.19,0,.33-.06.48-.17.12-.12.19-.27.19-.45s-.06-.33-.19-.46c-.15-.1-.29-.17-.48-.17Z"/><path class="cls-5" d="m31.49,6.7c-.19,0-.35.06-.48.17-.12.12-.21.27-.21.46s.08.33.21.45c.12.1.29.17.48.17s.35-.06.48-.17c.12-.12.19-.27.19-.45s-.06-.33-.19-.46c-.12-.1-.29-.17-.48-.17Z"/><path class="cls-5" d="m77.61,5c.19,0,.33-.04.45-.15.12-.08.19-.21.19-.35s-.06-.27-.19-.37c-.12-.1-.27-.15-.45-.15-.17,0-.33.04-.46.15-.1.1-.17.23-.17.37s.06.27.17.35c.12.1.29.15.46.15Z"/><path class="cls-4" d="m22.23,4.11c-.14.1-.31.21-.5.33-.41.23-.81.39-1.18.5l.23.35c.52-.14.99-.35,1.43-.62l.02-.02s.02-.02.04-.02l1.3.7.25-.37-1.16-.62c.21-.19.37-.37.48-.58.08-.17.12-.29.15-.41h-2.36v.44h1.61c-.06.1-.17.21-.31.33Z"/><path class="cls-4" d="m20.18,5.48v.43h1.8v.39c-.08,0-.15.02-.23.06-.17.04-.29.1-.39.21-.12.08-.21.19-.27.31-.06.12-.08.25-.08.39,0,.12.02.27.08.39s.14.23.27.31c.1.08.23.17.39.21.14.04.31.08.48.08s.33-.04.48-.08c.14-.04.29-.12.39-.21.1-.08.19-.19.25-.31.08-.12.1-.27.1-.39,0-.14-.02-.27-.1-.39-.06-.12-.14-.23-.25-.31-.1-.1-.25-.17-.39-.21-.08-.04-.17-.06-.23-.06v-.39h1.8v-.43h-4.1Zm2.59,1.39c.12.12.21.25.21.41,0,.15-.08.29-.21.39-.14.12-.33.17-.54.17s-.39-.04-.54-.17c-.15-.1-.21-.25-.21-.39,0-.17.06-.29.21-.41.14-.1.33-.17.54-.17s.39.06.54.17Z"/><path class="cls-4" d="m27.72,6.57c-.1-.1-.23-.17-.37-.23-.15-.04-.29-.08-.45-.08-.15,0-.29.04-.43.08-.14.06-.27.12-.37.23-.1.08-.19.19-.25.31v.02c-.06.15-.08.27-.08.41s.02.27.08.41v.02c.06.12.15.23.25.31.1.1.23.17.37.23.15.04.29.08.43.08.17,0,.31-.04.45-.08.14-.06.27-.12.37-.23.1-.1.19-.21.25-.33.06-.15.08-.27.08-.41s-.02-.27-.08-.41c-.06-.12-.15-.23-.25-.33Zm-.35,1.2c-.12.1-.27.17-.48.17-.19,0-.33-.06-.48-.17-.12-.12-.19-.27-.19-.45s.06-.33.19-.46c.15-.1.29-.17.48-.17.21,0,.35.06.48.17.15.12.21.27.21.46s-.06.33-.21.45Z"/><polygon class="cls-4" points="28.03 3.24 27.55 3.24 27.55 6.24 28.03 6.24 28.03 4.92 28.79 4.92 28.79 4.46 28.03 4.46 28.03 3.24"/><path class="cls-4" d="m26.29,5.89c.14-.06.27-.15.37-.27.1-.1.19-.23.23-.37h.02c.04-.15.08-.31.08-.45,0-.17-.04-.31-.08-.48h-.02c-.04-.15-.12-.27-.23-.37-.1-.1-.23-.19-.37-.25-.15-.06-.29-.08-.46-.08-.14,0-.29.02-.43.08-.14.06-.27.14-.37.25-.1.1-.19.23-.25.37-.04.17-.08.31-.08.48,0,.14.04.31.08.45.06.15.15.27.25.37.1.12.23.21.37.27.15.04.29.08.43.08.17,0,.31-.04.46-.08Zm-.7-.39c-.08-.04-.15-.1-.21-.17-.06-.06-.12-.14-.15-.25-.04-.08-.04-.19-.04-.29s0-.21.04-.31c.02-.08.08-.17.15-.23.06-.08.12-.12.21-.17.08-.04.17-.06.25-.06.1,0,.19.02.27.06.08.04.15.08.21.17.06.06.1.15.14.23.04.1.04.21.04.31s0,.21-.04.29c-.04.1-.08.19-.14.25-.06.06-.12.12-.21.17-.08.02-.17.04-.27.04-.08,0-.17-.02-.25-.04Z"/><path class="cls-4" d="m32.3,6.57c-.1-.1-.21-.17-.35-.23-.15-.04-.31-.08-.45-.08-.17,0-.31.04-.46.08-.15.06-.27.12-.37.23-.1.1-.19.21-.25.33-.06.15-.08.27-.08.41s.02.27.08.41c.06.12.15.23.25.33.1.1.23.17.37.23.14.04.29.08.46.08.14,0,.31-.04.45-.08.14-.06.25-.12.35-.23.12-.1.19-.21.25-.33.06-.15.08-.27.08-.41s-.02-.27-.08-.41c-.06-.12-.12-.23-.25-.33Zm-.33,1.2c-.12.1-.29.17-.48.17s-.35-.06-.48-.17c-.12-.12-.21-.27-.21-.45s.08-.33.21-.46c.12-.1.29-.17.48-.17s.35.06.48.17c.12.12.19.27.19.46s-.06.33-.19.45Z"/><polygon class="cls-4" points="32.61 3.24 32.13 3.24 32.13 6.24 32.61 6.24 32.61 4.92 33.38 4.92 33.38 4.46 32.61 4.46 32.61 3.24"/><path class="cls-4" d="m30.65,5.23l.85.7.12.1.29-.33-.41-.35-.58-.48c.15-.21.27-.43.35-.66.08-.23.12-.41.14-.6h-1.9v.43h1.3c-.08.27-.27.6-.56.95-.31.33-.66.64-1.03.89l.31.31c.39-.25.74-.56,1.05-.89.02-.04.04-.06.06-.08Z"/><path class="cls-4" d="m35.64,4.42c-.08-.12-.21-.21-.33-.27-.14-.08-.29-.1-.43-.1s-.29.02-.43.1c-.12.06-.25.15-.35.27-.08.12-.17.25-.21.41-.06.17-.08.33-.08.5,0,.19.02.35.08.52.04.17.12.29.21.41.1.12.23.21.35.27.14.08.29.1.43.1s.29-.02.43-.1c.12-.06.25-.15.33-.27.1-.12.19-.25.23-.41.06-.17.08-.33.08-.52,0-.17-.02-.33-.08-.5-.04-.17-.12-.29-.23-.41Zm-.21,1.26c-.04.12-.08.21-.12.29-.06.08-.12.15-.21.19-.08.04-.14.06-.23.06v-.02c-.08,0-.17,0-.23-.04-.08-.04-.15-.1-.21-.19-.04-.08-.08-.17-.12-.29-.02-.1-.04-.23-.04-.35,0-.1.02-.23.04-.33.04-.12.08-.21.12-.29.06-.08.12-.14.21-.19.06-.04.14-.06.23-.06s.14.02.23.06c.08.04.14.1.21.19.04.08.08.17.12.29.02.1.04.23.04.33,0,.12-.02.25-.04.35Z"/><polygon class="cls-4" points="37.17 5.11 36.72 5.11 36.72 3.45 36.26 3.45 36.26 7.96 36.72 7.96 36.72 5.54 37.17 5.54 37.17 8.29 37.63 8.29 37.63 3.33 37.17 3.33 37.17 5.11"/><path class="cls-4" d="m40.08,4.42c-.1-.12-.23-.21-.39-.27-.15-.08-.29-.1-.46-.1s-.31.02-.45.1c-.17.06-.29.15-.39.27-.1.1-.19.25-.23.41-.06.17-.1.33-.1.5,0,.19.04.35.1.52.04.17.12.29.23.41.1.12.23.21.39.27.14.08.29.1.45.1s.31-.02.46-.1c.17-.06.29-.15.39-.27.1-.12.19-.25.25-.41.04-.17.08-.33.08-.52,0-.17-.04-.33-.08-.5-.06-.17-.14-.31-.25-.41Zm-.21,1.26c-.04.12-.08.21-.14.29-.06.08-.14.15-.23.19-.08.04-.17.06-.27.06-.1-.02-.19-.02-.27-.06-.08-.04-.17-.1-.23-.19-.06-.08-.1-.17-.15-.29-.04-.1-.04-.23-.04-.35,0-.1,0-.23.04-.33.04-.12.08-.21.15-.29.06-.08.14-.14.23-.19.08-.04.17-.06.27-.06s.19.02.27.06c.08.04.17.1.23.19.06.08.1.17.14.29.04.1.04.23.04.33,0,.12,0,.25-.04.35Z"/><polygon class="cls-4" points="41.4 3.33 40.93 3.33 40.93 8.29 41.4 8.29 41.4 5.56 42.17 5.56 42.17 5.11 41.4 5.11 41.4 3.33"/><path class="cls-4" d="m45.53,6.55c-.12-.1-.25-.17-.39-.23-.17-.04-.33-.06-.5-.06s-.31.02-.48.06c-.14.06-.29.12-.39.23-.1.08-.19.19-.25.31-.06.12-.1.27-.1.39,0,.15.04.27.1.39.06.12.15.25.25.33.1.08.25.17.39.21.17.04.31.08.48.08s.33-.04.5-.08c.15-.04.27-.12.39-.21.1-.08.19-.21.25-.33.06-.12.1-.25.1-.39,0-.12-.04-.27-.1-.39-.06-.12-.15-.23-.25-.31Zm-.35,1.12c-.14.1-.31.17-.54.17-.21,0-.37-.04-.52-.17-.14-.1-.23-.25-.23-.41s.08-.29.23-.41c.14-.1.31-.17.52-.17.23,0,.39.06.54.17.14.12.23.25.23.41s-.08.31-.23.41Z"/><polygon class="cls-4" points="44.91 5.1 45.9 5.1 45.9 4.67 44.64 4.67 43.87 4.67 43.87 3.78 44.64 3.78 45.9 3.78 45.9 3.35 44.64 3.35 43.4 3.35 43.4 5.1 44.43 5.1 44.43 5.58 42.59 5.58 42.59 6.01 44.64 6.01 46.69 6.01 46.69 5.58 44.91 5.58 44.91 5.1"/><polygon class="cls-4" points="51.57 7.44 53.44 7.44 53.44 6.2 51.26 6.2 51.08 6.2 51.08 6.62 51.26 6.62 52.96 6.62 52.96 7.03 51.26 7.03 51.1 7.03 51.1 8.33 51.26 8.33 53.56 8.33 53.56 7.92 51.57 7.92 51.57 7.44"/><path class="cls-4" d="m52.3,5.81v-2.25h-.48v.7h-1.1v-.7h-.48v2.25h2.05Zm-1.57-.43v-.7h1.1v.7h-1.1Z"/><polygon class="cls-4" points="53.44 3.28 52.96 3.28 52.96 5.95 53.44 5.95 53.44 4.88 54.2 4.88 54.2 4.4 53.44 4.4 53.44 3.28"/><polygon class="cls-4" points="56.97 5.29 55.17 5.29 55.17 4.03 56.64 4.03 56.64 3.62 54.69 3.62 54.69 5.7 56.97 5.7 56.97 5.29"/><polygon class="cls-4" points="57.88 3.28 57.4 3.28 57.4 5.93 57.88 5.93 57.88 4.88 58.62 4.88 58.62 4.42 57.88 4.42 57.88 3.28"/><polygon class="cls-4" points="56.02 7.44 57.88 7.44 57.88 6.18 55.52 6.18 55.52 6.59 57.4 6.59 57.4 7.01 55.54 7.01 55.54 8.33 58 8.33 58 7.92 56.02 7.92 56.02 7.44"/><path class="cls-4" d="m62.2,6.57c-.1-.1-.23-.17-.37-.23-.15-.04-.29-.08-.44-.08-.17,0-.31.04-.45.08-.14.06-.27.12-.37.23-.1.1-.19.21-.25.33-.06.15-.08.27-.08.41s.02.27.08.41c.06.12.14.23.25.33.1.1.23.17.37.23.14.04.29.08.45.08.15,0,.29-.04.44-.08.14-.06.27-.12.37-.23.1-.1.19-.21.25-.33.06-.15.08-.27.08-.41s-.02-.27-.08-.41c-.06-.12-.15-.23-.25-.33Zm-.33,1.2c-.15.1-.29.17-.48.17-.21,0-.35-.06-.48-.17-.15-.12-.21-.27-.21-.45s.06-.33.21-.46c.12-.1.27-.17.48-.17.19,0,.33.06.48.17.12.12.19.27.19.46s-.06.33-.19.45Z"/><polygon class="cls-4" points="62.51 3.24 62.03 3.24 62.03 6.24 62.51 6.24 62.51 4.92 63.27 4.92 63.27 4.46 62.51 4.46 62.51 3.24"/><path class="cls-4" d="m60.54,5.23l.85.7.12.1.29-.33-.41-.35-.58-.48c.15-.21.27-.43.35-.66s.12-.41.15-.6h-1.9v.43h1.3c-.08.27-.27.6-.58.95-.29.33-.64.64-1.01.89l.29.31c.39-.25.77-.56,1.08-.89.02-.04.04-.06.06-.08Z"/><path class="cls-4" d="m65.61,4.42c-.1-.12-.21-.21-.35-.27-.12-.08-.27-.1-.41-.1s-.29.02-.43.1c-.12.06-.25.15-.35.27-.08.12-.17.25-.21.41-.06.17-.08.33-.08.5,0,.19.02.35.08.52.04.17.12.29.21.41.1.12.23.21.35.27.15.08.29.1.43.1s.29-.02.41-.1c.14-.06.25-.15.35-.27.1-.12.17-.25.23-.41.04-.17.08-.33.08-.52,0-.17-.04-.33-.08-.5-.06-.17-.12-.29-.23-.41Zm-.23,1.26c-.02.12-.06.21-.12.29-.04.08-.1.15-.19.19-.08.04-.17.06-.23.06v-.02c-.08,0-.16,0-.23-.04-.08-.04-.15-.1-.21-.19-.04-.08-.08-.17-.12-.29-.02-.1-.04-.23-.04-.35,0-.1.02-.23.04-.33.04-.12.08-.21.12-.29.06-.08.12-.14.21-.19.06-.04.14-.06.23-.06.06,0,.15.02.23.06.08.04.14.1.19.19.06.08.1.17.12.29.04.1.04.23.04.33,0,.12,0,.25-.04.35Z"/><polygon class="cls-4" points="67.14 5.11 66.68 5.11 66.68 3.45 66.23 3.45 66.23 7.96 66.68 7.96 66.68 5.54 67.14 5.54 67.14 8.29 67.59 8.29 67.59 3.33 67.14 3.33 67.14 5.11"/><polygon class="cls-4" points="71.58 6.9 71.58 3.3 71.35 3.3 71.1 3.3 71.1 6.9 71.35 6.9 71.58 6.9"/><polygon class="cls-4" points="69.64 7.88 69.64 6.66 69.26 6.66 69.16 6.66 69.16 8.31 69.26 8.31 71.35 8.31 71.66 8.31 71.66 7.88 71.35 7.88 69.64 7.88"/><path class="cls-4" d="m69.72,6.01c.14-.06.29-.15.39-.25.1-.12.19-.25.25-.39.06-.14.08-.29.08-.45s-.02-.33-.08-.48c-.06-.15-.14-.27-.25-.37-.1-.12-.25-.21-.39-.27-.15-.06-.29-.08-.46-.08s-.31.02-.46.08c-.14.06-.29.15-.39.27-.1.1-.19.23-.25.37-.06.14-.08.31-.08.48s.02.31.08.45c.06.15.15.27.25.39.1.1.25.19.39.25.15.06.29.08.46.08s.31-.02.46-.08Zm-.72-.39c-.08-.04-.17-.08-.23-.17-.06-.06-.12-.15-.14-.25-.04-.08-.06-.19-.06-.29s.02-.21.06-.31c.02-.1.08-.19.14-.25.06-.06.15-.12.23-.17.08-.04.17-.04.27-.04s.19,0,.27.04c.08.04.17.1.23.17.06.06.12.14.14.25.04.1.06.21.06.31s-.02.21-.06.29c-.02.1-.08.19-.14.25-.06.08-.15.12-.23.17-.08.04-.17.06-.27.06s-.19-.02-.27-.06Z"/><path class="cls-4" d="m74.35,3.99h-1.92v.41h1.37c-.19.81-.72,1.55-1.63,2.23l.31.31c.48-.33.85-.7,1.16-1.12l.93,1.03.33-.31-1.01-1.1c.25-.46.41-.95.48-1.47Z"/><rect class="cls-4" x="75.24" y="3.33" width=".48" height="4.96"/><polygon class="cls-4" points="78.32 6.39 78.32 6.82 78.52 6.82 79.33 6.82 79.33 7.28 79.83 7.28 79.83 3.3 79.33 3.3 79.33 6.39 78.52 6.39 78.32 6.39"/><polygon class="cls-4" points="77.72 7.88 77.72 7.01 77.61 7.01 77.24 7.01 77.24 8.31 77.61 8.31 78.52 8.31 79.89 8.31 79.89 7.88 78.52 7.88 77.72 7.88"/><path class="cls-4" d="m76.83,5.17c.1.08.21.15.35.19.14.06.29.08.43.08.17,0,.31-.02.43-.08.14-.04.27-.1.37-.19.04-.04.06-.06.1-.1.04-.06.08-.12.12-.21.06-.1.08-.23.08-.35,0-.14-.02-.27-.08-.37-.04-.08-.08-.15-.12-.21-.04-.04-.06-.06-.1-.1-.1-.08-.23-.15-.37-.19-.12-.04-.27-.08-.43-.08-.15,0-.29.04-.43.08-.15.04-.25.1-.35.19-.1.08-.19.19-.23.31-.06.1-.08.23-.08.37,0,.12.02.25.08.35.04.12.12.23.23.31Zm.33-1.03c.12-.1.29-.15.46-.15.19,0,.33.04.45.15.12.1.19.23.19.37s-.06.27-.19.35c-.12.1-.27.15-.45.15-.17,0-.33-.04-.46-.15-.1-.08-.17-.21-.17-.35s.06-.27.17-.37Z"/><path class="cls-4" d="m77.28,6.8h.5v-.7c.15,0,.31,0,.5-.02h.25c.21-.02.41-.04.62-.08v-.44c-.21.04-.41.06-.62.08-.08,0-.19.02-.27.02-.27,0-.48.02-.64.02h-1.41v.41h1.08v.7Z"/><polygon class="cls-4" points="84.23 6.93 84.23 3.3 84 3.3 83.77 3.3 83.77 6.93 84 6.93 84.23 6.93"/><polygon class="cls-4" points="82.47 7.88 82.22 7.88 82.22 6.66 81.75 6.66 81.75 8.31 82.47 8.31 84 8.31 84.29 8.31 84.29 7.88 84 7.88 82.47 7.88"/><polygon class="cls-4" points="82.88 4.96 82.88 6.8 83.34 6.8 83.34 3.43 82.88 3.43 82.88 4.53 82.47 4.53 82.22 4.53 82.22 4.96 82.47 4.96 82.88 4.96"/><path class="cls-4" d="m82.47,6.2l.27-.21-.27-.29-.72-.89c.08-.29.15-.6.15-.87v-.31h-.48v.23c0,.39-.08.79-.25,1.18-.17.37-.41.72-.79,1.05l.33.29c.39-.33.68-.7.87-1.1l.81.99.08-.08Z"/><polygon class="cls-4" points="87.66 3.33 87.66 5.17 86.95 5.17 86.83 5.17 86.83 5.6 86.95 5.6 87.66 5.6 87.66 8.29 88.13 8.29 88.13 3.33 87.66 3.33"/><polygon class="cls-4" points="85.26 6.43 85.26 5.6 86.56 5.6 86.56 5.19 85.26 5.19 85.26 4.36 86.85 4.36 86.85 3.95 84.78 3.95 84.78 6.84 86.95 6.84 87.1 6.84 87.1 6.43 86.95 6.43 85.26 6.43"/></g></g><g><path class="cls-2" d="m26.48,15c-.06.03-.11.04-.13.03-.02-.01-.04-.03-.06-.07l-.21-.38c-.04-.07-.01-.12.07-.16.19-.09.37-.19.54-.31s.33-.24.47-.37c.14-.13.27-.25.37-.38.11-.13.19-.25.24-.36.03-.06.04-.11.04-.13,0-.03-.04-.04-.1-.04h-1.27s-.08-.01-.09-.03c0-.02-.01-.05-.01-.09v-.41c0-.08.04-.12.11-.12h1.88c.22,0,.35.06.4.16.05.11.04.26-.02.44-.1.27-.24.53-.43.78.15.13.3.24.47.34.16.1.31.18.44.24.06.03.08.08.04.14l-.27.42c-.03.06-.08.07-.15.03-.06-.03-.12-.06-.2-.11s-.16-.1-.24-.16c-.09-.06-.17-.12-.27-.19-.09-.07-.18-.14-.26-.21-.19.19-.4.36-.63.51-.23.16-.48.29-.74.41Zm2.1,2.26c-.24,0-.46-.03-.67-.08s-.38-.13-.53-.23-.27-.21-.35-.35c-.09-.13-.13-.28-.13-.44s.04-.29.13-.43c.09-.13.2-.25.35-.34s.33-.18.53-.23c.2-.06.43-.08.67-.08s.45.03.65.08.39.13.54.23c.16.1.28.21.37.34.09.13.14.27.14.43s-.05.31-.14.44c-.09.13-.21.25-.37.35s-.34.17-.54.23-.42.08-.65.08Zm0-1.58c-.28,0-.5.05-.65.15s-.24.21-.24.34.08.24.24.33.38.14.65.14c.13,0,.25-.01.36-.04.11-.03.21-.06.29-.1s.14-.09.19-.15c.05-.06.07-.12.07-.18s-.02-.12-.07-.18c-.05-.06-.11-.11-.19-.16s-.18-.08-.29-.11c-.11-.03-.23-.04-.36-.04Zm2.33-1.88h-.69v1.03c0,.07-.03.1-.1.1h-.56c-.07,0-.11-.04-.11-.11v-2.83s0-.07.02-.08.05-.02.09-.02h.56s.07,0,.08.02c.01.01.02.04.02.08v1.17h.69s.06,0,.08.01c.02,0,.03.04.03.09v.42c0,.07-.04.11-.11.11Z"/><path class="cls-2" d="m32.45,15.8c-.18,0-.34-.04-.49-.12-.15-.08-.27-.2-.38-.35-.11-.15-.19-.34-.24-.56-.06-.22-.09-.47-.09-.74s.03-.52.09-.74c.06-.22.14-.4.24-.56.11-.15.23-.27.38-.35.15-.08.31-.12.49-.12s.34.04.49.12c.15.08.28.2.38.35.11.15.19.34.25.56s.09.46.09.74-.03.53-.09.74-.14.4-.25.56c-.11.15-.23.27-.38.35-.15.08-.31.12-.49.12Zm0-2.88c-.09,0-.16.04-.22.11-.06.07-.11.16-.14.27-.04.11-.06.23-.08.36-.02.13-.02.26-.02.38s0,.25.02.38c.02.13.04.25.08.36.04.11.09.2.14.27.06.07.13.11.22.11.09,0,.16-.04.23-.11.06-.07.11-.16.15-.27.04-.11.06-.23.08-.36.02-.13.03-.26.03-.38s0-.25-.03-.38c-.02-.13-.04-.25-.08-.36-.04-.11-.09-.2-.15-.27-.06-.07-.14-.11-.23-.11Zm3.35,4.3h-.56s-.07,0-.08-.02-.02-.04-.02-.08v-2.6h-.44v2.4s0,.08-.02.09c-.01,0-.04.01-.08.01h-.52s-.07,0-.08-.01c-.01,0-.02-.04-.02-.09v-4.82s0-.07.02-.08c.01-.01.04-.02.08-.02h.52s.07,0,.08.02c.01.01.02.04.02.08v1.8h.44v-1.9s0-.07.02-.08c.01-.01.04-.02.08-.02h.56s.07,0,.08.02.02.04.02.08v5.13s0,.07-.02.08-.04.02-.08.02Z"/><path class="cls-2" d="m38.03,15.92c-.21,0-.41-.05-.58-.14-.17-.09-.32-.22-.44-.38-.12-.16-.22-.36-.28-.58-.07-.22-.1-.47-.1-.73s.03-.53.1-.75c.07-.23.16-.42.28-.59s.27-.29.44-.39c.17-.09.37-.14.58-.14s.41.05.59.14c.18.09.33.22.45.38.12.16.22.36.29.59.07.23.1.48.1.75s-.03.52-.1.75c-.07.23-.16.42-.29.58-.12.16-.27.29-.45.38-.18.09-.37.14-.59.14Zm0-3.05c-.1,0-.18.03-.26.09s-.15.15-.21.25c-.06.11-.1.23-.13.38-.03.15-.05.31-.05.48s.02.32.05.47c.03.15.08.27.13.38.06.11.13.19.21.25s.17.09.26.09.19-.03.27-.09.15-.15.21-.25c.06-.11.1-.23.13-.38s.05-.3.05-.47-.02-.33-.05-.48c-.03-.15-.08-.27-.13-.38-.06-.11-.13-.19-.21-.25s-.17-.09-.27-.09Zm3.32,1.64h-.69v2.59s0,.07-.02.09-.04.02-.08.02h-.56s-.07,0-.09-.02c-.02-.01-.02-.04-.02-.09v-5.12s0-.07.02-.08.05-.02.09-.02h.56s.07,0,.08.02c.01.01.02.04.02.08v1.9h.69s.06,0,.08.01c.02,0,.03.04.03.09v.42s-.01.07-.03.09c-.02.01-.05.02-.08.02Z"/><path class="cls-2" d="m42.2,16.07c-.05.03-.09.04-.12.04s-.06-.02-.09-.06l-.26-.39s-.03-.07-.02-.11c0-.03.03-.06.06-.08.56-.32,1-.68,1.32-1.09s.52-.86.58-1.35c.01-.08-.02-.12-.08-.12h-1.55s-.08,0-.09-.03c-.01-.02-.02-.05-.02-.09v-.42s0-.07.02-.09c.01-.01.04-.02.08-.02h2.02c.19,0,.31.04.37.11s.08.2.07.36c-.02.33-.09.66-.2.97-.11.32-.27.61-.47.89s-.43.54-.71.79c-.27.24-.58.46-.93.65Zm4.38-1.55h-.69v2.59s0,.07-.02.09-.04.02-.08.02h-.56s-.07,0-.09-.02c-.02-.01-.02-.04-.02-.09v-5.12s0-.07.02-.08.05-.02.09-.02h.56s.07,0,.08.02c.01.01.02.04.02.08v1.9h.69s.06,0,.08.01c.02,0,.03.04.03.09v.42s-.01.07-.03.09c-.02.01-.05.02-.08.02Z"/><path class="cls-2" d="m51.72,15.05h-4.77c-.05,0-.08,0-.09-.03-.01-.02-.02-.05-.02-.09v-.4s0-.07.02-.09c.01-.02.04-.03.09-.03h2.01v-.46s0-.07.02-.08.04-.02.09-.02h.54s.08,0,.09.02c.01.01.02.04.02.08v.46h2s.06,0,.08.02c.02.01.03.04.03.09v.4c0,.08-.04.12-.12.12Zm-1.4-1.99s-.04.03-.06.04c-.02.01-.04.03-.06.04.09.03.19.06.3.09.11.03.21.06.32.08.11.03.21.05.31.07.1.02.19.04.28.06.05,0,.09.02.1.04.01.02.01.06,0,.11l-.12.33c-.02.05-.04.08-.06.09-.02.01-.06.01-.1,0-.27-.05-.56-.11-.87-.2s-.63-.18-.93-.28c-.29.12-.6.23-.92.33s-.65.17-.97.23c-.06.01-.09.01-.11,0-.02,0-.04-.03-.06-.08l-.13-.36c-.03-.09,0-.14.08-.16.49-.1.92-.22,1.3-.36s.7-.28.96-.42c.04-.02.06-.04.06-.06s-.02-.03-.07-.03h-1.82s-.07,0-.08-.02c-.01-.01-.02-.04-.02-.08v-.41s0-.07.02-.08c.01-.01.04-.02.08-.02h2.63c.18,0,.31.03.4.1.09.07.14.14.14.22,0,.12-.05.24-.16.36-.11.12-.24.23-.41.34Zm.65,4.18h-.54c-.08,0-.12-.04-.12-.11v-1c0-.06-.03-.08-.08-.08h-2.61s-.06,0-.08-.02c-.02-.01-.03-.04-.03-.08v-.43c0-.05.01-.08.03-.09.02,0,.05-.01.08-.01h3.07c.08,0,.15,0,.2.02.05.01.09.04.12.07.03.03.05.08.06.13.01.05.02.12.02.2v1.3c0,.07-.04.11-.11.11Z"/><path class="cls-6" d="m55.22,14.67c-.2,0-.39-.03-.56-.1-.17-.07-.31-.16-.43-.28s-.21-.26-.28-.41c-.07-.15-.1-.32-.1-.49s.03-.34.1-.49c.07-.16.16-.29.28-.41s.26-.21.43-.28c.17-.07.35-.1.56-.1s.4.03.56.1c.17.07.31.16.43.28s.21.26.28.41c.07.16.1.32.1.49s-.03.34-.1.49c-.07.15-.16.29-.28.41s-.26.21-.43.28c-.17.07-.36.1-.56.1Zm1.03,2.59c-.24,0-.46-.03-.67-.08s-.38-.13-.53-.23-.27-.21-.35-.35c-.09-.13-.13-.28-.13-.44s.04-.29.13-.43.2-.25.35-.34c.15-.1.33-.18.53-.23.21-.06.43-.08.67-.08s.45.03.65.08.39.13.54.23c.16.1.28.21.37.34.09.13.14.27.14.43s-.05.31-.14.44c-.09.13-.21.25-.37.35s-.34.17-.54.23-.42.08-.65.08Zm-1.03-4.51c-.1,0-.18.02-.26.05s-.14.08-.2.14c-.05.06-.1.13-.13.2-.03.08-.04.16-.04.24s.01.17.04.24c.03.08.07.14.13.2s.12.1.2.14c.08.03.16.05.26.05s.18-.02.26-.05c.08-.03.15-.08.2-.14s.1-.12.13-.2c.03-.08.04-.16.04-.24s-.01-.17-.04-.24c-.03-.08-.07-.15-.13-.2-.06-.06-.12-.1-.2-.14-.08-.03-.17-.05-.26-.05Zm1.03,2.93c-.28,0-.5.05-.65.15s-.24.21-.24.34.08.24.24.33.38.14.65.14c.13,0,.25-.01.36-.04.11-.03.21-.06.29-.1s.14-.09.19-.15c.05-.06.07-.12.07-.18s-.02-.12-.07-.18c-.05-.06-.11-.11-.19-.16s-.18-.08-.29-.11c-.11-.03-.23-.04-.36-.04Zm2.33-1.29h-.69v.44c0,.07-.03.1-.1.1h-.56c-.07,0-.11-.04-.11-.11v-2.83s0-.07.02-.08.05-.02.09-.02h.56s.07,0,.08.02c.01.01.02.04.02.08v.63h.69s.06,0,.08.02.03.04.03.09v.41c0,.05-.01.08-.03.09-.02.01-.05.02-.08.02h-.69v.51h.69s.06,0,.08.01c.02,0,.03.04.03.09v.42s-.01.07-.03.08c-.02.01-.05.02-.08.02Z"/><path class="cls-6" d="m63,17.21h-.54c-.08,0-.12-.04-.12-.11v-1.03c0-.06-.03-.08-.08-.08h-2.67s-.06,0-.08-.02c-.02-.01-.03-.04-.03-.08v-.43c0-.05.01-.08.03-.09.02,0,.05-.01.08-.01h.53v-.46h-1.16s-.07,0-.09-.02c-.01-.01-.02-.04-.02-.08v-.4s0-.07.02-.09c.01-.02.04-.03.09-.03h4.77c.08,0,.12.04.12.12v.4s-.01.07-.03.09c-.02.01-.05.02-.08.02h-1.16v.46h.15c.08,0,.15,0,.2.02.05.01.09.04.12.07.03.03.05.08.06.13.01.05.02.12.02.2v1.33c0,.07-.04.11-.11.11Zm-1.66-3.2c-.27,0-.51-.03-.73-.07-.22-.05-.41-.12-.57-.21-.16-.09-.28-.2-.37-.33-.09-.13-.13-.26-.13-.42s.04-.3.13-.42c.09-.13.21-.23.37-.33.16-.09.35-.16.57-.21.22-.05.46-.08.73-.08s.51.03.73.08c.22.05.41.12.57.21.16.09.28.2.36.33s.13.27.13.42-.04.3-.13.42c-.09.13-.21.23-.36.32-.16.09-.35.16-.57.21-.22.05-.46.07-.73.07Zm0-1.46c-.32,0-.57.04-.75.13-.17.09-.26.19-.26.3,0,.05.02.1.07.15.04.05.11.1.2.14s.19.07.32.1.27.04.43.04c.31,0,.56-.04.73-.13.17-.09.26-.19.26-.29,0-.11-.09-.21-.26-.3-.17-.09-.42-.13-.73-.13Zm-.46,2.8h.92v-.46h-.92v.46Z"/><path class="cls-6" d="m67.18,15.7s-.06.05-.1.04c-.04-.01-.08-.03-.13-.07-.06-.04-.14-.1-.22-.18-.08-.07-.17-.16-.26-.25-.09-.09-.18-.19-.27-.29-.09-.1-.17-.2-.24-.3-.19.24-.4.46-.63.68s-.48.4-.75.57c-.03.02-.06.03-.08.03s-.05-.02-.08-.06l-.26-.35s-.04-.07-.03-.1c0-.02.03-.05.06-.07.21-.15.42-.31.61-.49.19-.18.37-.37.53-.57s.3-.41.43-.62.22-.42.28-.63c.02-.07,0-.11-.08-.11h-1.35c-.05,0-.08-.01-.09-.03,0-.02-.01-.05-.01-.09v-.4s0-.08.02-.09c.02-.02.05-.02.09-.02h1.83c.14,0,.26.03.34.09.08.06.13.16.13.28,0,.05,0,.1-.01.15,0,.05-.02.09-.03.14-.04.18-.11.37-.19.56-.09.19-.19.38-.31.57.07.11.15.22.24.32s.18.2.28.3c.1.09.19.18.29.26.1.08.18.15.26.21.06.05.06.11,0,.19l-.26.33Zm1.27,1.52h-.56s-.07,0-.08-.02c-.01-.01-.02-.04-.02-.09v-5.12s0-.07.02-.08c.01-.01.04-.02.08-.02h.56s.07,0,.08.02.02.04.02.08v5.12s0,.07-.02.09c-.01.01-.04.02-.08.02Z"/><path class="cls-6" d="m71.3,15.59h-.53c-.08,0-.12-.04-.12-.11v-.67c-.21,0-.41.01-.61.01s-.4,0-.59,0c-.04,0-.07,0-.09-.03s-.02-.05-.02-.09v-.37s0-.07.02-.09c.01-.02.04-.03.08-.02.53,0,1.06,0,1.6-.01s1.07-.06,1.58-.12c.06,0,.09,0,.11,0,.02,0,.03.04.04.08l.04.37s0,.07-.02.09c-.02.01-.05.02-.08.03-.21.03-.42.05-.64.07s-.44.04-.67.06v.71c0,.07-.04.11-.12.11Zm-.22-1.58c-.19,0-.36-.02-.52-.07-.16-.05-.29-.12-.41-.21-.12-.09-.21-.2-.27-.33-.06-.13-.1-.26-.1-.42,0-.14.03-.27.1-.39s.16-.23.27-.32c.12-.09.25-.16.41-.21.16-.05.33-.08.52-.08s.36.03.52.08c.16.05.29.12.41.21.11.09.2.19.27.32.07.12.1.25.1.39,0,.15-.03.29-.1.42-.06.13-.15.23-.27.33-.11.09-.25.16-.41.21-.16.05-.33.07-.52.07Zm2.71,3.13h-3.22c-.08,0-.14,0-.19-.02-.05-.01-.09-.03-.12-.06-.03-.03-.05-.07-.06-.12-.01-.05-.02-.12-.02-.19v-.82c0-.07.04-.11.11-.11h.54c.08,0,.12.04.12.11v.51c0,.06.03.08.09.08h2.75s.06,0,.08.02c.02.01.03.04.03.08v.43c0,.05-.01.08-.03.09-.02,0-.05.01-.08.01Zm-2.71-4.56c-.17,0-.3.04-.41.12s-.16.18-.16.29c0,.13.05.23.16.31s.24.12.41.12.3-.04.41-.12.16-.18.16-.31c0-.11-.05-.21-.16-.29s-.24-.12-.41-.12Zm2.59,3.45h-.57s-.07,0-.08-.02c-.01-.01-.02-.04-.02-.09v-.41h-.83s-.06,0-.08-.02c-.02-.01-.03-.04-.03-.08v-.38s.01-.08.03-.09c.02,0,.05-.01.08-.01h.83v-2.93s0-.07.02-.08c.01-.01.04-.02.08-.02h.57s.07,0,.08.02c.01.01.02.04.02.08v3.93s0,.07-.02.09c-.01.01-.04.02-.08.02Z"/><path class="cls-6" d="m77.33,15.84c-.05.06-.11.06-.2-.01-.07-.05-.15-.12-.24-.22-.09-.09-.18-.2-.27-.31-.09-.11-.18-.23-.26-.36-.08-.13-.16-.26-.21-.38-.07.14-.14.29-.22.43s-.17.27-.26.4c-.09.13-.19.24-.29.35-.1.11-.2.2-.3.28-.05.04-.09.06-.11.07s-.05-.01-.09-.05l-.31-.32s-.04-.06-.04-.09.02-.06.07-.11c.21-.2.41-.44.59-.71.18-.27.31-.55.41-.85.08-.24.13-.49.17-.77s.06-.58.06-.91c0-.04,0-.07.02-.09.01-.02.04-.03.1-.03l.53.02c.05,0,.08.02.09.04.01.02.02.05.02.1,0,.46-.03.87-.11,1.25.04.16.1.32.19.49.09.17.18.34.29.49.11.16.21.3.33.44s.22.24.31.32c.05.04.08.08.07.11,0,.03-.02.07-.05.11l-.27.33Zm2.15-1.32h-.69v2.59s0,.07-.02.09-.04.02-.08.02h-.56s-.07,0-.09-.02c-.02-.01-.02-.04-.02-.09v-5.12s0-.07.02-.08.05-.02.09-.02h.56s.07,0,.08.02c.01.01.02.04.02.08v1.9h.69s.06,0,.08.01c.02,0,.03.04.03.09v.42s-.01.07-.03.09c-.02.01-.05.02-.08.02Z"/><path class="cls-6" d="m81.36,14.59c-.2,0-.39-.04-.55-.11-.17-.07-.31-.16-.43-.28s-.21-.25-.28-.41c-.06-.15-.1-.32-.1-.49s.03-.33.1-.49c.07-.16.16-.29.28-.41s.26-.21.43-.28c.16-.07.35-.11.55-.11.18,0,.34.03.49.08.15.05.28.12.39.22s.21.2.29.32.13.25.16.39h.78v-1.05s.01-.08.03-.09c.02-.01.05-.02.08-.02h.55s.08.01.09.03c0,.02.01.05.01.07v2.55c0,.07-.04.11-.11.11h-.56c-.07,0-.11-.03-.11-.1v-.88h-.8c-.04.13-.1.25-.18.36-.08.11-.17.21-.29.29s-.24.15-.38.19c-.14.05-.3.07-.46.07Zm0-1.92c-.09,0-.18.02-.25.05-.08.03-.14.08-.2.14s-.1.13-.13.21c-.03.08-.04.16-.04.24s.01.16.04.24c.03.07.07.14.13.2s.12.11.2.14c.08.03.16.05.25.05s.18-.02.26-.05.14-.08.2-.14.1-.13.13-.2c.03-.07.04-.15.04-.24s-.02-.17-.05-.24c-.03-.08-.07-.15-.13-.21s-.12-.11-.2-.14c-.08-.04-.16-.05-.26-.05Zm2.45,4.45h-2.47c-.09,0-.16,0-.22-.02-.06-.01-.1-.03-.13-.06-.03-.03-.05-.07-.07-.12-.01-.05-.02-.12-.02-.21v-1.65c0-.07.04-.1.11-.1h.56s.07,0,.09.02.03.04.03.08v.41h1.78v-.43s0-.07.03-.08.04-.02.08-.02h.57s.06,0,.07.02.03.04.03.08v1.68c0,.14-.03.24-.08.3s-.17.08-.35.08Zm-.34-1.02h-1.78v.34s.02.05.06.05h1.67s.06-.02.06-.05v-.34Z"/></g></g></g></svg>
