<svg width="228" height="47" viewBox="0 0 228 47" fill="none" xmlns="http://www.w3.org/2000/svg">
<path d="M5.412 24.852V26.128C5.412 28.724 3.982 31.386 0.594 32.508L2.046 34.818C5.984 33.52 7.81 30.022 7.81 26.128V24.852H5.412ZM6.006 24.852V26.128C6.006 29.758 7.766 32.948 11.638 34.114L13.024 31.826C9.746 30.836 8.382 28.504 8.382 26.128V24.852H6.006ZM1.364 23.95V26.282H12.364V23.95H1.364ZM13.992 22.586V34.664H16.918V22.586H13.992ZM16.104 27.272V29.67H19.624V27.272H16.104ZM10.274 35.038C6.028 35.038 3.366 36.512 3.366 38.998C3.366 41.484 6.028 42.958 10.274 42.958C14.498 42.958 17.16 41.484 17.16 38.998C17.16 36.512 14.498 35.038 10.274 35.038ZM10.274 37.326C12.87 37.326 14.256 37.854 14.256 38.998C14.256 40.142 12.87 40.714 10.274 40.714C7.678 40.714 6.27 40.142 6.27 38.998C6.27 37.854 7.678 37.326 10.274 37.326ZM25.6943 24.016C23.0103 24.016 21.2943 26.81 21.2943 31.408C21.2943 36.028 23.0103 38.822 25.6943 38.822C28.4003 38.822 30.1383 36.028 30.1383 31.408C30.1383 26.81 28.4003 24.016 25.6943 24.016ZM25.6943 26.766C26.8163 26.766 27.4543 28.306 27.4543 31.408C27.4543 34.532 26.8163 36.05 25.6943 36.05C24.5943 36.05 23.9563 34.532 23.9563 31.408C23.9563 28.306 24.5943 26.766 25.6943 26.766ZM35.8363 22.586V42.958H38.6303V22.586H35.8363ZM33.3943 30.352V32.706H36.7603V30.352H33.3943ZM31.3703 22.894V42.034H34.1203V22.894H31.3703ZM46.8126 23.994C43.7106 23.994 41.4666 26.81 41.4666 31.254C41.4666 35.742 43.7106 38.558 46.8126 38.558C49.9146 38.558 52.1586 35.742 52.1586 31.254C52.1586 26.81 49.9146 23.994 46.8126 23.994ZM46.8126 26.656C48.3306 26.656 49.3646 28.262 49.3646 31.254C49.3646 34.29 48.3306 35.918 46.8126 35.918C45.2946 35.918 44.2826 34.29 44.2826 31.254C44.2826 28.262 45.2946 26.656 46.8126 26.656ZM54.3806 22.586V42.958H57.3286V22.586H54.3806ZM56.6686 30.264V32.684H60.2766V30.264H56.6686ZM74.6188 22.564V42.936H77.5668V22.564H74.6188ZM76.7968 30.352V32.75H80.3828V30.352H76.7968ZM69.2728 24.676V25.182C69.2728 30.704 66.7428 34.444 61.3968 37.216L63.0248 39.438C69.8008 36.028 72.1328 30.792 72.1328 24.676H69.2728ZM62.5188 24.676V27.03H70.7688V24.676H62.5188ZM89.0271 24.456V24.962C89.0271 26.59 87.0691 28.416 82.6031 28.856L83.6371 31.122C88.8731 30.616 91.6231 28.064 91.6231 24.962V24.456H89.0271ZM90.4571 24.456V24.962C90.4571 28.086 93.2291 30.616 98.4431 31.122L99.4771 28.856C95.0111 28.438 93.0531 26.612 93.0531 24.962V24.456H90.4571ZM83.5051 23.334V25.644H98.5971V23.334H83.5051ZM81.8331 32.486V34.818H100.269V32.486H81.8331ZM89.5551 29.868V33.52H92.4591V29.868H89.5551ZM83.8791 36.292V38.602H95.0991V42.958H98.0251V36.292H83.8791Z" fill="#221714"/>
<path d="M122.192 25.094V27.47H125.712V25.094H122.192ZM122.192 29.516V31.892H125.712V29.516H122.192ZM112.732 23.686C109.586 23.686 107.188 25.754 107.188 28.636C107.188 31.496 109.586 33.564 112.732 33.564C115.878 33.564 118.276 31.496 118.276 28.636C118.276 25.754 115.878 23.686 112.732 23.686ZM112.732 26.128C114.272 26.128 115.416 27.074 115.416 28.636C115.416 30.22 114.272 31.122 112.732 31.122C111.192 31.122 110.048 30.22 110.048 28.636C110.048 27.074 111.192 26.128 112.732 26.128ZM120.168 22.586V34.466H123.094V22.586H120.168ZM116.45 34.906C112.226 34.906 109.542 36.424 109.542 38.932C109.542 41.462 112.226 42.958 116.45 42.958C120.652 42.958 123.336 41.462 123.336 38.932C123.336 36.424 120.652 34.906 116.45 34.906ZM116.45 37.216C119.046 37.216 120.432 37.766 120.432 38.932C120.432 40.12 119.046 40.67 116.45 40.67C113.854 40.67 112.446 40.12 112.446 38.932C112.446 37.766 113.854 37.216 116.45 37.216ZM131.628 33.234V37.238H134.554V33.234H131.628ZM138.426 33.212V37.216H141.33V33.212H138.426ZM127.294 32.09V34.4H145.708V32.09H127.294ZM129.34 36.27V38.558H140.56V42.958H143.486V36.27H129.34ZM136.512 22.982C132.024 22.982 129.142 24.522 129.142 26.986C129.142 29.472 132.024 31.012 136.512 31.012C140.978 31.012 143.882 29.472 143.882 26.986C143.882 24.522 140.978 22.982 136.512 22.982ZM136.512 25.248C139.284 25.248 140.868 25.82 140.868 26.986C140.868 28.174 139.284 28.746 136.512 28.746C133.718 28.746 132.156 28.174 132.156 26.986C132.156 25.82 133.718 25.248 136.512 25.248ZM152.438 25.798V28.086C152.438 31.54 150.788 35.302 147.378 36.82L149.028 39.13C152.856 37.392 154.77 32.794 154.77 28.086V25.798H152.438ZM153.098 25.798V28.086C153.098 32.618 154.99 36.952 158.862 38.624L160.446 36.314C157.036 34.906 155.408 31.386 155.408 28.086V25.798H153.098ZM148.192 24.544V26.942H159.61V24.544H148.192ZM161.502 22.586V42.958H164.45V22.586H161.502ZM173.073 33.036V37.502H175.999V33.036H173.073ZM182.005 22.586V38.008H184.931V22.586H182.005ZM170.257 40.274V42.606H185.371V40.274H170.257ZM170.257 36.556V40.89H173.183V36.556H170.257ZM168.057 33.916C171.731 33.916 176.505 33.806 180.839 33.08L180.663 30.99C176.395 31.54 171.423 31.584 167.705 31.584L168.057 33.916ZM178.155 34.422V36.424H182.643V34.422H178.155ZM174.261 23.29C171.269 23.29 169.179 24.764 169.179 26.92C169.179 29.098 171.269 30.55 174.261 30.55C177.231 30.55 179.321 29.098 179.321 26.92C179.321 24.764 177.231 23.29 174.261 23.29ZM174.261 25.424C175.603 25.424 176.549 25.93 176.549 26.92C176.549 27.91 175.603 28.416 174.261 28.416C172.897 28.416 171.951 27.91 171.951 26.92C171.951 25.93 172.897 25.424 174.261 25.424ZM192.585 24.148V27.118C192.585 30.902 191.023 34.818 187.591 36.424L189.351 38.778C193.201 36.886 194.961 32.156 194.961 27.118V24.148H192.585ZM193.179 24.148V27.118C193.179 32.002 194.785 36.534 198.459 38.404L200.219 36.072C196.963 34.488 195.511 30.77 195.511 27.118V24.148H193.179ZM201.033 22.586V42.958H203.981V22.586H201.033ZM203.321 30.418V32.86H206.929V30.418H203.321ZM218.543 27.074V29.428H223.647V27.074H218.543ZM213.879 23.422C210.799 23.422 208.489 25.468 208.489 28.284C208.489 31.122 210.799 33.146 213.879 33.146C216.937 33.146 219.247 31.122 219.247 28.284C219.247 25.468 216.937 23.422 213.879 23.422ZM213.879 25.864C215.375 25.864 216.453 26.766 216.453 28.284C216.453 29.802 215.375 30.726 213.879 30.726C212.383 30.726 211.283 29.802 211.283 28.284C211.283 26.766 212.383 25.864 213.879 25.864ZM222.371 22.586V33.542H225.297V22.586H222.371ZM211.767 34.422V42.738H225.297V34.422H222.393V36.358H214.671V34.422H211.767ZM214.671 38.602H222.393V40.406H214.671V38.602Z" fill="#92278F"/>
<path d="M116.78 7.76289C116.78 8.52934 116.15 9.15892 115.384 9.15892C114.617 9.15892 113.988 8.52934 113.988 7.76289C113.988 6.99645 114.617 6.36687 115.384 6.36687C116.15 6.36687 116.78 6.99645 116.78 7.76289Z" fill="#EC6500"/>
<path d="M43.6116 3.38144C43.2284 3.65517 42.763 3.95627 42.243 4.28475C41.1207 4.91433 40.0257 5.3523 39.0129 5.6534L39.6425 6.61146C41.0659 6.22824 42.3525 5.6534 43.5569 4.91433L43.6116 4.85959C43.6116 4.85959 43.6664 4.80484 43.7211 4.80484L47.2796 6.72095L47.9639 5.70815L44.7887 4.01102C45.3635 3.49093 45.8015 2.99822 46.1026 2.42338C46.3215 1.95804 46.431 1.62956 46.5132 1.30109H40.0531V2.5055H44.4602C44.2959 2.77923 43.9948 3.08034 43.6116 3.40881V3.38144Z" fill="#585754"/>
<path d="M38 7.13327V8.31031H42.9271V9.37786C42.7082 9.37786 42.5166 9.43261 42.2976 9.5421C41.8322 9.65159 41.5038 9.81583 41.23 10.1169C40.9015 10.3359 40.6552 10.637 40.4909 10.9655C40.3267 11.294 40.272 11.6498 40.272 12.033C40.272 12.3615 40.3267 12.7721 40.4909 13.1006C40.6552 13.4291 40.8742 13.7302 41.23 13.9492C41.5038 14.1681 41.8596 14.4145 42.2976 14.524C42.6808 14.6335 43.1461 14.743 43.6115 14.743C44.0768 14.743 44.5148 14.6335 44.9254 14.524C45.3086 14.4145 45.7192 14.1955 45.9929 13.9492C46.2667 13.7302 46.513 13.4291 46.6773 13.1006C46.8962 12.7721 46.951 12.3615 46.951 12.033C46.951 11.6498 46.8962 11.294 46.6773 10.9655C46.513 10.637 46.294 10.3359 45.9929 10.1169C45.7192 9.8432 45.3086 9.65159 44.9254 9.5421C44.7064 9.43261 44.46 9.37786 44.2958 9.37786V8.31031H49.223V7.13327H38ZM45.0896 10.9381C45.4181 11.2666 45.6645 11.6225 45.6645 12.0604C45.6645 12.471 45.4455 12.8542 45.0896 13.128C44.7064 13.4564 44.1863 13.5933 43.6115 13.5933C43.0366 13.5933 42.5439 13.4838 42.1333 13.128C41.7227 12.8542 41.5585 12.4436 41.5585 12.0604C41.5585 11.5951 41.7227 11.2666 42.1333 10.9381C42.5166 10.6644 43.0366 10.4728 43.6115 10.4728C44.1863 10.4728 44.679 10.637 45.0896 10.9381Z" fill="#585754"/>
<path d="M58.6393 10.1149C58.3655 9.84118 58.0097 9.64956 57.6265 9.48533C57.2159 9.37583 56.8326 9.26634 56.3947 9.26634C55.9841 9.26634 55.6008 9.37583 55.2176 9.48533C54.8344 9.64956 54.4786 9.8138 54.2048 10.1149C53.9311 10.3339 53.6847 10.635 53.5205 10.9635V11.0182C53.3563 11.4288 53.3015 11.7573 53.3015 12.1405C53.3015 12.5237 53.3563 12.8796 53.5205 13.2628V13.3176C53.6847 13.646 53.9311 13.9471 54.2048 14.1661C54.4786 14.4399 54.8344 14.6315 55.2176 14.7957C55.6282 14.9052 56.0114 15.0147 56.3947 15.0147C56.86 15.0147 57.2432 14.9052 57.6265 14.7957C58.0097 14.6315 58.3655 14.4672 58.6393 14.1661C58.913 13.8924 59.1593 13.5913 59.3236 13.2628C59.4878 12.8522 59.5426 12.5237 59.5426 12.1405C59.5426 11.7573 59.4878 11.4014 59.3236 11.0182C59.1593 10.6897 58.913 10.3886 58.6393 10.1149ZM57.6812 13.3997C57.3527 13.6734 56.9421 13.865 56.3673 13.865C55.8472 13.865 55.464 13.7008 55.0534 13.3997C54.7249 13.0712 54.5333 12.6606 54.5333 12.1679C54.5333 11.6752 54.6975 11.2646 55.0534 10.9087C55.464 10.635 55.8472 10.4434 56.3673 10.4434C56.9421 10.4434 57.3254 10.6076 57.6812 10.9087C58.0918 11.2372 58.256 11.6478 58.256 12.1679C58.256 12.688 58.0918 13.0712 57.6812 13.3997Z" fill="#585754"/>
<path d="M59.4877 1H58.1738V9.21192H59.4877V5.59867H61.5681V4.33951H59.4877V1Z" fill="#585754"/>
<path d="M54.7249 8.25382C55.1081 8.08958 55.4639 7.84322 55.7377 7.51474C56.0114 7.24101 56.2578 6.88516 56.3673 6.50194H56.422C56.5315 6.09134 56.641 5.65338 56.641 5.27015C56.641 4.80481 56.5315 4.42159 56.422 3.95625H56.3673C56.2578 3.54565 56.0388 3.21717 55.7377 2.94344C55.4639 2.66971 55.1081 2.42335 54.7249 2.25912C54.3143 2.09488 53.9311 2.04013 53.4657 2.04013C53.0825 2.04013 52.6719 2.09488 52.2887 2.25912C51.9054 2.42335 51.5496 2.64234 51.2759 2.94344C51.0021 3.21717 50.7558 3.57302 50.5915 3.95625C50.4821 4.42159 50.3726 4.80481 50.3726 5.27015C50.3726 5.65338 50.4821 6.11872 50.5915 6.50194C50.7558 6.91254 51.0021 7.24101 51.2759 7.51474C51.5496 7.84322 51.9054 8.08958 52.2887 8.25382C52.6993 8.36331 53.0825 8.4728 53.4657 8.4728C53.9311 8.4728 54.3143 8.36331 54.7249 8.25382ZM52.8088 7.18627C52.5898 7.07677 52.3982 6.91254 52.2339 6.72092C52.0697 6.55669 51.9054 6.3377 51.8233 6.0366C51.7138 5.81761 51.7138 5.51651 51.7138 5.24278C51.7138 4.96905 51.7138 4.66795 51.8233 4.39421C51.8781 4.17523 52.0423 3.92887 52.2339 3.76463C52.3982 3.54565 52.5624 3.43616 52.8088 3.29929C53.0277 3.1898 53.2741 3.13505 53.4931 3.13505C53.7668 3.13505 54.0132 3.1898 54.2322 3.29929C54.4511 3.40878 54.6428 3.51828 54.807 3.76463C54.9712 3.92887 55.0807 4.17523 55.1902 4.39421C55.2997 4.66795 55.2997 4.96905 55.2997 5.24278C55.2997 5.51651 55.2997 5.81761 55.1902 6.0366C55.0807 6.31033 54.9712 6.55669 54.807 6.72092C54.6428 6.88516 54.4785 7.0494 54.2322 7.18627C54.0132 7.24101 53.7668 7.29576 53.4931 7.29576C53.2741 7.29576 53.0277 7.24101 52.8088 7.18627Z" fill="#585754"/>
<path d="M71.1762 10.1149C70.9024 9.84118 70.6013 9.64956 70.2181 9.48533C69.8075 9.37583 69.3695 9.26634 68.9863 9.26634C68.521 9.26634 68.1377 9.37583 67.7272 9.48533C67.3166 9.64956 66.9881 9.8138 66.7143 10.1149C66.4406 10.3886 66.1943 10.6897 66.03 11.0182C65.8658 11.4288 65.811 11.7573 65.811 12.1405C65.811 12.5237 65.8658 12.8796 66.03 13.2628C66.1943 13.5913 66.4406 13.8924 66.7143 14.1661C66.9881 14.4399 67.3439 14.6315 67.7272 14.7957C68.1104 14.9052 68.521 15.0147 68.9863 15.0147C69.3695 15.0147 69.8349 14.9052 70.2181 14.7957C70.6013 14.6315 70.9024 14.4672 71.1762 14.1661C71.5046 13.8924 71.6962 13.5913 71.8605 13.2628C72.0247 12.8522 72.0795 12.5237 72.0795 12.1405C72.0795 11.7573 72.0247 11.4014 71.8605 11.0182C71.6962 10.6897 71.532 10.3886 71.1762 10.1149ZM70.2728 13.3997C69.9444 13.6734 69.479 13.865 68.9589 13.865C68.4388 13.865 68.0009 13.7008 67.645 13.3997C67.3166 13.0712 67.0702 12.6606 67.0702 12.1679C67.0702 11.6752 67.2892 11.2646 67.645 10.9087C67.9735 10.635 68.4388 10.4434 68.9589 10.4434C69.479 10.4434 69.917 10.6076 70.2728 10.9087C70.6013 11.2372 70.7929 11.6478 70.7929 12.1679C70.7929 12.688 70.6287 13.0712 70.2728 13.3997Z" fill="#585754"/>
<path d="M72.0248 1H70.7109V9.21192H72.0248V5.59867H74.1326V4.33951H72.0248V1Z" fill="#585754"/>
<path d="M66.6595 6.44719L68.9862 8.36331L69.3147 8.63704L70.1085 7.73373L68.9862 6.77567L67.3985 5.46176C67.8091 4.88693 68.1376 4.28472 68.3566 3.65514C68.5756 3.02556 68.6851 2.53284 68.7398 2.01276H63.5389V3.1898H67.0974C66.8784 3.92887 66.3584 4.83218 65.5645 5.79024C64.716 6.69355 63.7579 7.54212 62.7451 8.22644L63.5937 9.07501C64.6612 8.39068 65.6193 7.54212 66.4679 6.6388C66.5226 6.52931 66.5773 6.47457 66.6321 6.41982L66.6595 6.44719Z" fill="#585754"/>
<path d="M80.3188 4.22994C80.0999 3.90146 79.744 3.6551 79.4155 3.49086C79.0323 3.27188 78.6217 3.21713 78.2385 3.21713C77.8553 3.21713 77.4447 3.27188 77.0614 3.49086C76.733 3.6551 76.3771 3.90146 76.1034 4.22994C75.8844 4.55841 75.638 4.91426 75.5285 5.35223C75.3643 5.81757 75.3096 6.25554 75.3096 6.72088C75.3096 7.24097 75.3643 7.67894 75.5285 8.14428C75.638 8.60963 75.857 8.9381 76.1034 9.26658C76.3771 9.59506 76.733 9.84141 77.0614 10.0057C77.4447 10.2246 77.8553 10.2794 78.2385 10.2794C78.6217 10.2794 79.0323 10.2246 79.4155 10.0057C79.744 9.84141 80.0999 9.59506 80.3188 9.26658C80.5926 8.9381 80.8389 8.58225 80.9484 8.14428C81.1127 7.67894 81.1674 7.24097 81.1674 6.72088C81.1674 6.25554 81.1127 5.81757 80.9484 5.35223C80.8389 4.88689 80.6199 4.55841 80.3188 4.22994ZM79.744 7.67894C79.6345 8.00742 79.525 8.25378 79.4155 8.47276C79.2513 8.69174 79.087 8.88336 78.8407 8.99285C78.6217 9.10234 78.4575 9.15709 78.2111 9.15709V9.10234C77.9921 9.10234 77.7458 9.10234 77.5815 8.99285C77.3625 8.88336 77.1709 8.71912 77.0067 8.47276C76.8972 8.25378 76.7877 8.00742 76.6782 7.67894C76.6235 7.40521 76.5687 7.04936 76.5687 6.72088C76.5687 6.44715 76.6235 6.0913 76.6782 5.81757C76.7877 5.4891 76.8972 5.24274 77.0067 5.02375C77.1709 4.80477 77.3352 4.64053 77.5815 4.50367C77.7458 4.39417 77.9648 4.33943 78.2111 4.33943C78.4575 4.33943 78.5943 4.39417 78.8407 4.50367C79.0597 4.61316 79.2239 4.7774 79.4155 5.02375C79.525 5.24274 79.6345 5.4891 79.744 5.81757C79.7987 6.0913 79.8535 6.44715 79.8535 6.72088C79.8535 7.04936 79.7987 7.40521 79.744 7.67894Z" fill="#585754"/>
<path d="M84.5068 6.11876H83.275V1.57483H82.0159V13.9201H83.275V7.2958H84.5068V14.8234H85.766V1.24635H84.5068V6.11876Z" fill="#585754"/>
<path d="M92.4725 4.22994C92.1987 3.90146 91.8429 3.6551 91.4049 3.49086C90.9943 3.27188 90.6111 3.21713 90.1458 3.21713C89.6804 3.21713 89.2972 3.27188 88.914 3.49086C88.4486 3.6551 88.1202 3.90146 87.8464 4.22994C87.5727 4.50367 87.3263 4.91426 87.2168 5.35223C87.0526 5.81757 86.9431 6.25554 86.9431 6.72088C86.9431 7.24097 87.0526 7.67894 87.2168 8.14428C87.3263 8.60963 87.5453 8.9381 87.8464 9.26658C88.1202 9.59506 88.476 9.84141 88.914 10.0057C89.2972 10.2246 89.7078 10.2794 90.1458 10.2794C90.5837 10.2794 90.9943 10.2246 91.4049 10.0057C91.8703 9.84141 92.1987 9.59506 92.4725 9.26658C92.7462 8.9381 92.9926 8.58225 93.1568 8.14428C93.2663 7.67894 93.3758 7.24097 93.3758 6.72088C93.3758 6.25554 93.2663 5.81757 93.1568 5.35223C92.9926 4.88689 92.7736 4.50367 92.4725 4.22994ZM91.8976 7.67894C91.7881 8.00742 91.6786 8.25378 91.5144 8.47276C91.3502 8.69174 91.1312 8.88336 90.8848 8.99285C90.6658 9.10234 90.4195 9.15709 90.1458 9.15709C89.872 9.10234 89.6257 9.10234 89.4067 8.99285C89.1877 8.88336 88.9413 8.71912 88.7771 8.47276C88.6129 8.25378 88.5034 8.00742 88.3665 7.67894C88.257 7.40521 88.257 7.04936 88.257 6.72088C88.257 6.44715 88.257 6.0913 88.3665 5.81757C88.476 5.4891 88.5855 5.24274 88.7771 5.02375C88.9413 4.80477 89.1603 4.64053 89.4067 4.50367C89.6257 4.39417 89.872 4.33943 90.1458 4.33943C90.4195 4.33943 90.6658 4.39417 90.8848 4.50367C91.1038 4.61316 91.3502 4.7774 91.5144 5.02375C91.6786 5.24274 91.7881 5.4891 91.8976 5.81757C92.0071 6.0913 92.0071 6.44715 92.0071 6.72088C92.0071 7.04936 92.0071 7.40521 91.8976 7.67894Z" fill="#585754"/>
<path d="M96.0856 1.24635H94.7991V14.8234H96.0856V7.35055H98.1933V6.11876H96.0856V1.24635Z" fill="#585754"/>
<path d="M107.391 10.0602C107.062 9.78643 106.706 9.59482 106.323 9.43058C105.858 9.32109 105.42 9.26634 104.955 9.26634C104.489 9.26634 104.106 9.32109 103.641 9.43058C103.257 9.59482 102.847 9.75906 102.573 10.0602C102.299 10.2791 102.053 10.5802 101.889 10.9087C101.724 11.2372 101.615 11.6478 101.615 11.9763C101.615 12.3869 101.724 12.7153 101.889 13.0438C102.053 13.3723 102.299 13.7281 102.573 13.9471C102.847 14.1661 103.257 14.4125 103.641 14.522C104.106 14.6315 104.489 14.741 104.955 14.741C105.42 14.741 105.858 14.6315 106.323 14.522C106.734 14.4125 107.062 14.1935 107.391 13.9471C107.664 13.7281 107.911 13.3723 108.075 13.0438C108.239 12.7153 108.349 12.3595 108.349 11.9763C108.349 11.6478 108.239 11.2372 108.075 10.9087C107.911 10.5802 107.664 10.2791 107.391 10.0602ZM106.433 13.1259C106.049 13.3997 105.584 13.5913 104.955 13.5913C104.38 13.5913 103.942 13.4818 103.531 13.1259C103.148 12.8522 102.902 12.4416 102.902 12.0036C102.902 11.5657 103.121 11.2098 103.531 10.8814C103.914 10.6076 104.38 10.416 104.955 10.416C105.584 10.416 106.022 10.5802 106.433 10.8814C106.816 11.2098 107.062 11.5657 107.062 12.0036C107.062 12.4416 106.843 12.8522 106.433 13.1259Z" fill="#585754"/>
<path d="M105.694 6.09137H108.404V4.91433H104.954H102.847V2.47813H104.954H108.404V1.30109H104.954H101.56V6.09137H104.38V7.40528H99.343V8.58232H104.954H110.566V7.40528H105.694V6.09137Z" fill="#585754"/>
<path d="M123.924 12.4964H129.043V9.1021H123.075H122.583V10.2518H123.075H127.729V11.3741H123.075H122.638V14.9326H123.075H129.371V13.8103H123.924V12.4964Z" fill="#585754"/>
<path d="M125.922 8.03679V1.87785H124.608V3.79397H121.597V1.87785H120.283V8.03679H125.895H125.922ZM121.625 6.85975V4.94364H124.636V6.85975H121.625Z" fill="#585754"/>
<path d="M129.043 1.10948H127.729V8.41809H129.043V5.48917H131.123V4.17527H129.043V1.10948Z" fill="#585754"/>
<path d="M138.705 6.61143H133.778V3.16243H137.802V2.04013H132.464V7.73373H138.705V6.61143Z" fill="#585754"/>
<path d="M141.196 1.10948H139.883V8.36334H141.196V5.48917H143.222V4.23001H141.196V1.10948Z" fill="#585754"/>
<path d="M136.105 12.4964H141.196V9.04736H134.736V10.1697H139.882V11.3193H134.791V14.9326H141.525V13.8103H136.105V12.4964Z" fill="#585754"/>
<path d="M153.022 10.1149C152.748 9.84118 152.392 9.64956 152.009 9.48533C151.598 9.37583 151.215 9.26634 150.804 9.26634C150.339 9.26634 149.956 9.37583 149.573 9.48533C149.189 9.64956 148.834 9.8138 148.56 10.1149C148.286 10.3886 148.04 10.6897 147.875 11.0182C147.711 11.4288 147.656 11.7573 147.656 12.1405C147.656 12.5237 147.711 12.8796 147.875 13.2628C148.04 13.5913 148.259 13.8924 148.56 14.1661C148.834 14.4399 149.189 14.6315 149.573 14.7957C149.956 14.9052 150.366 15.0147 150.804 15.0147C151.215 15.0147 151.598 14.9052 152.009 14.7957C152.392 14.6315 152.748 14.4672 153.022 14.1661C153.295 13.8924 153.542 13.5913 153.706 13.2628C153.87 12.8522 153.925 12.5237 153.925 12.1405C153.925 11.7573 153.87 11.4014 153.706 11.0182C153.542 10.6897 153.295 10.3886 153.022 10.1149ZM152.118 13.3997C151.708 13.6734 151.324 13.865 150.804 13.865C150.23 13.865 149.846 13.7008 149.49 13.3997C149.08 13.0712 148.916 12.6606 148.916 12.1679C148.916 11.6752 149.08 11.2646 149.49 10.9087C149.819 10.635 150.23 10.4434 150.804 10.4434C151.324 10.4434 151.708 10.6076 152.118 10.9087C152.447 11.2372 152.638 11.6478 152.638 12.1679C152.638 12.688 152.474 13.0712 152.118 13.3997Z" fill="#585754"/>
<path d="M153.87 1H152.556V9.21192H153.87V5.59867H155.95V4.33951H153.87V1Z" fill="#585754"/>
<path d="M148.478 6.44719L150.805 8.36331L151.133 8.63704L151.927 7.73373L150.805 6.77567L149.217 5.46176C149.627 4.88693 149.956 4.28472 150.175 3.65514C150.394 3.02556 150.503 2.53284 150.586 2.01276H145.385V3.1898H148.943C148.724 3.92887 148.204 4.83218 147.356 5.79024C146.562 6.69355 145.604 7.54212 144.591 8.22644L145.385 9.07501C146.452 8.39068 147.492 7.54212 148.341 6.6388C148.396 6.52931 148.45 6.47457 148.505 6.41982L148.478 6.44719Z" fill="#585754"/>
<path d="M162.356 4.22994C162.082 3.90146 161.781 3.6551 161.398 3.49086C161.069 3.27188 160.659 3.21713 160.275 3.21713C159.892 3.21713 159.482 3.27188 159.098 3.49086C158.77 3.6551 158.414 3.90146 158.14 4.22994C157.921 4.55841 157.675 4.91426 157.565 5.35223C157.401 5.81757 157.346 6.25554 157.346 6.72088C157.346 7.24097 157.401 7.67894 157.565 8.14428C157.675 8.60963 157.894 8.9381 158.14 9.26658C158.414 9.59506 158.77 9.84141 159.098 10.0057C159.509 10.2246 159.892 10.2794 160.275 10.2794C160.659 10.2794 161.069 10.2246 161.398 10.0057C161.781 9.84141 162.082 9.59506 162.356 9.26658C162.629 8.9381 162.821 8.58225 162.985 8.14428C163.095 7.67894 163.204 7.24097 163.204 6.72088C163.204 6.25554 163.095 5.81757 162.985 5.35223C162.821 4.88689 162.657 4.55841 162.356 4.22994ZM161.726 7.67894C161.671 8.00742 161.562 8.25378 161.398 8.47276C161.288 8.69174 161.124 8.88336 160.878 8.99285C160.659 9.10234 160.412 9.15709 160.248 9.15709V9.10234C160.029 9.10234 159.81 9.10234 159.618 8.99285C159.399 8.88336 159.208 8.71912 159.044 8.47276C158.934 8.25378 158.825 8.00742 158.715 7.67894C158.66 7.40521 158.606 7.04936 158.606 6.72088C158.606 6.44715 158.66 6.0913 158.715 5.81757C158.825 5.4891 158.934 5.24274 159.044 5.02375C159.208 4.80477 159.372 4.64053 159.618 4.50367C159.783 4.39417 160.002 4.33943 160.248 4.33943C160.412 4.33943 160.659 4.39417 160.878 4.50367C161.097 4.61316 161.261 4.7774 161.398 5.02375C161.562 5.24274 161.671 5.4891 161.726 5.81757C161.836 6.0913 161.836 6.44715 161.836 6.72088C161.836 7.04936 161.836 7.40521 161.726 7.67894Z" fill="#585754"/>
<path d="M166.544 6.11876H165.285V1.57483H164.053V13.9201H165.285V7.2958H166.544V14.8234H167.776V1.24635H166.544V6.11876Z" fill="#585754"/>
<path d="M178.698 11.0185V1.16423H178.068H177.384V11.0185H178.068H178.698Z" fill="#585754"/>
<path d="M173.387 13.7007V10.3612H172.347H172.073V14.8778H172.347H178.068H178.917V13.7007H178.068H173.387Z" fill="#585754"/>
<path d="M173.606 8.58229C173.989 8.41805 174.4 8.17169 174.674 7.89796C174.947 7.56949 175.194 7.21364 175.358 6.83041C175.522 6.44719 175.577 6.03659 175.577 5.59863C175.577 5.16066 175.522 4.69531 175.358 4.28472C175.194 3.87412 174.975 3.54565 174.674 3.27192C174.4 2.94344 173.989 2.69708 173.606 2.53284C173.196 2.3686 172.812 2.31386 172.347 2.31386C171.882 2.31386 171.498 2.3686 171.088 2.53284C170.705 2.69708 170.294 2.94344 170.02 3.27192C169.747 3.54565 169.5 3.9015 169.336 4.28472C169.172 4.66794 169.117 5.13328 169.117 5.59863C169.117 6.06397 169.172 6.44719 169.336 6.83041C169.5 7.24101 169.747 7.56949 170.02 7.89796C170.294 8.17169 170.705 8.41805 171.088 8.58229C171.498 8.74653 171.882 8.80127 172.347 8.80127C172.812 8.80127 173.196 8.74653 173.606 8.58229ZM171.635 7.51474C171.416 7.40525 171.17 7.29576 171.006 7.0494C170.841 6.88516 170.677 6.6388 170.622 6.36507C170.513 6.14609 170.458 5.84498 170.458 5.57125C170.458 5.29752 170.513 4.99642 170.622 4.72269C170.677 4.44896 170.841 4.2026 171.006 4.03836C171.17 3.87412 171.416 3.70988 171.635 3.57302C171.854 3.46353 172.101 3.46353 172.374 3.46353C172.648 3.46353 172.894 3.46353 173.113 3.57302C173.332 3.68251 173.579 3.84675 173.743 4.03836C173.907 4.2026 174.071 4.42158 174.126 4.72269C174.236 4.99642 174.29 5.29752 174.29 5.57125C174.29 5.84498 174.236 6.14609 174.126 6.36507C174.071 6.6388 173.907 6.88516 173.743 7.0494C173.579 7.26838 173.332 7.37787 173.113 7.51474C172.894 7.62423 172.648 7.67898 172.374 7.67898C172.101 7.67898 171.854 7.62423 171.635 7.51474Z" fill="#585754"/>
<path d="M186.28 3.0529H181.024V4.1752H184.774C184.254 6.39241 182.803 8.41802 180.312 10.2794L181.161 11.128C182.475 10.2246 183.488 9.21184 184.336 8.06217L186.882 10.8816L187.785 10.033L185.021 7.02199C185.705 5.76283 186.143 4.42155 186.335 2.99815L186.28 3.0529Z" fill="#585754"/>
<path d="M190.03 1.24635H188.716V14.8234H190.03V1.24635Z" fill="#585754"/>
<path d="M197.147 9.62251V10.7995H197.694H199.912V12.0587H201.28V1.16423H199.912V9.62251H197.694H197.147Z" fill="#585754"/>
<path d="M195.505 13.7007V11.3192H195.203H194.191V14.8777H195.203H197.694H201.445V13.7007H197.694H195.505Z" fill="#585754"/>
<path d="M193.068 6.28492C193.342 6.5039 193.643 6.69551 194.026 6.80501C194.41 6.96924 194.82 7.02399 195.203 7.02399C195.669 7.02399 196.052 6.96924 196.38 6.80501C196.764 6.69551 197.12 6.53127 197.393 6.28492C197.503 6.17542 197.557 6.12068 197.667 6.01119C197.776 5.84695 197.886 5.68271 197.995 5.43635C198.16 5.16262 198.214 4.80677 198.214 4.4783C198.214 4.09507 198.16 3.73922 197.995 3.46549C197.886 3.24651 197.776 3.0549 197.667 2.89066C197.557 2.78116 197.503 2.72642 197.393 2.61693C197.12 2.39794 196.764 2.20633 196.38 2.09684C196.052 1.98735 195.641 1.87785 195.203 1.87785C194.793 1.87785 194.41 1.98735 194.026 2.09684C193.616 2.20633 193.342 2.37057 193.068 2.61693C192.795 2.83591 192.548 3.13701 192.439 3.46549C192.274 3.73922 192.22 4.09507 192.22 4.4783C192.22 4.80677 192.274 5.16262 192.439 5.43635C192.548 5.76483 192.767 6.06593 193.068 6.28492ZM193.972 3.46549C194.3 3.19176 194.765 3.0549 195.231 3.0549C195.751 3.0549 196.134 3.16439 196.463 3.46549C196.791 3.73922 196.983 4.09507 196.983 4.4783C196.983 4.86152 196.818 5.21737 196.463 5.43635C196.134 5.71008 195.723 5.84695 195.231 5.84695C194.765 5.84695 194.327 5.73746 193.972 5.43635C193.698 5.21737 193.506 4.86152 193.506 4.4783C193.506 4.09507 193.671 3.73922 193.972 3.46549Z" fill="#585754"/>
<path d="M194.3 10.7446H195.669V8.82844C196.08 8.82844 196.517 8.82844 197.038 8.7737H197.722C198.297 8.71895 198.844 8.6642 199.419 8.55471V7.3503C198.844 7.45979 198.297 7.51453 197.722 7.56928C197.503 7.56928 197.202 7.62403 196.983 7.62403C196.244 7.62403 195.669 7.67877 195.231 7.67877H191.371V8.80107H194.328V10.7172L194.3 10.7446Z" fill="#585754"/>
<path d="M213.325 11.1007V1.16423H212.695H212.065V11.1007H212.695H213.325Z" fill="#585754"/>
<path d="M208.507 13.7007H207.822V10.3612H206.536V14.8778H208.507H212.695H213.489V13.7007H212.695H208.507Z" fill="#585754"/>
<path d="M209.629 5.70814V10.7448H210.888V1.52007H209.629V4.5311H208.507H207.823V5.70814H208.507H209.629Z" fill="#585754"/>
<path d="M208.507 9.10238L209.246 8.52755L208.507 7.73373L206.536 5.29753C206.755 4.50371 206.947 3.65514 206.947 2.91607V2.0675H205.633V2.69708C205.633 3.76463 205.414 4.85956 204.948 5.92711C204.483 6.93991 203.826 7.89797 202.786 8.80128L203.689 9.5951C204.757 8.69179 205.551 7.67898 206.071 6.58406L208.288 9.29399L208.507 9.07501V9.10238Z" fill="#585754"/>
<path d="M222.713 1.24635V6.283H220.77H220.441V7.46004H220.77H222.713V14.8234H224V1.24635H222.713Z" fill="#585754"/>
<path d="M216.144 9.73192V7.45996H219.702V6.33767H216.144V4.0657H220.496V2.94341H214.83V10.8542H220.77H221.181V9.73192H220.77H216.144Z" fill="#585754"/>
</svg>
