<svg width="228" height="53" viewBox="0 0 228 53" fill="none" xmlns="http://www.w3.org/2000/svg">
<path d="M5.412 30.852V32.128C5.412 34.724 3.982 37.386 0.594 38.508L2.046 40.818C5.984 39.52 7.81 36.022 7.81 32.128V30.852H5.412ZM6.006 30.852V32.128C6.006 35.758 7.766 38.948 11.638 40.114L13.024 37.826C9.746 36.836 8.382 34.504 8.382 32.128V30.852H6.006ZM1.364 29.95V32.282H12.364V29.95H1.364ZM13.992 28.586V40.664H16.918V28.586H13.992ZM16.104 33.272V35.67H19.624V33.272H16.104ZM10.274 41.038C6.028 41.038 3.366 42.512 3.366 44.998C3.366 47.484 6.028 48.958 10.274 48.958C14.498 48.958 17.16 47.484 17.16 44.998C17.16 42.512 14.498 41.038 10.274 41.038ZM10.274 43.326C12.87 43.326 14.256 43.854 14.256 44.998C14.256 46.142 12.87 46.714 10.274 46.714C7.678 46.714 6.27 46.142 6.27 44.998C6.27 43.854 7.678 43.326 10.274 43.326ZM25.6943 30.016C23.0103 30.016 21.2943 32.81 21.2943 37.408C21.2943 42.028 23.0103 44.822 25.6943 44.822C28.4003 44.822 30.1383 42.028 30.1383 37.408C30.1383 32.81 28.4003 30.016 25.6943 30.016ZM25.6943 32.766C26.8163 32.766 27.4543 34.306 27.4543 37.408C27.4543 40.532 26.8163 42.05 25.6943 42.05C24.5943 42.05 23.9563 40.532 23.9563 37.408C23.9563 34.306 24.5943 32.766 25.6943 32.766ZM35.8363 28.586V48.958H38.6303V28.586H35.8363ZM33.3943 36.352V38.706H36.7603V36.352H33.3943ZM31.3703 28.894V48.034H34.1203V28.894H31.3703ZM46.8126 29.994C43.7106 29.994 41.4666 32.81 41.4666 37.254C41.4666 41.742 43.7106 44.558 46.8126 44.558C49.9146 44.558 52.1586 41.742 52.1586 37.254C52.1586 32.81 49.9146 29.994 46.8126 29.994ZM46.8126 32.656C48.3306 32.656 49.3646 34.262 49.3646 37.254C49.3646 40.29 48.3306 41.918 46.8126 41.918C45.2946 41.918 44.2826 40.29 44.2826 37.254C44.2826 34.262 45.2946 32.656 46.8126 32.656ZM54.3806 28.586V48.958H57.3286V28.586H54.3806ZM56.6686 36.264V38.684H60.2766V36.264H56.6686ZM74.6188 28.564V48.936H77.5668V28.564H74.6188ZM76.7968 36.352V38.75H80.3828V36.352H76.7968ZM69.2728 30.676V31.182C69.2728 36.704 66.7428 40.444 61.3968 43.216L63.0248 45.438C69.8008 42.028 72.1328 36.792 72.1328 30.676H69.2728ZM62.5188 30.676V33.03H70.7688V30.676H62.5188ZM89.0271 30.456V30.962C89.0271 32.59 87.0691 34.416 82.6031 34.856L83.6371 37.122C88.8731 36.616 91.6231 34.064 91.6231 30.962V30.456H89.0271ZM90.4571 30.456V30.962C90.4571 34.086 93.2291 36.616 98.4431 37.122L99.4771 34.856C95.0111 34.438 93.0531 32.612 93.0531 30.962V30.456H90.4571ZM83.5051 29.334V31.644H98.5971V29.334H83.5051ZM81.8331 38.486V40.818H100.269V38.486H81.8331ZM89.5551 35.868V39.52H92.4591V35.868H89.5551ZM83.8791 42.292V44.602H95.0991V48.958H98.0251V42.292H83.8791Z" fill="#221714"/>
<path d="M122.192 31.094V33.47H125.712V31.094H122.192ZM122.192 35.516V37.892H125.712V35.516H122.192ZM112.732 29.686C109.586 29.686 107.188 31.754 107.188 34.636C107.188 37.496 109.586 39.564 112.732 39.564C115.878 39.564 118.276 37.496 118.276 34.636C118.276 31.754 115.878 29.686 112.732 29.686ZM112.732 32.128C114.272 32.128 115.416 33.074 115.416 34.636C115.416 36.22 114.272 37.122 112.732 37.122C111.192 37.122 110.048 36.22 110.048 34.636C110.048 33.074 111.192 32.128 112.732 32.128ZM120.168 28.586V40.466H123.094V28.586H120.168ZM116.45 40.906C112.226 40.906 109.542 42.424 109.542 44.932C109.542 47.462 112.226 48.958 116.45 48.958C120.652 48.958 123.336 47.462 123.336 44.932C123.336 42.424 120.652 40.906 116.45 40.906ZM116.45 43.216C119.046 43.216 120.432 43.766 120.432 44.932C120.432 46.12 119.046 46.67 116.45 46.67C113.854 46.67 112.446 46.12 112.446 44.932C112.446 43.766 113.854 43.216 116.45 43.216ZM131.628 39.234V43.238H134.554V39.234H131.628ZM138.426 39.212V43.216H141.33V39.212H138.426ZM127.294 38.09V40.4H145.708V38.09H127.294ZM129.34 42.27V44.558H140.56V48.958H143.486V42.27H129.34ZM136.512 28.982C132.024 28.982 129.142 30.522 129.142 32.986C129.142 35.472 132.024 37.012 136.512 37.012C140.978 37.012 143.882 35.472 143.882 32.986C143.882 30.522 140.978 28.982 136.512 28.982ZM136.512 31.248C139.284 31.248 140.868 31.82 140.868 32.986C140.868 34.174 139.284 34.746 136.512 34.746C133.718 34.746 132.156 34.174 132.156 32.986C132.156 31.82 133.718 31.248 136.512 31.248ZM152.438 31.798V34.086C152.438 37.54 150.788 41.302 147.378 42.82L149.028 45.13C152.856 43.392 154.77 38.794 154.77 34.086V31.798H152.438ZM153.098 31.798V34.086C153.098 38.618 154.99 42.952 158.862 44.624L160.446 42.314C157.036 40.906 155.408 37.386 155.408 34.086V31.798H153.098ZM148.192 30.544V32.942H159.61V30.544H148.192ZM161.502 28.586V48.958H164.45V28.586H161.502ZM173.073 39.036V43.502H175.999V39.036H173.073ZM182.005 28.586V44.008H184.931V28.586H182.005ZM170.257 46.274V48.606H185.371V46.274H170.257ZM170.257 42.556V46.89H173.183V42.556H170.257ZM168.057 39.916C171.731 39.916 176.505 39.806 180.839 39.08L180.663 36.99C176.395 37.54 171.423 37.584 167.705 37.584L168.057 39.916ZM178.155 40.422V42.424H182.643V40.422H178.155ZM174.261 29.29C171.269 29.29 169.179 30.764 169.179 32.92C169.179 35.098 171.269 36.55 174.261 36.55C177.231 36.55 179.321 35.098 179.321 32.92C179.321 30.764 177.231 29.29 174.261 29.29ZM174.261 31.424C175.603 31.424 176.549 31.93 176.549 32.92C176.549 33.91 175.603 34.416 174.261 34.416C172.897 34.416 171.951 33.91 171.951 32.92C171.951 31.93 172.897 31.424 174.261 31.424ZM192.585 30.148V33.118C192.585 36.902 191.023 40.818 187.591 42.424L189.351 44.778C193.201 42.886 194.961 38.156 194.961 33.118V30.148H192.585ZM193.179 30.148V33.118C193.179 38.002 194.785 42.534 198.459 44.404L200.219 42.072C196.963 40.488 195.511 36.77 195.511 33.118V30.148H193.179ZM201.033 28.586V48.958H203.981V28.586H201.033ZM203.321 36.418V38.86H206.929V36.418H203.321ZM218.543 33.074V35.428H223.647V33.074H218.543ZM213.879 29.422C210.799 29.422 208.489 31.468 208.489 34.284C208.489 37.122 210.799 39.146 213.879 39.146C216.937 39.146 219.247 37.122 219.247 34.284C219.247 31.468 216.937 29.422 213.879 29.422ZM213.879 31.864C215.375 31.864 216.453 32.766 216.453 34.284C216.453 35.802 215.375 36.726 213.879 36.726C212.383 36.726 211.283 35.802 211.283 34.284C211.283 32.766 212.383 31.864 213.879 31.864ZM222.371 28.586V39.542H225.297V28.586H222.371ZM211.767 40.422V48.738H225.297V40.422H222.393V42.358H214.671V40.422H211.767ZM214.671 44.602H222.393V46.406H214.671V44.602Z" fill="#92278F"/>
<path d="M34.1761 17.7224C28.6664 21.0579 22.2487 22.0446 15.3333 21.3548C8.32175 20.6563 4.86403 16.5349 5.20456 13.7932C5.52763 11.2086 8.5837 9.07812 12.7574 9.07812C16.9311 9.07812 20.3103 11.1912 20.3103 13.7932C20.3103 13.7932 20.3103 17.3208 13.194 14.4568C13.194 14.4568 11.5175 13.5662 10.6269 12.7279L10.2776 12.3263C10.9587 12.9026 12.705 13.7234 14.757 13.7932C16.774 13.8631 16.5731 12.8065 16.1191 12.1866C15.6651 11.5666 14.3466 10.4577 12.0764 10.6149C9.80613 10.7808 8.11219 12.1866 8.24317 13.9154C8.36541 15.6618 10.6356 19.0584 17.6384 19.722C24.5888 20.3769 29.5658 19.6521 34.1586 17.7224H34.1761Z" fill="#00B3CD"/>
<path d="M10.8275 9.23328C11.4387 9.1285 12.0936 9.06738 12.7659 9.06738C16.9396 9.06738 20.3188 11.1804 20.3188 13.7825C20.3188 13.7825 20.3188 17.31 13.2025 14.4461C13.2025 14.4461 11.526 13.5554 10.6354 12.7172L10.2861 12.3155C10.9672 12.8918 12.7135 13.7126 14.7655 13.7825C16.7825 13.8523 16.5816 12.7958 16.1276 12.1758C15.6735 11.5559 14.3551 10.447 12.0848 10.6041C11.6308 10.6391 11.203 10.7177 10.8013 10.8486V9.23328H10.8275Z" fill="#920783"/>
<path d="M3.76 6.6007C3.76 7.08959 3.36889 7.4807 2.88 7.4807C2.39111 7.4807 2 7.08959 2 6.6007C2 6.11181 2.39111 5.7207 2.88 5.7207C3.36889 5.7207 3.76 6.11181 3.76 6.6007Z" fill="#EC6500"/>
<path d="M7.27378 6.29979C7.27378 5.7235 7.6929 5.05117 8.35651 5.23453C9.02011 5.4179 9.57894 6.02911 9.57894 6.94593C9.57894 6.94593 9.56147 10.1679 9.56147 11.0498C9.56147 11.9317 10.4434 12.7088 11.0371 13.1454C11.6221 13.5732 12.6088 14.1233 12.6088 14.1233C12.6088 14.1233 12.0762 13.6955 12.0762 13.2938C12.0762 12.8922 12.0936 6.78876 12.0936 6.78876C12.0936 4.85907 11.0982 2.96431 8.66211 2.31817C6.26965 1.68076 4.95117 3.78508 4.95117 5.31312V8.8145L7.25632 10.456V6.29979H7.27378Z" fill="#EC6500"/>
<path d="M116.779 13.7632C116.779 14.5297 116.15 15.1592 115.383 15.1592C114.617 15.1592 113.987 14.5297 113.987 13.7632C113.987 12.9968 114.617 12.3672 115.383 12.3672C116.15 12.3672 116.779 12.9968 116.779 13.7632Z" fill="#EC6500"/>
<path d="M43.6114 9.38113C43.2281 9.65487 42.7628 9.95597 42.2427 10.2844C41.1204 10.914 40.0255 11.352 39.0127 11.6531L39.6423 12.6112C41.0657 12.2279 42.3522 11.6531 43.5566 10.914L43.6114 10.8593C43.6114 10.8593 43.6661 10.8045 43.7209 10.8045L47.2794 12.7206L47.9637 11.7078L44.7884 10.0107C45.3632 9.49063 45.8012 8.99791 46.1023 8.42308C46.3213 7.95774 46.4308 7.62926 46.5129 7.30078H40.0529V8.5052H44.4599C44.2957 8.77893 43.9946 9.08003 43.6114 9.40851V9.38113Z" fill="#585754"/>
<path d="M38 13.1328V14.3099H42.9271V15.3774C42.7082 15.3774 42.5166 15.4321 42.2976 15.5416C41.8322 15.6511 41.5038 15.8154 41.23 16.1165C40.9015 16.3355 40.6552 16.6366 40.4909 16.965C40.3267 17.2935 40.272 17.6494 40.272 18.0326C40.272 18.3611 40.3267 18.7717 40.4909 19.1001C40.6552 19.4286 40.8742 19.7297 41.23 19.9487C41.5038 20.1677 41.8596 20.414 42.2976 20.5235C42.6808 20.633 43.1461 20.7425 43.6115 20.7425C44.0768 20.7425 44.5148 20.633 44.9254 20.5235C45.3086 20.414 45.7192 20.1951 45.9929 19.9487C46.2667 19.7297 46.513 19.4286 46.6773 19.1001C46.8962 18.7717 46.951 18.3611 46.951 18.0326C46.951 17.6494 46.8962 17.2935 46.6773 16.965C46.513 16.6366 46.294 16.3355 45.9929 16.1165C45.7192 15.8427 45.3086 15.6511 44.9254 15.5416C44.7064 15.4321 44.46 15.3774 44.2958 15.3774V14.3099H49.223V13.1328H38ZM45.0896 16.9377C45.4181 17.2661 45.6645 17.622 45.6645 18.06C45.6645 18.4706 45.4455 18.8538 45.0896 19.1275C44.7064 19.456 44.1863 19.5929 43.6115 19.5929C43.0366 19.5929 42.5439 19.4834 42.1333 19.1275C41.7227 18.8538 41.5585 18.4432 41.5585 18.06C41.5585 17.5946 41.7227 17.2661 42.1333 16.9377C42.5166 16.6639 43.0366 16.4723 43.6115 16.4723C44.1863 16.4723 44.679 16.6366 45.0896 16.9377Z" fill="#585754"/>
<path d="M58.6395 16.1152C58.3658 15.8414 58.0099 15.6498 57.6267 15.4856C57.2161 15.3761 56.8329 15.2666 56.3949 15.2666C55.9843 15.2666 55.6011 15.3761 55.2179 15.4856C54.8346 15.6498 54.4788 15.8141 54.2051 16.1152C53.9313 16.3342 53.685 16.6353 53.5207 16.9637V17.0185C53.3565 17.4291 53.3018 17.7575 53.3018 18.1408C53.3018 18.524 53.3565 18.8798 53.5207 19.2631V19.3178C53.685 19.6463 53.9313 19.9474 54.2051 20.1664C54.4788 20.4401 54.8346 20.6317 55.2179 20.796C55.6285 20.9055 56.0117 21.0149 56.3949 21.0149C56.8603 21.0149 57.2435 20.9055 57.6267 20.796C58.0099 20.6317 58.3658 20.4675 58.6395 20.1664C58.9132 19.8926 59.1596 19.5915 59.3238 19.2631C59.4881 18.8525 59.5428 18.524 59.5428 18.1408C59.5428 17.7575 59.4881 17.4017 59.3238 17.0185C59.1596 16.69 58.9132 16.3889 58.6395 16.1152ZM57.6814 19.3999C57.353 19.6737 56.9424 19.8653 56.3675 19.8653C55.8474 19.8653 55.4642 19.701 55.0536 19.3999C54.7252 19.0715 54.5335 18.6609 54.5335 18.1681C54.5335 17.6754 54.6978 17.2648 55.0536 16.909C55.4642 16.6353 55.8474 16.4436 56.3675 16.4436C56.9424 16.4436 57.3256 16.6079 57.6814 16.909C58.092 17.2375 58.2563 17.6481 58.2563 18.1681C58.2563 18.6882 58.092 19.0715 57.6814 19.3999Z" fill="#585754"/>
<path d="M59.4877 7H58.1738V15.2119H59.4877V11.5987H61.5681V10.3395H59.4877V7Z" fill="#585754"/>
<path d="M54.7254 14.2537C55.1086 14.0895 55.4644 13.8431 55.7382 13.5147C56.0119 13.2409 56.2583 12.8851 56.3677 12.5018H56.4225C56.532 12.0913 56.6415 11.6533 56.6415 11.2701C56.6415 10.8047 56.532 10.4215 56.4225 9.95615H56.3677C56.2583 9.54556 56.0393 9.21708 55.7382 8.94335C55.4644 8.66962 55.1086 8.42326 54.7254 8.25902C54.3148 8.09479 53.9315 8.04004 53.4662 8.04004C53.083 8.04004 52.6724 8.09479 52.2892 8.25902C51.9059 8.42326 51.5501 8.64225 51.2764 8.94335C51.0026 9.21708 50.7563 9.57293 50.592 9.95615C50.4825 10.4215 50.373 10.8047 50.373 11.2701C50.373 11.6533 50.4825 12.1186 50.592 12.5018C50.7563 12.9124 51.0026 13.2409 51.2764 13.5147C51.5501 13.8431 51.9059 14.0895 52.2892 14.2537C52.6998 14.3632 53.083 14.4727 53.4662 14.4727C53.9315 14.4727 54.3148 14.3632 54.7254 14.2537ZM52.8092 13.1862C52.5903 13.0767 52.3986 12.9124 52.2344 12.7208C52.0702 12.5566 51.9059 12.3376 51.8238 12.0365C51.7143 11.8175 51.7143 11.5164 51.7143 11.2427C51.7143 10.969 51.7143 10.6679 51.8238 10.3941C51.8786 10.1751 52.0428 9.92878 52.2344 9.76454C52.3986 9.54556 52.5629 9.43607 52.8092 9.2992C53.0282 9.18971 53.2746 9.13496 53.4936 9.13496C53.7673 9.13496 54.0137 9.18971 54.2326 9.2992C54.4516 9.40869 54.6432 9.51818 54.8075 9.76454C54.9717 9.92878 55.0812 10.1751 55.1907 10.3941C55.3002 10.6679 55.3002 10.969 55.3002 11.2427C55.3002 11.5164 55.3002 11.8175 55.1907 12.0365C55.0812 12.3102 54.9717 12.5566 54.8075 12.7208C54.6432 12.8851 54.479 13.0493 54.2326 13.1862C54.0137 13.2409 53.7673 13.2957 53.4936 13.2957C53.2746 13.2957 53.0282 13.2409 52.8092 13.1862Z" fill="#585754"/>
<path d="M71.1757 16.1152C70.9019 15.8414 70.6008 15.6498 70.2176 15.4856C69.807 15.3761 69.369 15.2666 68.9858 15.2666C68.5205 15.2666 68.1373 15.3761 67.7267 15.4856C67.3161 15.6498 66.9876 15.8141 66.7139 16.1152C66.4401 16.3889 66.1938 16.69 66.0295 17.0185C65.8653 17.4291 65.8105 17.7575 65.8105 18.1408C65.8105 18.524 65.8653 18.8798 66.0295 19.2631C66.1938 19.5915 66.4401 19.8926 66.7139 20.1664C66.9876 20.4401 67.3434 20.6317 67.7267 20.796C68.1099 20.9055 68.5205 21.0149 68.9858 21.0149C69.369 21.0149 69.8344 20.9055 70.2176 20.796C70.6008 20.6317 70.9019 20.4675 71.1757 20.1664C71.5041 19.8926 71.6958 19.5915 71.86 19.2631C72.0242 18.8525 72.079 18.524 72.079 18.1408C72.079 17.7575 72.0242 17.4017 71.86 17.0185C71.6958 16.69 71.5315 16.3889 71.1757 16.1152ZM70.2724 19.3999C69.9439 19.6737 69.4785 19.8653 68.9584 19.8653C68.4384 19.8653 68.0004 19.701 67.6445 19.3999C67.3161 19.0715 67.0697 18.6609 67.0697 18.1681C67.0697 17.6754 67.2887 17.2648 67.6445 16.909C67.973 16.6353 68.4384 16.4436 68.9584 16.4436C69.4785 16.4436 69.9165 16.6079 70.2724 16.909C70.6008 17.2375 70.7924 17.6481 70.7924 18.1681C70.7924 18.6882 70.6282 19.0715 70.2724 19.3999Z" fill="#585754"/>
<path d="M72.0248 7H70.7109V15.2119H72.0248V11.5987H74.1326V10.3395H72.0248V7Z" fill="#585754"/>
<path d="M66.6595 12.4471L68.9862 14.3632L69.3147 14.637L70.1085 13.7337L68.9862 12.7756L67.3985 11.4617C67.8091 10.8869 68.1376 10.2847 68.3566 9.65508C68.5756 9.0255 68.6851 8.53278 68.7398 8.0127H63.5389V9.18974H67.0974C66.8784 9.92881 66.3584 10.8321 65.5645 11.7902C64.716 12.6935 63.7579 13.5421 62.7451 14.2264L63.5937 15.0749C64.6612 14.3906 65.6193 13.5421 66.4679 12.6387C66.5226 12.5293 66.5773 12.4745 66.6321 12.4198L66.6595 12.4471Z" fill="#585754"/>
<path d="M80.3188 10.2296C80.0999 9.90112 79.744 9.65477 79.4155 9.49053C79.0323 9.27154 78.6217 9.2168 78.2385 9.2168C77.8553 9.2168 77.4447 9.27154 77.0614 9.49053C76.733 9.65477 76.3771 9.90112 76.1034 10.2296C75.8844 10.5581 75.638 10.9139 75.5285 11.3519C75.3643 11.8172 75.3096 12.2552 75.3096 12.7205C75.3096 13.2406 75.3643 13.6786 75.5285 14.1439C75.638 14.6093 75.857 14.9378 76.1034 15.2662C76.3771 15.5947 76.733 15.8411 77.0614 16.0053C77.4447 16.2243 77.8553 16.279 78.2385 16.279C78.6217 16.279 79.0323 16.2243 79.4155 16.0053C79.744 15.8411 80.0999 15.5947 80.3188 15.2662C80.5926 14.9378 80.8389 14.5819 80.9484 14.1439C81.1127 13.6786 81.1674 13.2406 81.1674 12.7205C81.1674 12.2552 81.1127 11.8172 80.9484 11.3519C80.8389 10.8866 80.6199 10.5581 80.3188 10.2296ZM79.744 13.6786C79.6345 14.0071 79.525 14.2534 79.4155 14.4724C79.2513 14.6914 79.087 14.883 78.8407 14.9925C78.6217 15.102 78.4575 15.1568 78.2111 15.1568V15.102C77.9921 15.102 77.7458 15.102 77.5815 14.9925C77.3625 14.883 77.1709 14.7188 77.0067 14.4724C76.8972 14.2534 76.7877 14.0071 76.6782 13.6786C76.6235 13.4049 76.5687 13.049 76.5687 12.7205C76.5687 12.4468 76.6235 12.091 76.6782 11.8172C76.7877 11.4888 76.8972 11.2424 77.0067 11.0234C77.1709 10.8044 77.3352 10.6402 77.5815 10.5033C77.7458 10.3938 77.9648 10.3391 78.2111 10.3391C78.4575 10.3391 78.5943 10.3938 78.8407 10.5033C79.0597 10.6128 79.2239 10.7771 79.4155 11.0234C79.525 11.2424 79.6345 11.4888 79.744 11.8172C79.7987 12.091 79.8535 12.4468 79.8535 12.7205C79.8535 13.049 79.7987 13.4049 79.744 13.6786Z" fill="#585754"/>
<path d="M84.5066 12.1185H83.2748V7.57457H82.0156V19.9198H83.2748V13.2955H84.5066V20.8231H85.7657V7.24609H84.5066V12.1185Z" fill="#585754"/>
<path d="M92.4727 10.2296C92.199 9.90112 91.8431 9.65477 91.4052 9.49053C90.9946 9.27154 90.6113 9.2168 90.146 9.2168C89.6807 9.2168 89.2974 9.27154 88.9142 9.49053C88.4489 9.65477 88.1204 9.90112 87.8467 10.2296C87.5729 10.5033 87.3266 10.9139 87.2171 11.3519C87.0528 11.8172 86.9434 12.2552 86.9434 12.7205C86.9434 13.2406 87.0528 13.6786 87.2171 14.1439C87.3266 14.6093 87.5456 14.9378 87.8467 15.2662C88.1204 15.5947 88.4762 15.8411 88.9142 16.0053C89.2974 16.2243 89.708 16.279 90.146 16.279C90.584 16.279 90.9946 16.2243 91.4052 16.0053C91.8705 15.8411 92.199 15.5947 92.4727 15.2662C92.7464 14.9378 92.9928 14.5819 93.157 14.1439C93.2665 13.6786 93.376 13.2406 93.376 12.7205C93.376 12.2552 93.2665 11.8172 93.157 11.3519C92.9928 10.8866 92.7738 10.5033 92.4727 10.2296ZM91.8979 13.6786C91.7884 14.0071 91.6789 14.2534 91.5147 14.4724C91.3504 14.6914 91.1314 14.883 90.8851 14.9925C90.6661 15.102 90.4197 15.1568 90.146 15.1568C89.8723 15.102 89.6259 15.102 89.4069 14.9925C89.1879 14.883 88.9416 14.7188 88.7773 14.4724C88.6131 14.2534 88.5036 14.0071 88.3668 13.6786C88.2573 13.4049 88.2573 13.049 88.2573 12.7205C88.2573 12.4468 88.2573 12.091 88.3668 11.8172C88.4763 11.4888 88.5857 11.2424 88.7773 11.0234C88.9416 10.8044 89.1606 10.6402 89.4069 10.5033C89.6259 10.3938 89.8723 10.3391 90.146 10.3391C90.4197 10.3391 90.6661 10.3938 90.8851 10.5033C91.1041 10.6128 91.3504 10.7771 91.5147 11.0234C91.6789 11.2424 91.7884 11.4888 91.8979 11.8172C92.0074 12.091 92.0074 12.4468 92.0074 12.7205C92.0074 13.049 92.0074 13.4049 91.8979 13.6786Z" fill="#585754"/>
<path d="M96.0854 7.24609H94.7988V20.8231H96.0854V13.3503H98.1931V12.1185H96.0854V7.24609Z" fill="#585754"/>
<path d="M107.391 16.0604C107.062 15.7867 106.707 15.5951 106.323 15.4308C105.858 15.3213 105.42 15.2666 104.955 15.2666C104.489 15.2666 104.106 15.3213 103.641 15.4308C103.258 15.5951 102.847 15.7593 102.573 16.0604C102.3 16.2794 102.053 16.5805 101.889 16.909C101.725 17.2375 101.615 17.6481 101.615 17.9765C101.615 18.3871 101.725 18.7156 101.889 19.0441C102.053 19.3726 102.3 19.7284 102.573 19.9474C102.847 20.1664 103.258 20.4127 103.641 20.5222C104.106 20.6317 104.489 20.7412 104.955 20.7412C105.42 20.7412 105.858 20.6317 106.323 20.5222C106.734 20.4127 107.062 20.1938 107.391 19.9474C107.665 19.7284 107.911 19.3726 108.075 19.0441C108.24 18.7156 108.349 18.3598 108.349 17.9765C108.349 17.6481 108.24 17.2375 108.075 16.909C107.911 16.5805 107.665 16.2794 107.391 16.0604ZM106.433 19.1262C106.05 19.3999 105.584 19.5915 104.955 19.5915C104.38 19.5915 103.942 19.4821 103.531 19.1262C103.148 18.8525 102.902 18.4419 102.902 18.0039C102.902 17.5659 103.121 17.2101 103.531 16.8816C103.915 16.6079 104.38 16.4163 104.955 16.4163C105.584 16.4163 106.022 16.5805 106.433 16.8816C106.816 17.2101 107.062 17.5659 107.062 18.0039C107.062 18.4419 106.843 18.8525 106.433 19.1262Z" fill="#585754"/>
<path d="M105.693 12.0911H108.403V10.914H104.954H102.847V8.47782H104.954H108.403V7.30078H104.954H101.56V12.0911H104.379V13.405H99.3428V14.582H104.954H110.566V13.405H105.693V12.0911Z" fill="#585754"/>
<path d="M123.924 18.4968H129.043V15.1025H123.076H122.583V16.2522H123.076H127.729V17.3745H123.076H122.638V20.933H123.076H129.372V19.8107H123.924V18.4968Z" fill="#585754"/>
<path d="M125.922 14.0369V7.87793H124.608V9.79404H121.597V7.87793H120.283V14.0369H125.895H125.922ZM121.624 12.8598V10.9437H124.636V12.8598H121.624Z" fill="#585754"/>
<path d="M129.042 7.10938H127.729V14.418H129.042V11.4891H131.123V10.1752H129.042V7.10938Z" fill="#585754"/>
<path d="M138.706 12.6113H133.779V9.16234H137.803V8.04004H132.465V13.7336H138.706V12.6113Z" fill="#585754"/>
<path d="M141.197 7.10938H139.883V14.3632H141.197V11.4891H143.222V10.2299H141.197V7.10938Z" fill="#585754"/>
<path d="M136.105 18.4959H141.196V15.0469H134.736V16.1692H139.882V17.3188H134.791V20.9321H141.525V19.8098H136.105V18.4959Z" fill="#585754"/>
<path d="M153.021 16.1152C152.748 15.8414 152.392 15.6498 152.009 15.4856C151.598 15.3761 151.215 15.2666 150.804 15.2666C150.339 15.2666 149.956 15.3761 149.572 15.4856C149.189 15.6498 148.833 15.8141 148.56 16.1152C148.286 16.3889 148.039 16.69 147.875 17.0185C147.711 17.4291 147.656 17.7575 147.656 18.1408C147.656 18.524 147.711 18.8798 147.875 19.2631C148.039 19.5915 148.258 19.8926 148.56 20.1664C148.833 20.4401 149.189 20.6317 149.572 20.796C149.956 20.9055 150.366 21.0149 150.804 21.0149C151.215 21.0149 151.598 20.9055 152.009 20.796C152.392 20.6317 152.748 20.4675 153.021 20.1664C153.295 19.8926 153.541 19.5915 153.706 19.2631C153.87 18.8525 153.925 18.524 153.925 18.1408C153.925 17.7575 153.87 17.4017 153.706 17.0185C153.541 16.69 153.295 16.3889 153.021 16.1152ZM152.118 19.3999C151.707 19.6737 151.324 19.8653 150.804 19.8653C150.229 19.8653 149.846 19.701 149.49 19.3999C149.08 19.0715 148.915 18.6609 148.915 18.1681C148.915 17.6754 149.08 17.2648 149.49 16.909C149.819 16.6353 150.229 16.4436 150.804 16.4436C151.324 16.4436 151.707 16.6079 152.118 16.909C152.447 17.2375 152.638 17.6481 152.638 18.1681C152.638 18.6882 152.474 19.0715 152.118 19.3999Z" fill="#585754"/>
<path d="M153.871 7H152.557V15.2119H153.871V11.5987H155.951V10.3395H153.871V7Z" fill="#585754"/>
<path d="M148.478 12.4471L150.805 14.3632L151.133 14.637L151.927 13.7337L150.805 12.7756L149.217 11.4617C149.627 10.8869 149.956 10.2847 150.175 9.65508C150.394 9.0255 150.503 8.53278 150.586 8.0127H145.385V9.18974H148.943C148.724 9.92881 148.204 10.8321 147.356 11.7902C146.562 12.6935 145.604 13.5421 144.591 14.2264L145.385 15.0749C146.452 14.3906 147.492 13.5421 148.341 12.6387C148.396 12.5293 148.45 12.4745 148.505 12.4198L148.478 12.4471Z" fill="#585754"/>
<path d="M162.356 10.2296C162.082 9.90112 161.781 9.65477 161.398 9.49053C161.069 9.27154 160.659 9.2168 160.276 9.2168C159.892 9.2168 159.482 9.27154 159.099 9.49053C158.77 9.65477 158.414 9.90112 158.141 10.2296C157.922 10.5581 157.675 10.9139 157.566 11.3519C157.401 11.8172 157.347 12.2552 157.347 12.7205C157.347 13.2406 157.401 13.6786 157.566 14.1439C157.675 14.6093 157.894 14.9378 158.141 15.2662C158.414 15.5947 158.77 15.8411 159.099 16.0053C159.509 16.2243 159.892 16.279 160.276 16.279C160.659 16.279 161.069 16.2243 161.398 16.0053C161.781 15.8411 162.082 15.5947 162.356 15.2662C162.63 14.9378 162.821 14.5819 162.986 14.1439C163.095 13.6786 163.205 13.2406 163.205 12.7205C163.205 12.2552 163.095 11.8172 162.986 11.3519C162.821 10.8866 162.657 10.5581 162.356 10.2296ZM161.726 13.6786C161.672 14.0071 161.562 14.2534 161.398 14.4724C161.288 14.6914 161.124 14.883 160.878 14.9925C160.659 15.102 160.412 15.1568 160.248 15.1568V15.102C160.029 15.102 159.81 15.102 159.619 14.9925C159.4 14.883 159.208 14.7188 159.044 14.4724C158.934 14.2534 158.825 14.0071 158.715 13.6786C158.661 13.4049 158.606 13.049 158.606 12.7205C158.606 12.4468 158.661 12.091 158.715 11.8172C158.825 11.4888 158.934 11.2424 159.044 11.0234C159.208 10.8044 159.372 10.6402 159.619 10.5033C159.783 10.3938 160.002 10.3391 160.248 10.3391C160.412 10.3391 160.659 10.3938 160.878 10.5033C161.097 10.6128 161.261 10.7771 161.398 11.0234C161.562 11.2424 161.672 11.4888 161.726 11.8172C161.836 12.091 161.836 12.4468 161.836 12.7205C161.836 13.049 161.836 13.4049 161.726 13.6786Z" fill="#585754"/>
<path d="M166.544 12.1185H165.285V7.57457H164.053V19.9198H165.285V13.2955H166.544V20.8231H167.775V7.24609H166.544V12.1185Z" fill="#585754"/>
<path d="M178.698 17.0184V7.16406H178.068H177.384V17.0184H178.068H178.698Z" fill="#585754"/>
<path d="M173.387 19.7008V16.3613H172.347H172.073V20.8779H172.347H178.068H178.917V19.7008H178.068H173.387Z" fill="#585754"/>
<path d="M173.606 14.5819C173.99 14.4177 174.4 14.1713 174.674 13.8976C174.948 13.5691 175.194 13.2133 175.358 12.83C175.522 12.4468 175.577 12.0362 175.577 11.5982C175.577 11.1603 175.522 10.6949 175.358 10.2843C175.194 9.87374 174.975 9.54526 174.674 9.27153C174.4 8.94306 173.99 8.6967 173.606 8.53246C173.196 8.36822 172.813 8.31348 172.347 8.31348C171.882 8.31348 171.499 8.36822 171.088 8.53246C170.705 8.6967 170.294 8.94306 170.021 9.27153C169.747 9.54526 169.5 9.90111 169.336 10.2843C169.172 10.6676 169.117 11.1329 169.117 11.5982C169.117 12.0636 169.172 12.4468 169.336 12.83C169.5 13.2406 169.747 13.5691 170.021 13.8976C170.294 14.1713 170.705 14.4177 171.088 14.5819C171.499 14.7461 171.882 14.8009 172.347 14.8009C172.813 14.8009 173.196 14.7461 173.606 14.5819ZM171.636 13.5144C171.417 13.4049 171.17 13.2954 171.006 13.049C170.842 12.8848 170.677 12.6384 170.623 12.3647C170.513 12.1457 170.458 11.8446 170.458 11.5709C170.458 11.2971 170.513 10.996 170.623 10.7223C170.677 10.4486 170.842 10.2022 171.006 10.038C171.17 9.87374 171.417 9.7095 171.636 9.57264C171.854 9.46314 172.101 9.46314 172.375 9.46314C172.648 9.46314 172.895 9.46314 173.114 9.57264C173.333 9.68213 173.579 9.84637 173.743 10.038C173.907 10.2022 174.072 10.4212 174.126 10.7223C174.236 10.996 174.291 11.2971 174.291 11.5709C174.291 11.8446 174.236 12.1457 174.126 12.3647C174.072 12.6384 173.907 12.8848 173.743 13.049C173.579 13.268 173.333 13.3775 173.114 13.5144C172.895 13.6239 172.648 13.6786 172.375 13.6786C172.101 13.6786 171.854 13.6239 171.636 13.5144Z" fill="#585754"/>
<path d="M186.28 9.05279H181.024V10.1751H184.774C184.254 12.3923 182.803 14.4179 180.312 16.2793L181.161 17.1278C182.475 16.2245 183.488 15.2117 184.336 14.0621L186.882 16.8815L187.785 16.0329L185.021 13.0219C185.705 11.7627 186.143 10.4214 186.335 8.99805L186.28 9.05279Z" fill="#585754"/>
<path d="M190.03 7.24609H188.716V20.8231H190.03V7.24609Z" fill="#585754"/>
<path d="M197.147 15.6223V16.7994H197.695H199.912V18.0585H201.281V7.16406H199.912V15.6223H197.695H197.147Z" fill="#585754"/>
<path d="M195.504 19.7008V17.3193H195.203H194.19V20.8778H195.203H197.694H201.444V19.7008H197.694H195.504Z" fill="#585754"/>
<path d="M193.068 12.285C193.342 12.504 193.643 12.6956 194.026 12.8051C194.41 12.9693 194.82 13.0241 195.203 13.0241C195.669 13.0241 196.052 12.9693 196.38 12.8051C196.764 12.6956 197.12 12.5314 197.393 12.285C197.503 12.1755 197.557 12.1208 197.667 12.0113C197.776 11.847 197.886 11.6828 197.995 11.4364C198.16 11.1627 198.214 10.8068 198.214 10.4784C198.214 10.0951 198.16 9.7393 197.995 9.46557C197.886 9.24658 197.776 9.05497 197.667 8.89073C197.557 8.78124 197.503 8.72649 197.393 8.617C197.12 8.39802 196.764 8.20641 196.38 8.09691C196.052 7.98742 195.641 7.87793 195.203 7.87793C194.793 7.87793 194.41 7.98742 194.026 8.09691C193.616 8.20641 193.342 8.37064 193.068 8.617C192.795 8.83599 192.548 9.13709 192.439 9.46557C192.274 9.7393 192.22 10.0951 192.22 10.4784C192.22 10.8068 192.274 11.1627 192.439 11.4364C192.548 11.7649 192.767 12.066 193.068 12.285ZM193.972 9.46557C194.3 9.19184 194.765 9.05497 195.231 9.05497C195.751 9.05497 196.134 9.16446 196.463 9.46557C196.791 9.7393 196.983 10.0951 196.983 10.4784C196.983 10.8616 196.818 11.2174 196.463 11.4364C196.134 11.7102 195.723 11.847 195.231 11.847C194.765 11.847 194.327 11.7375 193.972 11.4364C193.698 11.2174 193.506 10.8616 193.506 10.4784C193.506 10.0951 193.671 9.7393 193.972 9.46557Z" fill="#585754"/>
<path d="M194.3 16.7448H195.669V14.8287C196.079 14.8287 196.517 14.8287 197.037 14.774H197.722C198.296 14.7192 198.844 14.6645 199.419 14.555V13.3506C198.844 13.4601 198.296 13.5148 197.722 13.5696C197.503 13.5696 197.202 13.6243 196.983 13.6243C196.244 13.6243 195.669 13.6791 195.231 13.6791H191.371V14.8014H194.327V16.7175L194.3 16.7448Z" fill="#585754"/>
<path d="M213.325 17.1005V7.16406H212.695H212.065V17.1005H212.695H213.325Z" fill="#585754"/>
<path d="M208.507 19.7008H207.823V16.3613H206.536V20.8779H208.507H212.695H213.489V19.7008H212.695H208.507Z" fill="#585754"/>
<path d="M209.629 11.7086V16.7452H210.888V7.52051H209.629V10.5315H208.507H207.822V11.7086H208.507H209.629Z" fill="#585754"/>
<path d="M208.507 15.1023L209.246 14.5274L208.507 13.7336L206.536 11.2974C206.755 10.5036 206.947 9.65502 206.947 8.91595V8.06738H205.633V8.69696C205.633 9.76451 205.414 10.8594 204.949 11.927C204.483 12.9398 203.826 13.8978 202.786 14.8012L203.689 15.595C204.757 14.6917 205.551 13.6789 206.071 12.5839L208.288 15.2939L208.507 15.0749V15.1023Z" fill="#585754"/>
<path d="M222.713 7.24609V12.2827H220.77H220.441V13.4598H220.77H222.713V20.8231H224V7.24609H222.713Z" fill="#585754"/>
<path d="M216.144 15.7319V13.4599H219.702V12.3376H216.144V10.0657H220.496V8.94336H214.83V16.8542H220.77H221.181V15.7319H220.77H216.144Z" fill="#585754"/>
</svg>
